<?xml version="1.0" encoding="utf-8"?>
<!-- Generator: Adobe Illustrator 24.2.3, SVG Export Plug-In . SVG Version: 6.00 Build 0)  -->
<svg version="1.1" xmlns="http://www.w3.org/2000/svg" xmlns:xlink="http://www.w3.org/1999/xlink" x="0px" y="0px"
	 viewBox="0 0 841.9 595.3" style="enable-background:new 0 0 841.9 595.3;" xml:space="preserve">
<style type="text/css">
	._x0030__x002C_5_x0020_Kontur{fill:none;stroke:#E8317D;stroke-width:0.5;}
	.st0{display:none;}
	.st1{display:inline;opacity:0.2;}
	.st2{opacity:0.2;}
	.st3{display:inline;}
	.st4{fill:none;stroke:#E8317D;stroke-width:0.5;}
	.st5{fill:none;stroke:#E8317D;stroke-width:0.5;stroke-miterlimit:10;}
	.st6{fill:none;stroke:#E8317D;}
	.st7{fill:none;stroke:#000000;stroke-width:2;}
	.st8{fill:none;stroke:#000000;stroke-width:2;stroke-miterlimit:10;}
	.st9{fill:#E94542;}
	.st10{fill:#4C6A8D;}
	.st11{fill:#FAC28D;}
	.st12{fill:#EA565F;}
	.st13{fill:#059DA9;}
	.st14{fill:none;}
	.st15{fill:#575756;}
	.st16{fill:#DADADA;}
</style>
<g id="scan" class="st0">
	<g id="Einfache_x5F_Formen.tiff_1_" class="st1">
		<defs>
			<rect id="SVGID_1_" x="95.3" y="15.5" class="st2" width="651.2" height="564.2"/>
		</defs>
		<clipPath id="SVGID_2_">
			<use xlink:href="#SVGID_1_"  style="overflow:visible;"/>
		</clipPath>
		<g transform="matrix(1 0 0 1 0 0)" style="clip-path:url(#SVGID_2_);">
			
				<image style="overflow:visible;" width="2440" height="2114" id="Einfache_x5F_Formen_1_" xlink:href="5A2B9B5E.jpg"  transform="matrix(0.2669 0 0 0.2669 95.3433 15.5387)">
			</image>
		</g>
	</g>
</g>
<g id="zeichnen" class="st0">
	<g class="st3">
		<path class="st4" d="M353.6,160.1c0,47.8-38.8,83.6-86.6,83.6c-40.8,0-86.6-25.4-86.6-83.6c0-47.8,53.6-88.9,86.6-88.9
			C324.9,71.1,353.6,112.2,353.6,160.1z"/>
		<path class="st5" d="M393.4,85c-6-11.3-39.3-6.6-78.3,5.7c4.2,3.6,9,7.8,12.1,10.5c22.2-7.1,36.5-8.1,40.2-1.5
			c7.9,14.1-29.6,42.9-91.3,73.4c-61.7,30.5-109.3,42.3-114.1,29.5c-3.2-8.5,6-19.2,24.3-32v-17.8c-40,29-68.9,63.7-56.9,87.1
			c15.3,30.1,93.3-4.3,156.3-38.5C346.1,168.6,409.9,116.2,393.4,85z"/>
		<ellipse class="st5" cx="216.6" cy="165" rx="12.7" ry="9.9"/>
		<ellipse class="st5" cx="237.4" cy="126.6" rx="9.5" ry="6.9"/>
		<ellipse class="st5" cx="203.9" cy="139.3" rx="7.5" ry="4.9"/>
		<ellipse class="st5" cx="234.5" cy="104.7" rx="6.4" ry="4.9"/>
		<circle class="st5" cx="257.3" cy="91.9" r="4"/>
		<ellipse class="st5" cx="275.8" cy="222.6" rx="9.2" ry="4.6"/>
		<circle class="st5" cx="303.6" cy="212.5" r="3.9"/>
	</g>
	<g class="st3">
		<g>
			<path class="_x0030__x002C_5_x0020_Kontur" d="M613.7,71.7c0.4,10.7-24.7,19.6-45.1,19.6c-20.1,0-45.1-9.7-45.1-18.2
				c0-6.3,22.3-13.5,46.5-13.5S613.4,65.3,613.7,71.7z"/>
			<path class="_x0030__x002C_5_x0020_Kontur" d="M604.1,83.1c-4.3,3.5-21.2,8.2-35.5,8.2c-14.6,0-30.1-5.9-34.7-8.1
				c2.1-3.2,15.8-8.9,34.7-8.9S600.9,80.6,604.1,83.1z"/>
			<path class="st6" d="M611.2,113.3c3.9-14.4,2.5-41.6,2.5-41.6c-1.4,11.1-22.8,19.6-44.7,19.6c-21.7,0-44.2-9.8-45.4-18.2
				c0,0-1.6,26.2,2.4,40.6c4,14.4,24.5,34.5,32.7,49.7c7.3,13.4,4.5,44.5-2.2,53.4c-4.6,6-11.2,11.2-19.9,14.5
				c16,6.6,24.2,7.5,32.4,7.4c8.3,0,19.1-1.3,32.4-7.6c-8.7-3.2-15.4-8.4-20-14.4c-6.8-8.8-9.8-39.9-2.6-53.3
				C587,148,607.3,127.7,611.2,113.3z"/>
			<path class="_x0030__x002C_5_x0020_Kontur" d="M611.2,113.3c3.9-14.4,2.5-41.6,2.5-41.6c-1.4,11.1-22.8,19.6-44.7,19.6
				c-21.7,0-44.2-9.8-45.4-18.2c0,0-1.6,26.2,2.4,40.6c4,14.4,24.5,34.5,32.7,49.7c7.3,13.4,4.5,44.5-2.2,53.4
				c-4.6,6-11.2,11.2-19.9,14.5c16,6.6,24.2,7.5,32.4,7.4c8.3,0,19.1-1.3,32.4-7.6c-8.7-3.2-15.4-8.4-20-14.4
				c-6.8-8.8-9.8-39.9-2.6-53.3C587,148,607.3,127.7,611.2,113.3z"/>
		</g>
		<g>
			<path class="st4" d="M613.7,71.7c0.4,10.7-24.7,19.6-45.1,19.6c-20.1,0-45.1-9.7-45.1-18.2c0-6.3,22.3-13.5,46.5-13.5
				S613.4,65.3,613.7,71.7z"/>
			<path class="st4" d="M604.1,83.1c-4.3,3.5-21.2,8.2-35.5,8.2c-14.6,0-30.1-5.9-34.7-8.1c2.1-3.2,15.8-8.9,34.7-8.9
				S600.9,80.6,604.1,83.1z"/>
			<path class="st4" d="M611.2,113.3c3.9-14.4,2.5-41.6,2.5-41.6c-1.4,11.1-22.8,19.6-44.7,19.6c-21.7,0-44.2-9.8-45.4-18.2
				c0,0-1.6,26.2,2.4,40.6c4,14.4,24.5,34.5,32.7,49.7c7.3,13.4,4.5,44.5-2.2,53.4c-4.6,6-11.2,11.2-19.9,14.5
				c16,6.6,24.2,7.5,32.4,7.4c8.3,0,19.1-1.3,32.4-7.6c-8.7-3.2-15.4-8.4-20-14.4c-6.8-8.8-9.8-39.9-2.6-53.3
				C587,148,607.3,127.7,611.2,113.3z"/>
			<path class="st4" d="M611.2,113.3c3.9-14.4,2.5-41.6,2.5-41.6c-1.4,11.1-22.8,19.6-44.7,19.6c-21.7,0-44.2-9.8-45.4-18.2
				c0,0-1.6,26.2,2.4,40.6c4,14.4,24.5,34.5,32.7,49.7c7.3,13.4,4.5,44.5-2.2,53.4c-4.6,6-11.2,11.2-19.9,14.5
				c16,6.6,24.2,7.5,32.4,7.4c8.3,0,19.1-1.3,32.4-7.6c-8.7-3.2-15.4-8.4-20-14.4c-6.8-8.8-9.8-39.9-2.6-53.3
				C587,148,607.3,127.7,611.2,113.3z"/>
		</g>
	</g>
	<g class="st3">
		<path class="st5" d="M705.4,376c-53.9-14.4-31.1-41-23-55.9c-53.3,13.5-51.2-20.6-47-36.2c-38.9,38.9-65.8,13.8-73.3,0
			c-14.1,45.6-54.5,35.9-61,26.6c16.5,56.5-40.7,57.7-40.7,57.7c27.1,27.1,6.6,39.2-9,45.8c39.2,19.1,20.6,50.9,10.8,60.7
			c67.9,0,58.9,33.8,55.9,50.3c58.3-38.9,69.4-2.4,75.4,12.3c19.1-62.8,56.8-47,66.7-41.6c-6.3-51.5,25.7-50.9,40.1-53.6
			C663.8,409.8,691,390.3,705.4,376z M575.2,490.2c-47,0-85.2-36.7-85.2-80.3s43.6-87.6,90.6-87.6c47,0,82,38.4,82,82
			S622.1,490.2,575.2,490.2z"/>
		<g>
			<ellipse class="st5" cx="540.8" cy="379" rx="7.2" ry="5.7"/>
			<ellipse class="st5" cx="616.2" cy="379" rx="7.2" ry="5.7"/>
			<path class="st5" d="M535.1,421.2c8.2,9.6,22.4,21.8,45.7,21.8c18.6,0,33.2-11.8,42.6-21.8H535.1z"/>
		</g>
	</g>
	<g class="st3">
		<path class="st5" d="M157,429.2c-3.1-9.9,11-59.2,50.3-41.6c0-14.4,2.7-55.6,40.4-66.1c37.7-10.5,64,21.5,60.7,42.5
			c13.2-8.2,32.7-10.2,26.3,18c22.4-10.2,63-11.5,61,44L157,429.2z"/>
		<path class="st5" d="M303,418.8c0,0-21.5,53.6-20.6,53.6s34.1-9.6,34.1-9.6s-22,56.4-20.3,54.8c1.6-1.6,59.8-69.1,59.8-69.1
			s-28.6,7-27.5,6c1-1,15.6-31.7,15.6-31.7L303,418.8z"/>
		<path class="st5" d="M263.5,486.7c0,0-26.9,46.7,3,46.7S263.5,486.7,263.5,486.7z"/>
		<path class="st5" d="M219.5,451.1c0,0-20.9,49.7,3.6,49.7S219.5,451.1,219.5,451.1z"/>
	</g>
</g>
<g id="x" class="st0">
	<g class="st3">
		<path class="st7" d="M353.6,160.1c0,47.8-38.8,83.6-86.6,83.6c-40.8,0-86.6-25.4-86.6-83.6c0-47.8,53.6-88.9,86.6-88.9
			C324.9,71.1,353.6,112.2,353.6,160.1z"/>
		<path class="st8" d="M393.4,85c-6-11.3-39.3-6.6-78.3,5.7c4.2,3.6,9,7.8,12.1,10.5c22.2-7.1,36.5-8.1,40.2-1.5
			c7.9,14.1-29.6,42.9-91.3,73.4c-61.7,30.5-109.3,42.3-114.1,29.5c-3.2-8.5,6-19.2,24.3-32v-17.8c-40,29-68.9,63.7-56.9,87.1
			c15.3,30.1,93.3-4.3,156.3-38.5C346.1,168.6,409.9,116.2,393.4,85z"/>
		<ellipse class="st8" cx="216.6" cy="165" rx="12.7" ry="9.9"/>
		<ellipse class="st8" cx="237.4" cy="126.6" rx="9.5" ry="6.9"/>
		<ellipse class="st8" cx="203.9" cy="139.3" rx="7.5" ry="4.9"/>
		<ellipse class="st8" cx="234.5" cy="104.7" rx="6.4" ry="4.9"/>
		<circle class="st8" cx="257.3" cy="91.9" r="4"/>
		<ellipse class="st8" cx="275.8" cy="222.6" rx="9.2" ry="4.6"/>
		<circle class="st8" cx="303.6" cy="212.5" r="3.9"/>
	</g>
	<g class="st3">
		<path class="st8" d="M613.7,71.7c0.4,10.7-24.7,19.6-45.1,19.6c-20.1,0-45.1-9.7-45.1-18.2c0-6.3,22.3-13.5,46.5-13.5
			S613.4,65.3,613.7,71.7z"/>
		<path class="st8" d="M604.1,83.1c-4.3,3.5-21.2,8.2-35.5,8.2c-14.6,0-30.1-5.9-34.7-8.1c2.1-3.2,15.8-8.9,34.7-8.9
			S600.9,80.6,604.1,83.1z"/>
		<path class="st7" d="M611.2,113.3c3.9-14.4,2.5-41.6,2.5-41.6c-1.4,11.1-22.8,19.6-44.7,19.6c-21.7,0-44.2-9.8-45.4-18.2
			c0,0-1.6,26.2,2.4,40.6c4,14.4,24.5,34.5,32.7,49.7c7.3,13.4,4.5,44.5-2.2,53.4c-4.6,6-11.2,11.2-19.9,14.5
			c16,6.6,24.2,7.5,32.4,7.4c8.3,0,19.1-1.3,32.4-7.6c-8.7-3.2-15.4-8.4-20-14.4c-6.8-8.8-9.8-39.9-2.6-53.3
			C587,148,607.3,127.7,611.2,113.3z"/>
		<path class="st7" d="M611.2,113.3c3.9-14.4,2.5-41.6,2.5-41.6c-1.4,11.1-22.8,19.6-44.7,19.6c-21.7,0-44.2-9.8-45.4-18.2
			c0,0-1.6,26.2,2.4,40.6c4,14.4,24.5,34.5,32.7,49.7c7.3,13.4,4.5,44.5-2.2,53.4c-4.6,6-11.2,11.2-19.9,14.5
			c16,6.6,24.2,7.5,32.4,7.4c8.3,0,19.1-1.3,32.4-7.6c-8.7-3.2-15.4-8.4-20-14.4c-6.8-8.8-9.8-39.9-2.6-53.3
			C587,148,607.3,127.7,611.2,113.3z"/>
	</g>
	<g class="st3">
		<path class="st8" d="M705.4,376c-53.9-14.4-31.1-41-23-55.9c-53.3,13.5-51.2-20.6-47-36.2c-38.9,38.9-65.8,13.8-73.3,0
			c-14.1,45.6-54.5,35.9-61,26.6c16.5,56.5-40.7,57.7-40.7,57.7c27.1,27.1,6.6,39.2-9,45.8c39.2,19.1,20.6,50.9,10.8,60.7
			c67.9,0,58.9,33.8,55.9,50.3c58.3-38.9,69.4-2.4,75.4,12.3c19.1-62.8,56.8-47,66.7-41.6c-6.3-51.5,25.7-50.9,40.1-53.6
			C663.8,409.8,691,390.3,705.4,376z M575.2,490.2c-47,0-85.2-36.7-85.2-80.3s43.6-87.6,90.6-87.6c47,0,82,38.4,82,82
			S622.1,490.2,575.2,490.2z"/>
		<g>
			<ellipse class="st8" cx="540.8" cy="379" rx="7.2" ry="5.7"/>
			<ellipse class="st8" cx="616.2" cy="379" rx="7.2" ry="5.7"/>
			<path class="st8" d="M535.1,421.2c8.2,9.6,22.4,21.8,45.7,21.8c18.6,0,33.2-11.8,42.6-21.8H535.1z"/>
		</g>
	</g>
	<g class="st3">
		<path class="st8" d="M157,429.2c-3.1-9.9,11-59.2,50.3-41.6c0-14.4,2.7-55.6,40.4-66.1c37.7-10.5,64,21.5,60.7,42.5
			c13.2-8.2,32.7-10.2,26.3,18c22.4-10.2,63-11.5,61,44L157,429.2z"/>
		<path class="st8" d="M303,418.8c0,0-21.5,53.6-20.6,53.6s34.1-9.6,34.1-9.6s-22,56.4-20.3,54.8c1.6-1.6,59.8-69.1,59.8-69.1
			s-28.6,7-27.5,6c1-1,15.6-31.7,15.6-31.7L303,418.8z"/>
		<path class="st8" d="M263.5,486.7c0,0-26.9,46.7,3,46.7S263.5,486.7,263.5,486.7z"/>
		<path class="st8" d="M219.5,451.1c0,0-20.9,49.7,3.6,49.7S219.5,451.1,219.5,451.1z"/>
	</g>
</g>
<g id="ziel">
	<g>
		<circle class="st9" cx="269.7" cy="159.2" r="79.4"/>
		<g>
			<path class="st10" d="M267,71.1c-33,0-86.6,41.1-86.6,88.9c0,58.2,45.8,83.6,86.6,83.6c47.8,0,86.6-35.8,86.6-83.6
				S324.9,71.1,267,71.1z M234.5,99.7c3.5,0,6.4,2.2,6.4,4.9s-2.8,4.9-6.4,4.9s-6.4-2.2-6.4-4.9S231,99.7,234.5,99.7z M196.3,139.3
				c0-2.7,3.4-4.9,7.5-4.9c4.1,0,7.5,2.2,7.5,4.9s-3.4,4.9-7.5,4.9C199.7,144.3,196.3,142.1,196.3,139.3z M216.6,174.9
				c-7,0-12.7-4.4-12.7-9.9s5.7-9.9,12.7-9.9s12.7,4.4,12.7,9.9S223.6,174.9,216.6,174.9z M237.4,133.6c-5.3,0-9.5-3.1-9.5-6.9
				s4.3-6.9,9.5-6.9c5.3,0,9.5,3.1,9.5,6.9S242.7,133.6,237.4,133.6z M257.3,96c-2.2,0-4-1.8-4-4s1.8-4,4-4c2.2,0,4,1.8,4,4
				S259.5,96,257.3,96z M275.8,227.2c-5.1,0-9.2-2.1-9.2-4.6s4.1-4.6,9.2-4.6s9.2,2.1,9.2,4.6S280.9,227.2,275.8,227.2z
				 M303.6,216.4c-2.2,0-3.9-1.7-3.9-3.9c0-2.2,1.7-3.9,3.9-3.9c2.2,0,3.9,1.7,3.9,3.9C307.5,214.6,305.7,216.4,303.6,216.4z"/>
			<path class="st11" d="M393.4,85c-6-11.3-32.1-8.8-71.1,3.5c4.9,3.7,8.3,7.5,11,10.7c22.2-7.1,30.4-6,34.1,0.5
				c7.9,14.1-29.6,42.9-91.3,73.4c-61.7,30.5-109.3,42.3-114.1,29.5c-3.2-8.5,1.4-15.7,19.3-28.4c-0.7-5.4-1.1-11.3-1-17.1
				c-39.6,29-63,59.4-51,82.8c15.3,30.1,93.3-4.3,156.3-38.5C346.1,168.6,409.9,116.2,393.4,85z"/>
		</g>
	</g>
	<g>
		<ellipse class="st12" cx="568.6" cy="82.8" rx="36.8" ry="21.9"/>
		<g>
			<path class="st10" d="M582.7,90c-3.4,0.6-7,1-10.5,1.2C575.7,91,579.2,90.6,582.7,90z"/>
			<path class="st13" d="M611.2,113.3c3.9-14.4,2.5-41.6,2.5-41.6c-0.2-6.4-19.5-12.2-43.7-12.2s-46.5,7.2-46.5,13.5
				c0,0-1.6,26.2,2.4,40.6c4,14.4,24.5,34.5,32.7,49.7c7.3,13.4,4.5,44.5-2.2,53.4c-4.6,6-11.2,11.2-19.9,14.5
				c16,6.6,24.2,7.5,32.4,7.4c8.3,0,19.1-1.3,32.4-7.6c-8.7-3.2-15.4-8.4-20-14.4c-6.8-8.8-9.8-39.9-2.6-53.3
				C587,148,607.3,127.7,611.2,113.3z M548.3,88.5c2.8,0.7,5.7,1.3,8.6,1.8C553.9,89.8,551.1,89.2,548.3,88.5z M570.6,91.2
				c0.4,0,0.8,0,1.2-0.1c-0.5,0-1,0-1.4,0.1c-0.5,0-0.9,0-1.4,0c-1.6,0-3.2-0.1-4.8-0.2c-12-0.9-23.9-5.1-29-7.3
				c-0.4-0.2-0.8-0.4-1.2-0.6c2.2-3.2,15.9-8.9,34.7-8.9c18.8,0,32.3,6.4,35.5,8.8c0.4-0.2,0.9-0.5,1.3-0.7c-0.5,0.3-1,0.6-1.6,1
				c0,0,0,0,0,0c-1.1,0.6-2.2,1.2-3.4,1.7c-0.2,0.1-0.4,0.2-0.6,0.3c-0.4,0.2-0.8,0.4-1.2,0.5c-0.3,0.1-0.6,0.2-0.8,0.3
				c-0.3,0.1-0.6,0.2-0.9,0.4c0,0-0.1,0-0.1,0C589.2,89.3,580,91.1,570.6,91.2z"/>
		</g>
	</g>
	<g>
		<path class="st11" d="M705.4,376c-53.9-14.4-31.1-41-23-55.9c-53.3,13.5-51.2-20.6-47-36.2c-38.9,38.9-65.8,13.8-73.3,0
			c-14.1,45.6-54.5,35.9-61,26.6c16.5,56.5-40.7,57.7-40.7,57.7c27.1,27.1,6.6,39.2-9,45.8c39.2,19.1,20.6,50.9,10.8,60.7
			c67.9,0,58.9,33.8,55.9,50.3c58.3-38.9,69.4-2.4,75.4,12.3c19.1-62.8,56.8-47,66.7-41.6c-6.3-51.5,25.7-50.9,40.1-53.6
			C663.8,409.8,691,390.3,705.4,376z M575.2,490.2c-47,0-85.2-36.7-85.2-80.3s43.6-87.6,90.6-87.6c47,0,82,38.4,82,82
			S622.1,490.2,575.2,490.2z"/>
		<g>
			<ellipse class="st11" cx="540.8" cy="379" rx="7.2" ry="5.7"/>
			<ellipse class="st11" cx="616.2" cy="379" rx="7.2" ry="5.7"/>
			<path class="st11" d="M535.1,421.2c8.2,9.6,22.4,21.8,45.7,21.8c18.6,0,33.2-11.8,42.6-21.8H535.1z"/>
		</g>
	</g>
	<g>
		<path class="st14" d="M353.6,160.1c0,47.8-38.8,83.6-86.6,83.6c-40.8,0-86.6-25.4-86.6-83.6c0-47.8,53.6-88.9,86.6-88.9
			C324.9,71.1,353.6,112.2,353.6,160.1z"/>
		<path class="st14" d="M393.4,85c-6-11.3-39.3-6.6-78.3,5.7c4.2,3.6,9,7.8,12.1,10.5c22.2-7.1,36.5-8.1,40.2-1.5
			c7.9,14.1-29.6,42.9-91.3,73.4c-61.7,30.5-109.3,42.3-114.1,29.5c-3.2-8.5,6-19.2,24.3-32v-17.8c-40,29-68.9,63.7-56.9,87.1
			c15.3,30.1,93.3-4.3,156.3-38.5C346.1,168.6,409.9,116.2,393.4,85z"/>
		<ellipse class="st14" cx="216.6" cy="165" rx="12.7" ry="9.9"/>
		<ellipse class="st14" cx="237.4" cy="126.6" rx="9.5" ry="6.9"/>
		<ellipse class="st14" cx="203.9" cy="139.3" rx="7.5" ry="4.9"/>
		<ellipse class="st14" cx="234.5" cy="104.7" rx="6.4" ry="4.9"/>
		<circle class="st14" cx="257.3" cy="91.9" r="4"/>
		<ellipse class="st14" cx="275.8" cy="222.6" rx="9.2" ry="4.6"/>
		<circle class="st14" cx="303.6" cy="212.5" r="3.9"/>
	</g>
	<g>
		<path class="st14" d="M705.4,376c-53.9-14.4-31.1-41-23-55.9c-53.3,13.5-51.2-20.6-47-36.2c-38.9,38.9-65.8,13.8-73.3,0
			c-14.1,45.6-54.5,35.9-61,26.6c16.5,56.5-40.7,57.7-40.7,57.7c27.1,27.1,6.6,39.2-9,45.8c39.2,19.1,20.6,50.9,10.8,60.7
			c67.9,0,58.9,33.8,55.9,50.3c58.3-38.9,69.4-2.4,75.4,12.3c19.1-62.8,56.8-47,66.7-41.6c-6.3-51.5,25.7-50.9,40.1-53.6
			C663.8,409.8,691,390.3,705.4,376z M575.2,490.2c-47,0-85.2-36.7-85.2-80.3s43.6-87.6,90.6-87.6c47,0,82,38.4,82,82
			S622.1,490.2,575.2,490.2z"/>
		<g>
			<ellipse class="st14" cx="540.8" cy="379" rx="7.2" ry="5.7"/>
			<ellipse class="st14" cx="616.2" cy="379" rx="7.2" ry="5.7"/>
			<path class="st14" d="M535.1,421.2c8.2,9.6,22.4,21.8,45.7,21.8c18.6,0,33.2-11.8,42.6-21.8H535.1z"/>
		</g>
	</g>
	<g>
		<path class="st15" d="M303,418.8c0,0-21.5,53.6-20.6,53.6s34.1-9.6,34.1-9.6s-22,56.4-20.3,54.8c1.6-1.6,59.8-69.1,59.8-69.1
			s-28.6,7-27.5,6c1-1,15.6-31.7,15.6-31.7L303,418.8z"/>
		<path class="st10" d="M157,429.2c-3.1-9.9,11-59.2,50.3-41.6c0-14.4,2.7-55.6,40.4-66.1c37.7-10.5,64,21.5,60.7,42.5
			c13.2-8.2,32.7-10.2,26.3,18c22.4-10.2,63-11.5,61,44L157,429.2z"/>
		<path class="st16" d="M263.5,486.7c0,0-26.9,46.7,3,46.7S263.5,486.7,263.5,486.7z"/>
		<path class="st16" d="M219.5,451.1c0,0-20.9,49.7,3.6,49.7S219.5,451.1,219.5,451.1z"/>
	</g>
</g>
</svg>
