<?xml version="1.0" encoding="utf-8"?>
<!-- Generator: Adobe Illustrator 24.2.3, SVG Export Plug-In . SVG Version: 6.00 Build 0)  -->
<svg version="1.1" xmlns="http://www.w3.org/2000/svg" xmlns:xlink="http://www.w3.org/1999/xlink" x="0px" y="0px"
	 viewBox="0 0 841.9 595.3" style="enable-background:new 0 0 841.9 595.3;" xml:space="preserve">
<style type="text/css">
	.st0{fill:#A7C837;}
	.st1{fill:#F39353;}
	.st2{fill:#179E38;}
	.st3{fill:none;stroke:#000000;stroke-width:3;stroke-miterlimit:10;}
	.st4{fill:#FAB636;}
	.st5{fill:#C22222;}
	.st6{fill:none;stroke:#000000;stroke-miterlimit:10;}
	.st7{fill:#6EBCDB;}
	.st8{display:none;fill:none;stroke:#E6007E;stroke-miterlimit:10;}
	.st9{fill:none;stroke:#E6007E;stroke-width:0.5;stroke-miterlimit:10;}
</style>
<g id="Ebene_1">
	<rect x="400.7" y="36.2" class="st0" width="59.9" height="59.9"/>
	<circle class="st1" cx="91.2" cy="65.7" r="24.4"/>
	<circle class="st2" cx="364.2" cy="65.8" r="24.4"/>
	<circle class="st3" cx="364.2" cy="65.8" r="14.2"/>
	<path class="st2" d="M430.7,41.7c-13.5,0-24.4,10.9-24.4,24.4s10.9,24.4,24.4,24.4S455,79.6,455,66.1S444.1,41.7,430.7,41.7z
		 M430.7,80.3c-7.8,0-14.2-6.4-14.2-14.2s6.4-14.2,14.2-14.2s14.2,6.4,14.2,14.2S438.5,80.3,430.7,80.3z"/>
	<circle class="st4" cx="229.9" cy="65.7" r="24.4"/>
	<circle class="st3" cx="246.1" cy="65.7" r="24.4"/>
	<path class="st4" d="M298.7,65.7c0-10.6,6.8-19.7,16.3-23c-2.5-0.9-5.3-1.4-8.1-1.4c-13.5,0-24.4,10.9-24.4,24.4
		s10.9,24.4,24.4,24.4c2.8,0,5.6-0.5,8.1-1.4C305.5,85.3,298.7,76.3,298.7,65.7z"/>
	<rect x="91.6" y="28.6" class="st3" width="48.7" height="82.6"/>
	<path class="st1" d="M183.4,41.3c-0.1,0-0.2,0-0.4,0c-13.5,0-24.4,10.9-24.4,24.4s10.9,24.4,24.4,24.4c0.1,0,0.2,0,0.4,0V41.3z"/>
	<circle class="st3" cx="112.4" cy="190.5" r="17.7"/>
	<circle class="st3" cx="139.2" cy="190.5" r="17.7"/>
	
		<rect x="109.9" y="190.3" transform="matrix(0.7071 -0.7071 0.7071 0.7071 -108.8536 149.125)" class="st3" width="31.4" height="31.4"/>
	<path class="st5" d="M223,190.5c0-9.8-7.9-17.7-17.7-17.7c-5.4,0-10.1,2.4-13.4,6.2c-3.2-3.8-8-6.2-13.4-6.2
		c-9.8,0-17.7,7.9-17.7,17.7c0,6.6,23.6,30.1,31.3,37.6C192.1,228.1,223,197.1,223,190.5z"/>
</g>
<g id="zeichnen">
	<path class="st6" d="M267.5,179.7c11.8-13.1,30.9-4.1,30.9,12c0,5.9-30.7,37.2-30.7,37.2s-31.3-29.9-31.3-37.2
		C236.4,176.3,255,166.3,267.5,179.7z"/>
	<path class="st7" d="M82.2,374.5c-7.7-4.3-8.8-20.1,8.3-20.7c3-14.6,8.4-18.2,28.8-12.2c3.2-14.7,10.6-20.4,30-9.3
		c11.6-24.3,35.9-20.8,25.9,16.1c16.3-17.5,31.3,7,18.4,19.1L82.2,374.5z"/>
	<path class="st1" d="M272.8,498.8c0,0,8.9-4.5,12.5-14.7c3.2-9.3-3.4-24.9,1.8-36c6.3-13.4,18.5-9.5,22-28.3
		c5.7,14.9-1.5,20.4-4.6,26.8s-6,11.7-4.1,20.8c5.7-14.4,7.8-21.1,13.5-25c5.9-4,27.8-11.7,36.2-20.7c9.7-10.4-4.7-25.3-4.7-35.5
		c0-10.2,7.4-16.6,16.1-17.6c-7.7,9.3-4.7,14.2,1.3,17.5c6.2,3.4,11.7-0.7,15.1-7.5c3.3-6.5-0.6-29.5,9.1-40.8
		c8.7-10.2,41.2-7,43.8-30.2c3.1,26.4-19.9,33.6-30,45c-7.9,8.9-8.1,16.3-2.1,19.7s14.6-7.9,14.6-18.9c7.6,11.3,10.1,36.3-15.3,43.9
		c-22.6,6.7-32.9,24.4-23.3,31.4c12,8.8,17.7-16.7,28.2-21c6.6-2.7,20.9,0.5,17.5,17.1c-3.2-7.6-5.7-9.8-12.5-6.4
		c-11,5.5-8.8,38.2-19.3,48.8c-9,9-30.2,5.5-33.7,14.3c-2.6,6.5,5.6,14.8,12.4,17.4H272.8z"/>
	<path class="st8" d="M320.5,209.6c0-13.4,10.2-23.5,23.5-23.5s23.5,12.2,23.5,22.9c0,13.3-9.6,24.2-23.5,24.2
		S320.5,221.9,320.5,209.6z"/>
	<path class="st8" d="M320.5,209.6c-0.2-13.9,12.5-23.5,23.5-23.5c13.7,0,23.5,10.7,23.5,23.5c0,10.8-8.6,23.3-23.5,23.5
		C330.5,233.4,320.7,222.1,320.5,209.6z"/>
	<circle class="st9" cx="344.1" cy="190.6" r="23.5"/>
	<path class="st4" d="M554.8,188.7c0-30.3,61.6-47.9,61.6-53.4c0-5.6-121.1,5.5-144.4,31.7c-18.2,20.5-14.1,85.6-14.1,85.6h190.8
		C648.8,252.6,554.8,213.4,554.8,188.7z M515.4,229.6c-12.4,0-22.4-10-22.4-22.4c0-12.4,10-22.4,22.4-22.4c12.4,0,22.4,10,22.4,22.4
		C537.8,219.6,527.8,229.6,515.4,229.6z"/>
</g>
</svg>
