<?xml version="1.0" encoding="utf-8"?>
<!-- Generator: Adobe Illustrator 24.2.3, SVG Export Plug-In . SVG Version: 6.00 Build 0)  -->
<svg version="1.1" xmlns="http://www.w3.org/2000/svg" xmlns:xlink="http://www.w3.org/1999/xlink" x="0px" y="0px"
	 viewBox="0 0 841.9 595.3" style="enable-background:new 0 0 841.9 595.3;" xml:space="preserve">
<style type="text/css">
	._x0030__x002C_5_x0020_Kontur{fill:none;stroke:#E8317D;stroke-width:0.5;}
	.st0{display:none;}
	.st1{display:inline;opacity:0.2;}
	.st2{opacity:0.2;}
	.st3{display:inline;fill:none;stroke:#E8317D;stroke-width:0.5;}
	.st4{display:inline;}
	.st5{fill:none;stroke:#E8317D;stroke-width:0.5;}
	.st6{display:inline;fill:none;stroke:#000000;stroke-width:2;}
	.st7{fill:none;stroke:#000000;stroke-width:2;}
	.st8{fill:#859132;}
	.st9{fill:#7DA88C;}
</style>
<g id="scan" class="st0">
	<g id="FK1.tiff_1_" class="st1">
		<g>
			<defs>
				<rect id="SVGID_1_" x="0" y="121.7" width="368.2" height="351.9"/>
			</defs>
			<clipPath id="SVGID_2_">
				<use xlink:href="#SVGID_1_"  style="overflow:visible;"/>
			</clipPath>
			<g style="clip-path:url(#SVGID_2_);">
				
					<image style="overflow:visible;" width="2207" height="2109" id="Background_6_" xlink:href="DA88DB0.jpg"  transform="matrix(0.1668 0 0 0.1668 0 121.7107)">
				</image>
			</g>
			<g style="clip-path:url(#SVGID_2_);">
				
					<image style="overflow:visible;" width="2207" height="2109" id="Background_copy_6_" xlink:href="DA88DB0.png"  transform="matrix(0.1668 0 0 0.1668 0 121.7107)">
				</image>
			</g>
		</g>
		<g>
			<defs>
				<rect id="SVGID_3_" x="0" y="121.7" width="368.2" height="351.9"/>
			</defs>
			<clipPath id="SVGID_4_">
				<use xlink:href="#SVGID_3_"  style="overflow:visible;"/>
			</clipPath>
			<g style="clip-path:url(#SVGID_4_);">
				
					<image style="overflow:visible;" width="2207" height="2109" id="Background_5_" xlink:href="DA88DB7.jpg"  transform="matrix(0.1668 0 0 0.1668 0 121.7107)">
				</image>
			</g>
			<g style="clip-path:url(#SVGID_4_);">
				
					<image style="overflow:visible;" width="2207" height="2109" id="Background_copy_5_" xlink:href="DA88DB1.png"  transform="matrix(0.1668 0 0 0.1668 0 121.7107)">
				</image>
			</g>
		</g>
	</g>
	<g id="FK2.tiff_1_" class="st1">
		<defs>
			<rect id="SVGID_5_" x="500.9" y="149.3" class="st2" width="327" height="296.6"/>
		</defs>
		<clipPath id="SVGID_6_">
			<use xlink:href="#SVGID_5_"  style="overflow:visible;"/>
		</clipPath>
		<g style="clip-path:url(#SVGID_6_);">
			
				<image style="overflow:visible;" width="1680" height="1524" id="FK2_1_" xlink:href="DA88DB3.jpg"  transform="matrix(0.1946 0 0 0.1946 500.9368 149.3417)">
			</image>
		</g>
	</g>
</g>
<g id="zeichnen" class="st0">
	<path class="st3" d="M260.6,334c27.9,32.8,51.3,63.5,68.7,87.7c5.9-21.9,0.6-71.9-24.8-122.9c-5.7,12.1-12.1,26.3-17.4,45.9
		c-0.7-16.2-0.5-30.6,7.2-54.3c0.7-2.2,1.5-4.4,2.2-6.5c-10.4-18-23.4-35.9-39.5-52.3c-5.4,12.2-9.2,28.7-13.9,47.7
		c-2.3-16.8-2.9-39.3,1.8-57.8c0.1-0.4,0.2-0.9,0.3-1.3c-16.8-14.9-35.5-26.4-54.8-35.3c-0.1,0.4-0.2,0.8-0.2,1.2
		c-2.7,13.7-1.8,32.2-1,53.9c-6.8-15.5-13.6-37-14.1-56c-0.1-1.9-0.1-3.8-0.2-5.6c-22.8-8.8-45.6-14.3-66.2-17.7
		c2.7,11.3,7.2,24.2,14,38.8c-9.8-10.7-21-25.6-28.2-40.9c-36.5-4.6-62.8-2.8-62.8-2.8c-1.3,1.3-2.8,35.1,6.5,78.2
		c22.4-3.2,40.5-0.6,50,0.2c-13.4,2.2-31.3,9.6-46.2,15.7c5.8,21.7,14.3,44.8,26.8,66.9c31.1-14.7,51.8-15.8,75.8-17.6
		c-18.5,5.2-41.4,18.9-66.3,32.9c8.5,12.6,18.5,24.6,30.2,35.5c7.6,7,15.5,13.4,23.6,19.2c25.4-21.8,49.4-30.5,66-38.6
		c-16.3,7.9-33.3,27.4-52,47.9c20.8,12.8,42.5,21.9,63.4,28.3c16.2-17.8,32.6-26.3,44.8-34.3c-9.9,8.3-18.7,22.6-27.7,38.9
		c38,9.2,71.2,9.4,87.8,6C271,371,182.9,260.2,114.8,222C114.8,222,196.5,258.6,260.6,334z"/>
	<g class="st4">
		<path class="_x0030__x002C_5_x0020_Kontur" d="M565.2,341.8c0,0-11-5.6-25.9-1.5c-15,4.2-21.7,13.4-21.7,13.4s11.3,4,26.2-0.2
			S565.2,341.8,565.2,341.8z"/>
		<path class="_x0030__x002C_5_x0020_Kontur" d="M592.4,279.8c0,0-3.8-9.7-17.3-17.3c-13.5-7.6-24.2-7.4-24.2-7.4
			s4.6,10.5,18.1,18.1S592.4,279.8,592.4,279.8z"/>
		<path class="_x0030__x002C_5_x0020_Kontur" d="M711.2,372.3c0,0,0.9,24.9,9.9,37.7c8.9,12.7,27.2,16.2,27.2,16.2s-2.1-18-11-30.7
			C728.4,382.7,711.2,372.3,711.2,372.3z"/>
		<path class="_x0030__x002C_5_x0020_Kontur" d="M779.5,166c0,0-14.2,3.6-20.4,14c-5.9,9.9-8,27.4-8,27.4s13-4.4,20.8-16.6
			C778.9,179.8,779.5,166,779.5,166z"/>
		<path class="_x0030__x002C_5_x0020_Kontur" d="M769.8,210.9c-13.2,12.2-21.2,30.7-24.2,38.6c13.9-15.9,42.4-38.3,56.3-41.7
			c-15.3,6.5-36.2,29.6-49,44.5c8.6-1.5,22.2-5.2,34.1-14.2c19.7-15,26.5-38.7,26.5-38.7S789.4,192.8,769.8,210.9z"/>
		<path class="_x0030__x002C_5_x0020_Kontur" d="M543.7,395.3c9.8-16.1,34.7-35.1,51.3-46.2c-8.3,0.4-28.9,3.3-46.1,21.6
			c-21.3,22.7-22.9,45.3-22.9,45.3s25.5-1.7,49.3-22.7c13.5-11.9,19.3-26.6,21.8-35.6C584.8,363.6,562.8,375.4,543.7,395.3z"/>
		<path class="st5" d="M631.6,355.5"/>
		<path class="st5" d="M732.8,346"/>
		<path class="st5" d="M733.9,291.8"/>
		<path class="st5" d="M703.5,259.5"/>
		<path class="st5" d="M659.6,230.9"/>
		<path class="st5" d="M611.7,261.7"/>
		<path class="st5" d="M709.1,312.5c32.1,0,44.4,2.8,79.9-32.6c-11.6-7.8-49.7-24.3-81.3,0c17.6-17.6,33-32.4,33-67.7
			c-14.4,2.8-50.3,16.1-57.1,51.6c0-31.1,3.9-37.9-30.2-72c-10.2,20-25.6,40.9-10.2,78.1c-11.6-18.1-18.1-28.8-62.3-34.4
			c8.8,26.5,16.3,44.6,46.5,56.5c-26,0-58.7,4.9-76.5,29.5c16.6,13,45,31.1,80.7,2.3c0,0-32.1,26.5-30.2,67.8
			c23.7-8.4,47.8-23.3,53.9-47.4c-3.3,21.8,2.2,56.2,22.2,69.7c11.2-11.2,26.5-38.6,20-72.5c10.2,13.9,37.2,39.2,74.8,31
			C763,352.4,741.2,318.8,709.1,312.5z M674,313l3.4,56.8l-13-53.4l-32.9,36.3l28.1-43.8l-60.9,6.2l55.4-14.7l-38.7-38.7l44.2,30.1
			v-61l10.3,61l33.6-32.3l-24,36.8l50.2-4.5l-48.9,14.4l44.5,35.6L674,313z"/>
	</g>
</g>
<g id="x" class="st0">
	<path class="st6" d="M260.6,334c27.9,32.8,51.3,63.5,68.7,87.7c5.9-21.9,0.6-71.9-24.8-122.9c-5.7,12.1-12.1,26.3-17.4,45.9
		c-0.7-16.2-0.5-30.6,7.2-54.3c0.7-2.2,1.5-4.4,2.2-6.5c-10.4-18-23.4-35.9-39.5-52.3c-5.4,12.2-9.2,28.7-13.9,47.7
		c-2.3-16.8-2.9-39.3,1.8-57.8c0.1-0.4,0.2-0.9,0.3-1.3c-16.8-14.9-35.5-26.4-54.8-35.3c-0.1,0.4-0.2,0.8-0.2,1.2
		c-2.7,13.7-1.8,32.2-1,53.9c-6.8-15.5-13.6-37-14.1-56c-0.1-1.9-0.1-3.8-0.2-5.6c-22.8-8.8-45.6-14.3-66.2-17.7
		c2.7,11.3,7.2,24.2,14,38.8c-9.8-10.7-21-25.6-28.2-40.9c-36.5-4.6-62.8-2.8-62.8-2.8c-1.3,1.3-2.8,35.1,6.5,78.2
		c22.4-3.2,40.5-0.6,50,0.2c-13.4,2.2-31.3,9.6-46.2,15.7c5.8,21.7,14.3,44.8,26.8,66.9c31.1-14.7,51.8-15.8,75.8-17.6
		c-18.5,5.2-41.4,18.9-66.3,32.9c8.5,12.6,18.5,24.6,30.2,35.5c7.6,7,15.5,13.4,23.6,19.2c25.4-21.8,49.4-30.5,66-38.6
		c-16.3,7.9-33.3,27.4-52,47.9c20.8,12.8,42.5,21.9,63.4,28.3c16.2-17.8,32.6-26.3,44.8-34.3c-9.9,8.3-18.7,22.6-27.7,38.9
		c38,9.2,71.2,9.4,87.8,6C271,371,182.9,260.2,114.8,222C114.8,222,196.5,258.6,260.6,334z"/>
	<g class="st4">
		<path class="st7" d="M565.2,341.8c0,0-11-5.6-25.9-1.5c-15,4.2-21.7,13.4-21.7,13.4s11.3,4,26.2-0.2S565.2,341.8,565.2,341.8z"/>
		<path class="st7" d="M592.4,279.8c0,0-3.8-9.7-17.3-17.3c-13.5-7.6-24.2-7.4-24.2-7.4s4.6,10.5,18.1,18.1S592.4,279.8,592.4,279.8
			z"/>
		<path class="st7" d="M711.2,372.3c0,0,0.9,24.9,9.9,37.7c8.9,12.7,27.2,16.2,27.2,16.2s-2.1-18-11-30.7
			C728.4,382.7,711.2,372.3,711.2,372.3z"/>
		<path class="st7" d="M779.5,166c0,0-14.2,3.6-20.4,14c-5.9,9.9-8,27.4-8,27.4s13-4.4,20.8-16.6C778.9,179.8,779.5,166,779.5,166z"
			/>
		<path class="st7" d="M769.8,210.9c-13.2,12.2-21.2,30.7-24.2,38.6c13.9-15.9,42.4-38.3,56.3-41.7c-15.3,6.5-36.2,29.6-49,44.5
			c8.6-1.5,22.2-5.2,34.1-14.2c19.7-15,26.5-38.7,26.5-38.7S789.4,192.8,769.8,210.9z"/>
		<path class="st7" d="M543.7,395.3c9.8-16.1,34.7-35.1,51.3-46.2c-8.3,0.4-28.9,3.3-46.1,21.6c-21.3,22.7-22.9,45.3-22.9,45.3
			s25.5-1.7,49.3-22.7c13.5-11.9,19.3-26.6,21.8-35.6C584.8,363.6,562.8,375.4,543.7,395.3z"/>
		<path class="st7" d="M631.6,355.5"/>
		<path class="st7" d="M732.8,346"/>
		<path class="st7" d="M733.9,291.8"/>
		<path class="st7" d="M703.5,259.5"/>
		<path class="st7" d="M659.6,230.9"/>
		<path class="st7" d="M611.7,261.7"/>
		<path class="st7" d="M709.1,312.5c32.1,0,44.4,2.8,79.9-32.6c-11.6-7.8-49.7-24.3-81.3,0c17.6-17.6,33-32.4,33-67.7
			c-14.4,2.8-50.3,16.1-57.1,51.6c0-31.1,3.9-37.9-30.2-72c-10.2,20-25.6,40.9-10.2,78.1c-11.6-18.1-18.1-28.8-62.3-34.4
			c8.8,26.5,16.3,44.6,46.5,56.5c-26,0-58.7,4.9-76.5,29.5c16.6,13,45,31.1,80.7,2.3c0,0-32.1,26.5-30.2,67.8
			c23.7-8.4,47.8-23.3,53.9-47.4c-3.3,21.8,2.2,56.2,22.2,69.7c11.2-11.2,26.5-38.6,20-72.5c10.2,13.9,37.2,39.2,74.8,31
			C763,352.4,741.2,318.8,709.1,312.5z M674,313l3.4,56.8l-13-53.4l-32.9,36.3l28.1-43.8l-60.9,6.2l55.4-14.7l-38.7-38.7l44.2,30.1
			v-61l10.3,61l33.6-32.3l-24,36.8l50.2-4.5l-48.9,14.4l44.5,35.6L674,313z"/>
	</g>
</g>
<g id="ziel">
	<path class="st8" d="M260.6,334c27.9,32.8,51.3,63.5,68.7,87.7c5.9-21.9,0.6-71.9-24.8-122.9c-5.7,12.1-12.1,26.3-17.4,45.9
		c-0.7-16.2-0.5-30.6,7.2-54.3c0.7-2.2,1.5-4.4,2.2-6.5c-10.4-18-23.4-35.9-39.5-52.3c-5.4,12.2-9.2,28.7-13.9,47.7
		c-2.3-16.8-2.9-39.3,1.8-57.8c0.1-0.4,0.2-0.9,0.3-1.3c-16.8-14.9-35.5-26.4-54.8-35.3c-0.1,0.4-0.2,0.8-0.2,1.2
		c-2.7,13.7-1.8,32.2-1,53.9c-6.8-15.5-13.6-37-14.1-56c-0.1-1.9-0.1-3.8-0.2-5.6c-22.8-8.8-45.6-14.3-66.2-17.7
		c2.7,11.3,7.2,24.2,14,38.8c-9.8-10.7-21-25.6-28.2-40.9c-36.5-4.6-62.8-2.8-62.8-2.8c-1.3,1.3-2.8,35.1,6.5,78.2
		c22.4-3.2,40.5-0.6,50,0.2c-13.4,2.2-31.3,9.6-46.2,15.7c5.8,21.7,14.3,44.8,26.8,66.9c31.1-14.7,51.8-15.8,75.8-17.6
		c-18.5,5.2-41.4,18.9-66.3,32.9c8.5,12.6,18.5,24.6,30.2,35.5c7.6,7,15.5,13.4,23.6,19.2c25.4-21.8,49.4-30.5,66-38.6
		c-16.3,7.9-33.3,27.4-52,47.9c20.8,12.8,42.5,21.9,63.4,28.3c16.2-17.8,32.6-26.3,44.8-34.3c-9.9,8.3-18.7,22.6-27.7,38.9
		c38,9.2,71.2,9.4,87.8,6C271,371,182.9,260.2,114.8,222C114.8,222,196.5,258.6,260.6,334z"/>
	<g>
		<path class="st9" d="M565.2,341.8c0,0-11-5.6-25.9-1.5c-15,4.2-21.7,13.4-21.7,13.4s11.3,4,26.2-0.2S565.2,341.8,565.2,341.8z"/>
		<path class="st9" d="M592.4,279.8c0,0-3.8-9.7-17.3-17.3c-13.5-7.6-24.2-7.4-24.2-7.4s4.6,10.5,18.1,18.1S592.4,279.8,592.4,279.8
			z"/>
		<path class="st9" d="M711.2,372.3c0,0,0.9,24.9,9.9,37.7c8.9,12.7,27.2,16.2,27.2,16.2s-2.1-18-11-30.7
			C728.4,382.7,711.2,372.3,711.2,372.3z"/>
		<path class="st9" d="M779.5,166c0,0-14.2,3.6-20.4,14c-5.9,9.9-8,27.4-8,27.4s13-4.4,20.8-16.6C778.9,179.8,779.5,166,779.5,166z"
			/>
		<path class="st9" d="M769.8,210.9c-13.2,12.2-21.2,30.7-24.2,38.6c13.9-15.9,42.4-38.3,56.3-41.7c-15.3,6.5-36.2,29.6-49,44.5
			c8.6-1.5,22.2-5.2,34.1-14.2c19.7-15,26.5-38.7,26.5-38.7S789.4,192.8,769.8,210.9z"/>
		<path class="st9" d="M543.7,395.3c9.8-16.1,34.7-35.1,51.3-46.2c-8.3,0.4-28.9,3.3-46.1,21.6c-21.3,22.7-22.9,45.3-22.9,45.3
			s25.5-1.7,49.3-22.7c13.5-11.9,19.3-26.6,21.8-35.6C584.8,363.6,562.8,375.4,543.7,395.3z"/>
		<path class="st9" d="M631.6,355.5"/>
		<path class="st9" d="M732.8,346"/>
		<path class="st9" d="M733.9,291.8"/>
		<path class="st9" d="M703.5,259.5"/>
		<path class="st9" d="M659.6,230.9"/>
		<path class="st9" d="M611.7,261.7"/>
		<path class="st9" d="M709.1,312.5c32.1,0,44.4,2.8,79.9-32.6c-11.6-7.8-49.7-24.3-81.3,0c17.6-17.6,33-32.4,33-67.7
			c-14.4,2.8-50.3,16.1-57.1,51.6c0-31.1,3.9-37.9-30.2-72c-10.2,20-25.6,40.9-10.2,78.1c-11.6-18.1-18.1-28.8-62.3-34.4
			c8.8,26.5,16.3,44.6,46.5,56.5c-26,0-58.7,4.9-76.5,29.5c16.6,13,45,31.1,80.7,2.3c0,0-32.1,26.5-30.2,67.8
			c23.7-8.4,47.8-23.3,53.9-47.4c-3.3,21.8,2.2,56.2,22.2,69.7c11.2-11.2,26.5-38.6,20-72.5c10.2,13.9,37.2,39.2,74.8,31
			C763,352.4,741.2,318.8,709.1,312.5z M674,313l3.4,56.8l-13-53.4l-32.9,36.3l28.1-43.8l-60.9,6.2l55.4-14.7l-38.7-38.7l44.2,30.1
			v-61l10.3,61l33.6-32.3l-24,36.8l50.2-4.5l-48.9,14.4l44.5,35.6L674,313z"/>
	</g>
</g>
</svg>
