<?xml version="1.0" encoding="utf-8"?>
<!-- Generator: Adobe Illustrator 24.2.3, SVG Export Plug-In . SVG Version: 6.00 Build 0)  -->
<svg version="1.1" xmlns="http://www.w3.org/2000/svg" xmlns:xlink="http://www.w3.org/1999/xlink" x="0px" y="0px"
	 viewBox="0 0 841.9 595.3" style="enable-background:new 0 0 841.9 595.3;" xml:space="preserve">
<style type="text/css">
	._x0030__x002C_5_x0020_Kontur{fill:none;stroke:#E8317D;stroke-width:0.5;}
	.st0{display:none;}
	.st1{opacity:0.2;}
	.st2{display:inline;}
	.st3{display:inline;fill:none;stroke:#E8317D;stroke-width:0.5;}
	.st4{display:inline;fill:none;stroke:#000000;stroke-width:2;}
	.st5{fill:#931004;}
	.st6{fill:#9C9686;}
</style>
<g id="scan" class="st0">
	<g id="PFP1.tif_1_" class="st1">
		<defs>
			<rect id="SVGID_1_" x="6.8" y="50" class="st1" width="377.4" height="495.2"/>
		</defs>
		<clipPath id="SVGID_2_" class="st2">
			<use xlink:href="#SVGID_1_"  style="overflow:visible;"/>
		</clipPath>
		<g style="display:inline;clip-path:url(#SVGID_2_);">
			
				<image style="overflow:visible;" width="1146" height="1504" id="PFP1_1_" xlink:href="98694893.jpg"  transform="matrix(0.3293 0 0 0.3293 6.842 50.0187)">
			</image>
		</g>
	</g>
	<g id="PFP2.tif" class="st1">
		<defs>
			<rect id="SVGID_3_" x="422.5" y="59.5" class="st1" width="405.5" height="476.2"/>
		</defs>
		<clipPath id="SVGID_4_" class="st2">
			<use xlink:href="#SVGID_3_"  style="overflow:visible;"/>
		</clipPath>
		<g style="display:inline;clip-path:url(#SVGID_4_);">
			
				<image style="overflow:visible;" width="1492" height="1752" id="PFP2_1_" xlink:href="98694891.jpg"  transform="matrix(0.2718 0 0 0.2718 422.4825 59.5426)">
			</image>
		</g>
	</g>
</g>
<g id="zeichnen" class="st0">
	<path class="st3" d="M68.9,507.5c0,0-93.2-144.9,17.7-289.1c-14.3,42.9,15.3,120.1,2,161.2c35.4-44.9,22.3-162,95.9-212.9
		c-17,23.8-38.8,72.1-27.9,117c14.3-44.9,21.1-79.6,76.5-107.1s100.3-30.3,109.2-103.1c-2.7,40.8-12.6,90.1-42.9,120.4
		c18.4-8.2,47.3-19.4,55.8-36.7c-13.1,37.9-54.4,68.3-104.8,100.7c-26.1,19-26.1,31.5-44.9,62.6c22.4-27.9,39.5-40.8,63.9-50.3
		c24.5-9.5,59.9-15,72.8-42.9c-8.8,27.2-18,44.6-34.7,57.1C291,297,226,315.7,208.4,388.5c24.1-24.1,53.7-36.7,70.7-39.5
		c17-2.7,49-7.5,63.3-37.4c-14.2,46.6-29.9,91.8-81,123.8c-88.4,49.7-145.3,10.9-177.6,29.8C68.4,474.2,68.9,507.5,68.9,507.5z"/>
	<path class="st3" d="M445.1,522.5h208.8c0,0-27.2-12.4-27.2-35.1c0-28.7,89.9-9.9,93.9-67.6c2.6-37.4,11-79.3,35.3-81.6
		c19.6-1.9,18.8,22.7,18.8,22.7s13.7-48.5-24.6-46.5c-37.9,0-48.6,70.2-77.4,48.8c-14.8-11-5.8-32.4,5.5-45.3
		c16.5-18.8,93-33.1,93-73.3c0-26.8-3.2-33.5-11.4-51.2c-2.2,25-14.9,50.8-31.7,42c-16.3-8.5-6.9-25.4-1.4-37.6
		c14.4-32,77.2-31.8,74.8-110.6c-6.7,62.7-81.6,40.8-104.4,75.9c-23.5,36.1,4.4,105.6-40.5,104.4c-36-1-29.3-33.3-15.6-39.5
		c-16.6,3.6-35.4,9.5-35.4,37.4c0,27.9,18.2,41.5,18.8,67.3c0.8,32-54.5,43.2-72.6,53.7c-24.5,14.3-41.7,34.2-47.6,66.7
		c-10.1-30.6,17-53.4,23.4-73c7.3-22.3,0.4-31.7-3-42.6c3,42.6-54.4,51-54.4,82.3C470.3,449.9,480.7,501.9,445.1,522.5z"/>
</g>
<g id="x" class="st0">
	<path class="st4" d="M445.1,522.5h208.8c0,0-27.2-12.4-27.2-35.1c0-28.7,89.9-9.9,93.9-67.6c2.6-37.4,11-79.3,35.3-81.6
		c19.6-1.9,18.8,22.7,18.8,22.7s13.7-48.5-24.6-46.5c-37.9,0-48.6,70.2-77.4,48.8c-14.8-11-5.8-32.4,5.5-45.3
		c16.5-18.8,93-33.1,93-73.3c0-26.8-3.2-33.5-11.4-51.2c-2.2,25-14.9,50.8-31.7,42c-16.3-8.5-6.9-25.4-1.4-37.6
		c14.4-32,77.2-31.8,74.8-110.6c-6.7,62.7-81.6,40.8-104.4,75.9c-23.5,36.1,4.4,105.6-40.5,104.4c-36-1-29.3-33.3-15.6-39.5
		c-16.6,3.6-35.4,9.5-35.4,37.4c0,27.9,18.2,41.5,18.8,67.3c0.8,32-54.5,43.2-72.6,53.7c-24.5,14.3-41.7,34.2-47.6,66.7
		c-10.1-30.6,17-53.4,23.4-73c7.3-22.3,0.4-31.7-3-42.6c3,42.6-54.4,51-54.4,82.3C470.3,449.9,480.7,501.9,445.1,522.5z"/>
	<path class="st4" d="M68.9,507.5c0,0-93.2-144.9,17.7-289.1c-14.3,42.9,15.3,120.1,2,161.2c35.4-44.9,22.3-162,95.9-212.9
		c-17,23.8-38.8,72.1-27.9,117c14.3-44.9,21.1-79.6,76.5-107.1s100.3-30.3,109.2-103.1c-2.7,40.8-12.6,90.1-42.9,120.4
		c18.4-8.2,47.3-19.4,55.8-36.7c-13.1,37.9-54.4,68.3-104.8,100.7c-26.1,19-26.1,31.5-44.9,62.6c22.4-27.9,39.5-40.8,63.9-50.3
		c24.5-9.5,59.9-15,72.8-42.9c-8.8,27.2-18,44.6-34.7,57.1C291,297,226,315.7,208.4,388.5c24.1-24.1,53.7-36.7,70.7-39.5
		c17-2.7,49-7.5,63.3-37.4c-14.2,46.6-29.9,91.8-81,123.8c-88.4,49.7-145.3,10.9-177.6,29.8C68.4,474.2,68.9,507.5,68.9,507.5z"/>
</g>
<g id="ziel">
	<path class="st5" d="M445.1,522.5h208.8c0,0-27.2-12.4-27.2-35.1c0-28.7,89.9-9.9,93.9-67.6c2.6-37.4,11-79.3,35.3-81.6
		c19.6-1.9,18.8,22.7,18.8,22.7s13.7-48.5-24.6-46.5c-37.9,0-48.6,70.2-77.4,48.8c-14.8-11-5.8-32.4,5.5-45.3
		c16.5-18.8,93-33.1,93-73.3c0-26.8-3.2-33.5-11.4-51.2c-2.2,25-14.9,50.8-31.7,42c-16.3-8.5-6.9-25.4-1.4-37.6
		c14.4-32,77.2-31.8,74.8-110.6c-6.7,62.7-81.6,40.8-104.4,75.9c-23.5,36.1,4.4,105.6-40.5,104.4c-36-1-29.3-33.3-15.6-39.5
		c-16.6,3.6-35.4,9.5-35.4,37.4c0,27.9,18.2,41.5,18.8,67.3c0.8,32-54.5,43.2-72.6,53.7c-24.5,14.3-41.7,34.2-47.6,66.7
		c-10.1-30.6,17-53.4,23.4-73c7.3-22.3,0.4-31.7-3-42.6c3,42.6-54.4,51-54.4,82.3C470.3,449.9,480.7,501.9,445.1,522.5z"/>
	<path class="st6" d="M68.9,507.5c0,0-93.2-144.9,17.7-289.1c-14.3,42.9,15.3,120.1,2,161.2c35.4-44.9,22.3-162,95.9-212.9
		c-17,23.8-38.8,72.1-27.9,117c14.3-44.9,21.1-79.6,76.5-107.1s100.3-30.3,109.2-103.1c-2.7,40.8-12.6,90.1-42.9,120.4
		c18.4-8.2,47.3-19.4,55.8-36.7c-13.1,37.9-54.4,68.3-104.8,100.7c-26.1,19-26.1,31.5-44.9,62.6c22.4-27.9,39.5-40.8,63.9-50.3
		c24.5-9.5,59.9-15,72.8-42.9c-8.8,27.2-18,44.6-34.7,57.1C291,297,226,315.7,208.4,388.5c24.1-24.1,53.7-36.7,70.7-39.5
		c17-2.7,49-7.5,63.3-37.4c-14.2,46.6-29.9,91.8-81,123.8c-88.4,49.7-145.3,10.9-177.6,29.8C68.4,474.2,68.9,507.5,68.9,507.5z"/>
</g>
</svg>
