<?xml version="1.0" encoding="utf-8"?>
<!-- Generator: Adobe Illustrator 24.2.3, SVG Export Plug-In . SVG Version: 6.00 Build 0)  -->
<svg version="1.1" xmlns="http://www.w3.org/2000/svg" xmlns:xlink="http://www.w3.org/1999/xlink" x="0px" y="0px"
	 viewBox="0 0 841.9 595.3" style="enable-background:new 0 0 841.9 595.3;" xml:space="preserve">
<style type="text/css">
	.st0{display:none;}
	.st1{display:inline;opacity:0.2;}
	.st2{opacity:0.2;}
	.st3{display:inline;}
	.st4{fill:none;stroke:#E8317D;stroke-width:0.5;}
	.st5{fill:none;stroke:#000000;stroke-width:2;}
	.st6{fill:#00434C;}
</style>
<g id="scan" class="st0">
	<g id="PPP.tif_1_" class="st1">
		<defs>
			<rect id="SVGID_1_" x="215" y="21.2" class="st2" width="411.9" height="552.8"/>
		</defs>
		<clipPath id="SVGID_2_">
			<use xlink:href="#SVGID_1_"  style="overflow:visible;"/>
		</clipPath>
		<g transform="matrix(1 0 0 1 0 0)" style="clip-path:url(#SVGID_2_);">
			
				<image style="overflow:visible;" width="1093" height="1467" id="PPP_1_" xlink:href="E5C358F9.jpg"  transform="matrix(0.3768 0 0 0.3768 215.0046 21.2293)">
			</image>
		</g>
	</g>
</g>
<g id="zeichnen" class="st0">
	<g class="st3">
		<path class="st4" d="M385.9,542.4c0,0-27.4-10.5-27.4-38.7c-10.6-5.6-18.3-22.5-10.6-50c-17.7,12.1-41.2,23.7-70.2-1.5
			c-29.9-25.8,1.8-98,1.8-123.7c0-28-14.8-53.9-42.4-61.6c15.8-4.6,48.8,9.3,58.7,27.6c-4.2-26.1-2.1-54.9,8.5-72.5
			c4.7,56.1,73.7,54.7,76.8,138.2c24.4-61.4-19.7-135.2-19.7-154.4c0-24.2,6.8-52.2,26.1-67.1c-2.8,18.3-6.3,55.1,22.2,55.1
			c28.7,0,27.6-34.2,27.6-42c0-7.7-22.9-50.2,13-96.7c-21,60.8,43.4,86.4,43.4,132.1c0,55-54.2,74.8-40.8,153.7
			c3.4-58.9,88.2-54.8,88.2-91.7c5.8,38.7-20.7,61.5-36.6,80.5c-8.7,10.4-13.1,35.9-0.4,48.6c12.7,12.7,34.7-1.2,46.2-12.7
			c9.2-9.2,22.3-31.1,22.3-48.8c8.3,22.7,12.2,54.5-4.7,83.3c9.9-6.3,23.9-16.9,23.9-24.6c-3.8,34.2,3.2,74.3-55,110.2
			c-54.2,33.4-113.8-10.8-125.2-25C409.6,480.1,374.6,522.6,385.9,542.4z"/>
		<path class="st4" d="M569.3,267.1c11.5-17.7-27.4-47-28.1-71c-0.7-23.3,17.4-45.5,32.5-51.3c-17.6,30.9,12.6,51.3,12.6,77.1
			C586.3,236.9,581.5,254.1,569.3,267.1z"/>
	</g>
</g>
<g id="x" class="st0">
	<g class="st3">
		<path class="st5" d="M385.9,542.4c0,0-27.4-10.5-27.4-38.7c-10.6-5.6-18.3-22.5-10.6-50c-17.7,12.1-41.2,23.7-70.2-1.5
			c-29.9-25.8,1.8-98,1.8-123.7c0-28-14.8-53.9-42.4-61.6c15.8-4.6,48.8,9.3,58.7,27.6c-4.2-26.1-2.1-54.9,8.5-72.5
			c4.7,56.1,73.7,54.7,76.8,138.2c24.4-61.4-19.7-135.2-19.7-154.4c0-24.2,6.8-52.2,26.1-67.1c-2.8,18.3-6.3,55.1,22.2,55.1
			c28.7,0,27.6-34.2,27.6-42c0-7.7-22.9-50.2,13-96.7c-21,60.8,43.4,86.4,43.4,132.1c0,55-54.2,74.8-40.8,153.7
			c3.4-58.9,88.2-54.8,88.2-91.7c5.8,38.7-20.7,61.5-36.6,80.5c-8.7,10.4-13.1,35.9-0.4,48.6c12.7,12.7,34.7-1.2,46.2-12.7
			c9.2-9.2,22.3-31.1,22.3-48.8c8.3,22.7,12.2,54.5-4.7,83.3c9.9-6.3,23.9-16.9,23.9-24.6c-3.8,34.2,3.2,74.3-55,110.2
			c-54.2,33.4-113.8-10.8-125.2-25C409.6,480.1,374.6,522.6,385.9,542.4z"/>
		<path class="st5" d="M569.3,267.1c11.5-17.7-27.4-47-28.1-71c-0.7-23.3,17.4-45.5,32.5-51.3c-17.6,30.9,12.6,51.3,12.6,77.1
			C586.3,236.9,581.5,254.1,569.3,267.1z"/>
	</g>
</g>
<g id="ziel">
	<g>
		<path class="st6" d="M385.9,542.4c0,0-27.4-10.5-27.4-38.7c-10.6-5.6-18.3-22.5-10.6-50c-17.7,12.1-41.2,23.7-70.2-1.5
			c-29.9-25.8,1.8-98,1.8-123.7c0-28-14.8-53.9-42.4-61.6c15.8-4.6,48.8,9.3,58.7,27.6c-4.2-26.1-2.1-54.9,8.5-72.5
			c4.7,56.1,73.7,54.7,76.8,138.2c24.4-61.4-19.7-135.2-19.7-154.4c0-24.2,6.8-52.2,26.1-67.1c-2.8,18.3-6.3,55.1,22.2,55.1
			c28.7,0,27.6-34.2,27.6-42c0-7.7-22.9-50.2,13-96.7c-21,60.8,43.4,86.4,43.4,132.1c0,55-54.2,74.8-40.8,153.7
			c3.4-58.9,88.2-54.8,88.2-91.7c5.8,38.7-20.7,61.5-36.6,80.5c-8.7,10.4-13.1,35.9-0.4,48.6c12.7,12.7,34.7-1.2,46.2-12.7
			c9.2-9.2,22.3-31.1,22.3-48.8c8.3,22.7,12.2,54.5-4.7,83.3c9.9-6.3,23.9-16.9,23.9-24.6c-3.8,34.2,3.2,74.3-55,110.2
			c-54.2,33.4-113.8-10.8-125.2-25C409.6,480.1,374.6,522.6,385.9,542.4z"/>
		<path class="st6" d="M569.3,267.1c11.5-17.7-27.4-47-28.1-71c-0.7-23.3,17.4-45.5,32.5-51.3c-17.6,30.9,12.6,51.3,12.6,77.1
			C586.3,236.9,581.5,254.1,569.3,267.1z"/>
	</g>
</g>
</svg>
