<?xml version="1.0" encoding="utf-8"?>
<!-- Generator: Adobe Illustrator 24.2.3, SVG Export Plug-In . SVG Version: 6.00 Build 0)  -->
<svg version="1.1" xmlns="http://www.w3.org/2000/svg" xmlns:xlink="http://www.w3.org/1999/xlink" x="0px" y="0px"
	 viewBox="0 0 841.9 595.3" style="enable-background:new 0 0 841.9 595.3;" xml:space="preserve">
<style type="text/css">
	.st0{display:none;}
	.st1{display:inline;opacity:0.2;}
	.st2{opacity:0.2;}
	.st3{display:inline;}
	.st4{fill:none;stroke:#E8317D;stroke-width:0.5;}
	.st5{fill:none;stroke:#000000;stroke-width:2;}
	.st6{fill:#00434C;}
</style>
<g id="scan" class="st0">
	<g id="SYMMETRIE.tif_1_" class="st1">
		<defs>
			<rect id="SVGID_1_" x="18.3" y="127.6" class="st2" width="391.8" height="355.8"/>
		</defs>
		<clipPath id="SVGID_2_">
			<use xlink:href="#SVGID_1_"  style="overflow:visible;"/>
		</clipPath>
		<g style="clip-path:url(#SVGID_2_);">
			
				<image style="overflow:visible;" width="1359" height="1234" id="SYMMETRIE_1_" xlink:href="C5FC24C8.jpg"  transform="matrix(0.2883 0 0 0.2883 18.3113 127.5698)">
			</image>
		</g>
	</g>
</g>
<g id="zeichnen" class="st0">
	<g class="st3">
		<path class="st4" d="M283,258.1c0,0-37.5-42.2-73.3-32.8c8.5-5.3,41.7-14.5,61.1-0.7c7.7-16.6,36.2-35.3,57.9-35.1
			C300.1,201.7,284.9,228.4,283,258.1z"/>
		<path class="st4" d="M385.1,365.1c-3.8,13.2-29.3,21.3-22.6-6.3c-12.1,19.9-40.9,37.1-65.2,41.5c31.5-12.9,60.6-54.7,65.2-85
			c-10.5,23-46.9,57.3-59.1,63.2c-11,5.4-58.7,12-69.9,20.4s-11.9,16-9.4,24c2.4,7.6,16.8,12.6,28.2,1.7
			c-8.3,17.2-30.9,33.9-49.8,9.8c-17.6-22.5,1.2-45.9,11.7-52.5c-12.4,1.5-69.2,27.1-39.2,65c-9.6-2.2-31.5-8.1-29.6-26.1
			c-7.5,4.4-28.2,4.2-16.4-20.2c13.7-28.2,44.3-37.2,59.4-40.3c16.7-3.5,78.6,6.1,106.4-13.3c-34.8,13.3-84.5,0.9-117.1,6.3
			c-32.1,5.3-68.7,41.5-79.1,31.1c-4.4-4.4-8-8.4,1.3-17.6c-12,1.6-30.1,0.5-28.1-19.3c17.1,2.1,29.7-0.4,51.9-7.7
			c-37.3,8.7-74.2-5.2-74.2-46.7c20.9,44.1,105.9,16.1,146.7,29.6c-24.3-16.1-55.3-14-74.6-15.7c-20.1-1.7-43.6-7.7-53.7-28.2
			c29.3,21.6,74.2-0.9,129.3,10.1c40.9,8.2,70.2,39.3,101.7,36.9c-36.2-9.8-96.5-60.3-156.1-54.4c15.7-4.9,34.5-16,48.1-6.6
			c-3.1-11.5-5.2-24.7,23.2-9.8c1.6-12.5,2-14,11-15.3c27-2.4,60.5,61.9,101.6,61.9c45.8,0,50-71.3,14.8-72.7
			c-16.2-0.6-17.9,4.4-20.6,12.2c30.9-3,24.4,45.3,4.5,45.3c-15,0-27.2-12.9-27.2-33.8c0.1-39,43.7-70.9,76.7-38
			c-3.7-17.4,1.9-29.3,10.1-40.8V365.1z"/>
	</g>
	<g class="st3">
		<path class="st4" d="M487.2,258.1c0,0,37.5-42.2,73.3-32.8c-8.5-5.3-41.7-14.5-61.1-0.7c-7.7-16.6-36.2-35.3-57.9-35.1
			C470.1,201.7,485.3,228.4,487.2,258.1z"/>
		<path class="st4" d="M385.1,365.1c3.8,13.2,29.3,21.3,22.6-6.3c12.1,19.9,40.9,37.1,65.2,41.5c-31.5-12.9-60.6-54.7-65.2-85
			c10.5,23,46.9,57.3,59.1,63.2c11,5.4,58.7,12,69.9,20.4c11.2,8.4,11.9,16,9.4,24c-2.4,7.6-16.8,12.6-28.2,1.7
			c8.3,17.2,30.9,33.9,49.8,9.8c17.6-22.5-1.2-45.9-11.7-52.5c12.4,1.5,69.2,27.1,39.2,65c9.6-2.2,31.5-8.1,29.6-26.1
			c7.5,4.4,28.2,4.2,16.4-20.2c-13.7-28.2-44.3-37.2-59.4-40.3c-16.7-3.5-78.6,6.1-106.4-13.3c34.8,13.3,84.5,0.9,117.1,6.3
			c32.1,5.3,68.7,41.5,79.1,31.1c4.4-4.4,8-8.4-1.3-17.6c12,1.6,30.1,0.5,28.1-19.3c-17.1,2.1-29.7-0.4-51.9-7.7
			c37.3,8.7,74.2-5.2,74.2-46.7c-20.9,44.1-105.9,16.1-146.7,29.6c24.3-16.1,55.3-14,74.6-15.7c20.1-1.7,43.6-7.7,53.7-28.2
			c-29.3,21.6-74.2-0.9-129.3,10.1c-40.9,8.2-70.2,39.3-101.7,36.9c36.2-9.8,96.5-60.3,156.1-54.4c-15.7-4.9-34.5-16-48.1-6.6
			c3.1-11.5,5.2-24.7-23.2-9.8c-1.6-12.5-2-14-11-15.3c-27-2.4-60.5,61.9-101.6,61.9c-45.8,0-50-71.3-14.8-72.7
			c16.2-0.6,17.9,4.4,20.6,12.2c-30.9-3-24.4,45.3-4.5,45.3c15,0,27.2-12.9,27.2-33.8c-0.1-39-43.7-70.9-76.7-38
			c3.7-17.4-1.9-29.3-10.1-40.8L385.1,365.1z"/>
	</g>
</g>
<g id="x" class="st0">
	<g class="st3">
		<path class="st5" d="M283,258.1c1.9-29.7,17.1-56.4,45.7-68.6c-21.7-0.1-50.2,18.6-57.9,35.1c-19.4-13.9-52.6-4.6-61.1,0.7
			C245.5,215.9,283,258.1,283,258.1z"/>
		<path class="st5" d="M487.2,258.1c0,0,37.5-42.2,73.3-32.8c-8.5-5.3-41.7-14.5-61.1-0.7c-7.7-16.6-36.2-35.3-57.9-35.1
			C470.1,201.7,485.3,228.4,487.2,258.1z"/>
		<path class="st5" d="M720.7,293c-20.9,44.1-105.9,16.1-146.7,29.6c24.3-16.1,55.3-14,74.6-15.7c20.1-1.7,43.6-7.7,53.7-28.2
			c-29.3,21.6-74.2-0.9-129.3,10.1c-40.9,8.2-70.2,39.3-101.7,36.9c36.2-9.8,96.5-60.3,156.1-54.4c-15.7-4.9-34.5-16-48.1-6.6
			c3.1-11.5,5.2-24.7-23.2-9.8c-1.6-12.5-2-14-11-15.3c-27-2.4-60.5,61.9-101.6,61.9c-45.8,0-50-71.3-14.8-72.7
			c16.2-0.6,17.9,4.4,20.6,12.2c-30.9-3-24.4,45.3-4.5,45.3c15,0,27.2-12.9,27.2-33.8c-0.1-39-43.7-70.9-76.7-38
			c3.7-17.4-1.9-29.3-10.1-40.8c-8.2,11.5-13.8,23.3-10.1,40.8c-32.9-32.9-76.6-1.1-76.7,38c0,20.9,12.2,33.8,27.2,33.8
			c19.9,0,26.4-48.3-4.5-45.3c2.7-7.8,4.4-12.8,20.6-12.2c35.2,1.4,31,72.7-14.8,72.7c-41.1,0-74.7-64.3-101.6-61.9
			c-9,1.3-9.4,2.8-11,15.3c-28.4-15-26.3-1.7-23.2,9.8c-13.6-9.4-32.4,1.7-48.1,6.6c59.6-5.9,119.9,44.6,156.1,54.4
			c-31.5,2.4-60.9-28.7-101.7-36.9c-55-11.1-100,11.5-129.3-10.1c10.1,20.6,33.6,26.5,53.7,28.2c19.3,1.6,50.3-0.5,74.6,15.7
			C155.4,309.1,70.5,337.1,49.6,293c0,41.5,36.9,55.4,74.2,46.7c-22.2,7.3-34.8,9.8-51.9,7.7c-2.1,19.9,16.1,20.9,28.1,19.3
			c-9.2,9.2-5.6,13.3-1.3,17.6c10.5,10.5,47-25.7,79.1-31.1c32.6-5.4,82.3,7.1,117.1-6.3c-27.9,19.4-89.7,9.8-106.4,13.3
			c-15.2,3.1-45.7,12.2-59.4,40.3c-11.8,24.4,8.9,24.6,16.4,20.2c-1.9,18,20,23.9,29.6,26.1c-30-37.9,26.8-63.5,39.2-65
			c-10.5,6.6-29.3,30-11.7,52.5c18.9,24.1,41.6,7.4,49.8-9.8c-11.4,10.8-25.9,5.9-28.2-1.7c-2.5-8.1-1.7-15.7,9.4-24
			s58.9-15,69.9-20.4c12.2-6,48.5-40.2,59.1-63.2c-4.5,30.3-33.7,72.1-65.2,85c24.2-4.4,53-21.6,65.2-41.5
			c-6.6,27.5,18.9,19.5,22.6,6.3c3.8,13.2,29.3,21.3,22.6-6.3c12.1,19.9,40.9,37.1,65.2,41.5c-31.5-12.9-60.6-54.7-65.2-85
			c10.5,23,46.9,57.3,59.1,63.2c11,5.4,58.7,12,69.9,20.4c11.2,8.4,11.9,16,9.4,24c-2.4,7.6-16.8,12.6-28.2,1.7
			c8.3,17.2,30.9,33.9,49.8,9.8c17.6-22.5-1.2-45.9-11.7-52.5c12.4,1.5,69.2,27.1,39.2,65c9.6-2.2,31.5-8.1,29.6-26.1
			c7.5,4.4,28.2,4.2,16.4-20.2c-13.7-28.2-44.3-37.2-59.4-40.3c-16.7-3.5-78.6,6.1-106.4-13.3c34.8,13.3,84.5,0.9,117.1,6.3
			c32.1,5.3,68.7,41.5,79.1,31.1c4.4-4.4,8-8.4-1.3-17.6c12,1.6,30.1,0.5,28.1-19.3c-17.1,2.1-29.7-0.4-51.9-7.7
			C683.8,348.4,720.7,334.4,720.7,293z"/>
	</g>
</g>
<g id="ziel">
	<g>
		<path class="st6" d="M283,258.1c1.9-29.7,17.1-56.4,45.7-68.6c-21.7-0.1-50.2,18.6-57.9,35.1c-19.4-13.9-52.6-4.6-61.1,0.7
			C245.5,215.9,283,258.1,283,258.1z"/>
		<path class="st6" d="M487.2,258.1c0,0,37.5-42.2,73.3-32.8c-8.5-5.3-41.7-14.5-61.1-0.7c-7.7-16.6-36.2-35.3-57.9-35.1
			C470.1,201.7,485.3,228.4,487.2,258.1z"/>
		<path class="st6" d="M720.7,293c-20.9,44.1-105.9,16.1-146.7,29.6c24.3-16.1,55.3-14,74.6-15.7c20.1-1.7,43.6-7.7,53.7-28.2
			c-29.3,21.6-74.2-0.9-129.3,10.1c-40.9,8.2-70.2,39.3-101.7,36.9c36.2-9.8,96.5-60.3,156.1-54.4c-15.7-4.9-34.5-16-48.1-6.6
			c3.1-11.5,5.2-24.7-23.2-9.8c-1.6-12.5-2-14-11-15.3c-27-2.4-60.5,61.9-101.6,61.9c-45.8,0-50-71.3-14.8-72.7
			c16.2-0.6,17.9,4.4,20.6,12.2c-30.9-3-24.4,45.3-4.5,45.3c15,0,27.2-12.9,27.2-33.8c-0.1-39-43.7-70.9-76.7-38
			c3.7-17.4-1.9-29.3-10.1-40.8c-8.2,11.5-13.8,23.3-10.1,40.8c-32.9-32.9-76.6-1.1-76.7,38c0,20.9,12.2,33.8,27.2,33.8
			c19.9,0,26.4-48.3-4.5-45.3c2.7-7.8,4.4-12.8,20.6-12.2c35.2,1.4,31,72.7-14.8,72.7c-41.1,0-74.7-64.3-101.6-61.9
			c-9,1.3-9.4,2.8-11,15.3c-28.4-15-26.3-1.7-23.2,9.8c-13.6-9.4-32.4,1.7-48.1,6.6c59.6-5.9,119.9,44.6,156.1,54.4
			c-31.5,2.4-60.9-28.7-101.7-36.9c-55-11.1-100,11.5-129.3-10.1c10.1,20.6,33.6,26.5,53.7,28.2c19.3,1.6,50.3-0.5,74.6,15.7
			C155.4,309.1,70.5,337.1,49.6,293c0,41.5,36.9,55.4,74.2,46.7c-22.2,7.3-34.8,9.8-51.9,7.7c-2.1,19.9,16.1,20.9,28.1,19.3
			c-9.2,9.2-5.6,13.3-1.3,17.6c10.5,10.5,47-25.7,79.1-31.1c32.6-5.4,82.3,7.1,117.1-6.3c-27.9,19.4-89.7,9.8-106.4,13.3
			c-15.2,3.1-45.7,12.2-59.4,40.3c-11.8,24.4,8.9,24.6,16.4,20.2c-1.9,18,20,23.9,29.6,26.1c-30-37.9,26.8-63.5,39.2-65
			c-10.5,6.6-29.3,30-11.7,52.5c18.9,24.1,41.6,7.4,49.8-9.8c-11.4,10.8-25.9,5.9-28.2-1.7c-2.5-8.1-1.7-15.7,9.4-24
			s58.9-15,69.9-20.4c12.2-6,48.5-40.2,59.1-63.2c-4.5,30.3-33.7,72.1-65.2,85c24.2-4.4,53-21.6,65.2-41.5
			c-6.6,27.5,18.9,19.5,22.6,6.3c3.8,13.2,29.3,21.3,22.6-6.3c12.1,19.9,40.9,37.1,65.2,41.5c-31.5-12.9-60.6-54.7-65.2-85
			c10.5,23,46.9,57.3,59.1,63.2c11,5.4,58.7,12,69.9,20.4c11.2,8.4,11.9,16,9.4,24c-2.4,7.6-16.8,12.6-28.2,1.7
			c8.3,17.2,30.9,33.9,49.8,9.8c17.6-22.5-1.2-45.9-11.7-52.5c12.4,1.5,69.2,27.1,39.2,65c9.6-2.2,31.5-8.1,29.6-26.1
			c7.5,4.4,28.2,4.2,16.4-20.2c-13.7-28.2-44.3-37.2-59.4-40.3c-16.7-3.5-78.6,6.1-106.4-13.3c34.8,13.3,84.5,0.9,117.1,6.3
			c32.1,5.3,68.7,41.5,79.1,31.1c4.4-4.4,8-8.4-1.3-17.6c12,1.6,30.1,0.5,28.1-19.3c-17.1,2.1-29.7-0.4-51.9-7.7
			C683.8,348.4,720.7,334.4,720.7,293z"/>
	</g>
</g>
</svg>
