<?xml version="1.0" encoding="utf-8"?>
<!-- Generator: Adobe Illustrator 24.2.3, SVG Export Plug-In . SVG Version: 6.00 Build 0)  -->
<svg version="1.1" xmlns="http://www.w3.org/2000/svg" xmlns:xlink="http://www.w3.org/1999/xlink" x="0px" y="0px"
	 viewBox="0 0 189 117" style="enable-background:new 0 0 189 117;" xml:space="preserve">
<style type="text/css">
	.st0{fill:none;stroke:#999999;stroke-miterlimit:10;}
	.st1{fill:none;stroke:#999999;stroke-width:0.6034;stroke-miterlimit:10;}
	.st2{fill:#F2F2F2;stroke:#999999;stroke-miterlimit:10;}
	.st3{fill:#1F69B2;stroke:#999999;stroke-miterlimit:10;}
	.st4{fill:#B8D7E9;stroke:#999999;stroke-miterlimit:10;}
	.st5{fill:#4D4D4D;stroke:#999999;stroke-miterlimit:10;}
	.st6{fill:#1B8FCF;}
	.st7{display:none;fill:none;stroke:#999999;stroke-miterlimit:10;}
	.st8{fill:#1F69B2;}
	.st9{fill:none;stroke:#E3051C;stroke-width:2;stroke-miterlimit:10;}
	.st10{fill:#F2F2F2;stroke:#E3051C;stroke-width:0.9085;stroke-miterlimit:10;}
	.st11{fill:none;stroke:#4D4D4D;stroke-miterlimit:10;}
	.st12{fill:#1B8FCF;stroke:#4D4D4D;stroke-miterlimit:10;}
	.st13{fill:#A14794;stroke:#4D4D4D;stroke-miterlimit:10;}
	.st14{fill:none;stroke:#333333;stroke-miterlimit:10;}
	.st15{fill:none;stroke:#CCCCCC;stroke-miterlimit:10;}
	.st16{fill:none;stroke:#000000;stroke-miterlimit:10;stroke-dasharray:7.9394;}
	.st17{fill:none;stroke:#CCCCCC;stroke-miterlimit:10;stroke-dasharray:7.9394;}
	.st18{fill:#CCCCCC;}
	.st19{fill:#4D4D4D;}
	.st20{fill:none;stroke:#4D4D4D;stroke-width:0.9214;stroke-miterlimit:10;}
	.st21{fill:none;stroke:#CCCCCC;stroke-miterlimit:10;stroke-dasharray:8.9189,8.9189;}
	.st22{fill:none;stroke:#CCCCCC;stroke-miterlimit:10;stroke-dasharray:8.6923,8.6923;}
	.st23{fill:none;stroke:#CCCCCC;stroke-width:0.7312;stroke-miterlimit:10;}
	.st24{fill:none;stroke:#CCCCCC;stroke-width:0.7312;stroke-miterlimit:10;stroke-dasharray:6.7563,6.7563;}
	.st25{fill:none;stroke:#CCCCCC;stroke-width:0.7312;stroke-miterlimit:10;stroke-dasharray:6.4952,6.4952;}
	.st26{fill:none;stroke:#000000;stroke-width:0.8428;stroke-miterlimit:10;}
	.st27{fill:none;stroke:#000000;stroke-width:0.8428;stroke-miterlimit:10;stroke-dasharray:5.0598,5.0598;}
	.st28{fill:none;stroke:#D20A11;stroke-width:0.4214;stroke-miterlimit:10;}
	.st29{fill:#D20A11;}
	.st30{fill:none;stroke:#000000;stroke-width:0.7806;stroke-miterlimit:10;}
	.st31{fill:none;stroke:#D20A11;stroke-width:0.3903;stroke-miterlimit:10;}
	.st32{fill:none;stroke:#000000;stroke-width:0.7352;stroke-miterlimit:10;}
	.st33{fill:none;stroke:#D20A11;stroke-width:0.2757;stroke-miterlimit:10;}
	.st34{fill:none;stroke:#D20A11;stroke-width:0.2757;stroke-miterlimit:10;stroke-dasharray:2.2307,2.2307;}
	.st35{fill:none;stroke:#D20A11;stroke-width:0.3676;stroke-miterlimit:10;}
	.st36{fill:none;stroke:#000000;stroke-miterlimit:10;}
	.st37{fill:none;stroke:#000000;stroke-miterlimit:10;stroke-dasharray:13.0413,13.0413;}
	.st38{fill:none;stroke:#000000;stroke-miterlimit:10;stroke-dasharray:6,6;}
	.st39{fill:none;stroke:#D20A11;stroke-width:3;stroke-miterlimit:10;}
	.st40{fill:none;stroke:#D20A11;stroke-width:3;stroke-miterlimit:10;stroke-dasharray:9.4727,9.4727;}
</style>
<g id="work">
	<g id="Workflows">
	</g>
	<g id="Rueckgaengig">
	</g>
	<g id="Wiederherstellen">
	</g>
	<g id="Reset-Revert">
	</g>
	<g id="Entwicklung_2_">
		<ellipse class="st26" cx="36.4" cy="58.6" rx="19.2" ry="5.9"/>
		<ellipse class="st26" cx="94" cy="58.6" rx="19.2" ry="5.9"/>
		<ellipse class="st26" cx="151.6" cy="58.6" rx="19.2" ry="5.9"/>
		<rect x="74.5" y="85.5" class="st26" width="38.7" height="8.3"/>
		<rect x="132.2" y="23" class="st26" width="38.7" height="8.3"/>
		<g>
			<g>
				<polyline class="st26" points="171.8,91.4 171.8,94 169.3,94 				"/>
				<line class="st27" x1="164.2" y1="94" x2="136.4" y2="94"/>
				<polyline class="st26" points="133.9,94 131.4,94 131.4,91.4 				"/>
				<polyline class="st26" points="131.4,87.8 131.4,85.3 133.9,85.3 				"/>
				<line class="st27" x1="138.9" y1="85.3" x2="166.8" y2="85.3"/>
				<polyline class="st26" points="169.3,85.3 171.8,85.3 171.8,87.8 				"/>
			</g>
		</g>
		<ellipse class="st26" cx="36.4" cy="58.6" rx="19.2" ry="5.9"/>
		<ellipse class="st26" cx="94" cy="58.6" rx="19.2" ry="5.9"/>
		<ellipse class="st26" cx="151.6" cy="58.6" rx="19.2" ry="5.9"/>
		<rect x="74.5" y="85.5" class="st26" width="38.7" height="8.3"/>
		<rect x="132.2" y="23" class="st26" width="38.7" height="8.3"/>
		<g>
			<g>
				<polyline class="st26" points="171.8,91.4 171.8,94 169.3,94 				"/>
				<line class="st27" x1="164.2" y1="94" x2="136.4" y2="94"/>
				<polyline class="st26" points="133.9,94 131.4,94 131.4,91.4 				"/>
				<polyline class="st26" points="131.4,87.8 131.4,85.3 133.9,85.3 				"/>
				<line class="st27" x1="138.9" y1="85.3" x2="166.8" y2="85.3"/>
				<polyline class="st26" points="169.3,85.3 171.8,85.3 171.8,87.8 				"/>
			</g>
		</g>
		<ellipse class="st26" cx="36.4" cy="58.6" rx="19.2" ry="5.9"/>
		<ellipse class="st26" cx="94" cy="58.6" rx="19.2" ry="5.9"/>
		<ellipse class="st26" cx="151.6" cy="58.6" rx="19.2" ry="5.9"/>
		<rect x="74.5" y="85.5" class="st26" width="38.7" height="8.3"/>
		<rect x="132.2" y="23" class="st26" width="38.7" height="8.3"/>
		<g>
			<g>
				<polyline class="st26" points="171.8,91.4 171.8,94 169.3,94 				"/>
				<line class="st27" x1="164.2" y1="94" x2="136.4" y2="94"/>
				<polyline class="st26" points="133.9,94 131.4,94 131.4,91.4 				"/>
				<polyline class="st26" points="131.4,87.8 131.4,85.3 133.9,85.3 				"/>
				<line class="st27" x1="138.9" y1="85.3" x2="166.8" y2="85.3"/>
				<polyline class="st26" points="169.3,85.3 171.8,85.3 171.8,87.8 				"/>
			</g>
		</g>
		<ellipse class="st26" cx="36.4" cy="58.6" rx="19.2" ry="5.9"/>
		<ellipse class="st26" cx="94" cy="58.6" rx="19.2" ry="5.9"/>
		<ellipse class="st26" cx="151.6" cy="58.6" rx="19.2" ry="5.9"/>
		<rect x="74.5" y="85.5" class="st26" width="38.7" height="8.3"/>
		<rect x="132.2" y="23" class="st26" width="38.7" height="8.3"/>
		<g>
			<g>
				<polyline class="st26" points="171.8,91.4 171.8,94 169.3,94 				"/>
				<line class="st27" x1="164.2" y1="94" x2="136.4" y2="94"/>
				<polyline class="st26" points="133.9,94 131.4,94 131.4,91.4 				"/>
				<polyline class="st26" points="131.4,87.8 131.4,85.3 133.9,85.3 				"/>
				<line class="st27" x1="138.9" y1="85.3" x2="166.8" y2="85.3"/>
				<polyline class="st26" points="169.3,85.3 171.8,85.3 171.8,87.8 				"/>
			</g>
		</g>
		<g>
			<g>
				<path d="M136.7,25.4h1.8v0.4h-1.5v1h1.2v0.4h-1.2v1.2h1.5v0.4h-1.9V25.4z"/>
				<path d="M139.3,26.3h0.3l0,0.4h0c0.2-0.3,0.5-0.5,0.8-0.5c0.5,0,0.8,0.3,0.8,1v1.5h-0.4v-1.5c0-0.5-0.1-0.7-0.5-0.7
					c-0.3,0-0.4,0.1-0.7,0.4v1.7h-0.4V26.3z"/>
				<path d="M142.5,27.8v-1.2h-0.6v-0.3l0.6,0l0-0.8h0.3v0.8h1.1v0.3h-1.1v1.2c0,0.4,0.1,0.7,0.6,0.7c0.2,0,0.4,0,0.5-0.1l0.1,0.3
					c-0.2,0.1-0.4,0.1-0.7,0.1C142.7,28.8,142.5,28.4,142.5,27.8z"/>
				<path d="M144.3,26.3h0.4l0.3,1.4c0,0.2,0.1,0.4,0.1,0.7h0c0-0.2,0.1-0.4,0.1-0.7l0.3-1.3h0.4l0.3,1.3c0,0.2,0.1,0.4,0.1,0.7h0
					c0-0.2,0.1-0.4,0.1-0.7l0.3-1.4h0.3l-0.5,2.4H146l-0.3-1.2c0-0.2-0.1-0.4-0.1-0.7h0c0,0.3-0.1,0.6-0.1,0.7l-0.2,1.2h-0.5
					L144.3,26.3z"/>
				<path d="M148.4,26.6h-1v-0.3h1.4v2.4h-0.4V26.6z M148.3,25.4c0-0.2,0.1-0.3,0.3-0.3c0.2,0,0.3,0.1,0.3,0.3
					c0,0.2-0.1,0.3-0.3,0.3C148.4,25.8,148.3,25.6,148.3,25.4z"/>
				<path d="M150.1,27.5c0-0.8,0.6-1.3,1.2-1.3c0.4,0,0.6,0.2,0.8,0.4l-0.2,0.3c-0.2-0.2-0.4-0.3-0.6-0.3c-0.5,0-0.9,0.4-0.9,0.9
					c0,0.6,0.3,0.9,0.8,0.9c0.3,0,0.5-0.1,0.7-0.3l0.2,0.3c-0.2,0.2-0.5,0.4-0.9,0.4C150.6,28.8,150.1,28.3,150.1,27.5z"/>
				<path d="M152.9,25.1h0.4v2.4h0l1.2-1.3h0.4l-0.9,1l1,1.5h-0.4l-0.8-1.2l-0.5,0.6v0.7h-0.4V25.1z"/>
				<path d="M156.3,27.9v-2.4h-0.7v-0.3h1.1v2.8c0,0.4,0.2,0.5,0.4,0.5c0.1,0,0.3,0,0.4-0.1l0.1,0.3c-0.2,0.1-0.3,0.1-0.6,0.1
					C156.5,28.8,156.3,28.5,156.3,27.9z"/>
				<path d="M158.2,27.8v-1.5h0.4v1.5c0,0.5,0.1,0.7,0.5,0.7c0.3,0,0.4-0.1,0.7-0.5v-1.7h0.4v2.4h-0.3l0-0.4h0
					c-0.2,0.3-0.5,0.5-0.8,0.5C158.4,28.8,158.2,28.4,158.2,27.8z"/>
				<path d="M161,26.3h0.3l0,0.4h0c0.2-0.3,0.5-0.5,0.8-0.5c0.5,0,0.8,0.3,0.8,1v1.5h-0.4v-1.5c0-0.5-0.1-0.7-0.5-0.7
					c-0.3,0-0.4,0.1-0.7,0.4v1.7H161V26.3z"/>
				<path d="M163.6,29.1c0-0.2,0.1-0.4,0.4-0.5v0c-0.1-0.1-0.2-0.2-0.2-0.4c0-0.2,0.1-0.3,0.3-0.5v0c-0.1-0.1-0.3-0.3-0.3-0.6
					c0-0.5,0.4-0.9,0.9-0.9c0.1,0,0.2,0,0.3,0.1h0.9v0.3h-0.6c0.1,0.1,0.2,0.3,0.2,0.5c0,0.5-0.4,0.8-0.8,0.8c-0.1,0-0.2,0-0.4-0.1
					c-0.1,0.1-0.2,0.2-0.2,0.3c0,0.2,0.2,0.3,0.5,0.3h0.5c0.6,0,0.8,0.2,0.8,0.6c0,0.5-0.5,0.9-1.2,0.9
					C164,29.8,163.6,29.6,163.6,29.1z M165.5,29c0-0.2-0.2-0.3-0.5-0.3h-0.4c-0.1,0-0.2,0-0.3,0c-0.2,0.1-0.3,0.3-0.3,0.4
					c0,0.3,0.2,0.4,0.7,0.4C165.1,29.5,165.5,29.3,165.5,29z M165.1,27.1c0-0.3-0.2-0.6-0.5-0.6c-0.3,0-0.5,0.2-0.5,0.6
					c0,0.4,0.2,0.6,0.5,0.6C164.9,27.7,165.1,27.4,165.1,27.1z"/>
			</g>
		</g>
		<g>
			<g>
				<path d="M26.8,58.6c0-1.1,0.6-1.7,1.3-1.7c0.4,0,0.6,0.2,0.8,0.4l-0.2,0.3c-0.2-0.2-0.3-0.3-0.6-0.3c-0.6,0-0.9,0.5-0.9,1.3
					c0,0.8,0.4,1.3,0.9,1.3c0.3,0,0.5-0.1,0.7-0.4l0.2,0.3c-0.2,0.3-0.5,0.5-0.9,0.5C27.3,60.3,26.8,59.6,26.8,58.6z"/>
				<path d="M29.4,59c0-0.8,0.5-1.3,1.1-1.3s1.1,0.5,1.1,1.3c0,0.8-0.5,1.3-1.1,1.3S29.4,59.8,29.4,59z M31.2,59
					c0-0.6-0.3-0.9-0.7-0.9c-0.4,0-0.7,0.4-0.7,0.9c0,0.6,0.3,0.9,0.7,0.9C30.9,59.9,31.2,59.5,31.2,59z"/>
				<path d="M32.1,57.8h0.3l0,0.3h0c0.1-0.2,0.2-0.4,0.5-0.4c0.2,0,0.4,0.1,0.4,0.4c0.1-0.3,0.3-0.4,0.5-0.4c0.3,0,0.5,0.3,0.5,0.8
					v1.7H34v-1.7c0-0.3-0.1-0.4-0.2-0.4c-0.2,0-0.2,0.1-0.4,0.4v1.8h-0.3v-1.7c0-0.3-0.1-0.4-0.2-0.4c-0.2,0-0.3,0.1-0.4,0.4v1.8
					h-0.4V57.8z"/>
				<path d="M34.9,57.8h0.3l0,0.3h0c0.1-0.2,0.2-0.4,0.5-0.4c0.2,0,0.4,0.1,0.4,0.4c0.1-0.3,0.3-0.4,0.5-0.4c0.3,0,0.5,0.3,0.5,0.8
					v1.7h-0.4v-1.7c0-0.3-0.1-0.4-0.2-0.4c-0.2,0-0.2,0.1-0.4,0.4v1.8h-0.3v-1.7c0-0.3-0.1-0.4-0.2-0.4c-0.2,0-0.3,0.1-0.4,0.4v1.8
					h-0.4V57.8z"/>
				<path d="M38.7,58.1h-1v-0.3h1.4v2.4h-0.4V58.1z M38.6,56.9c0-0.2,0.1-0.3,0.3-0.3c0.2,0,0.3,0.1,0.3,0.3c0,0.2-0.1,0.3-0.3,0.3
					C38.7,57.2,38.6,57.1,38.6,56.9z"/>
				<path d="M40.9,59.2v-1.2h-0.6v-0.3l0.6,0l0-0.8h0.3v0.8h1.1v0.3h-1.1v1.2c0,0.4,0.1,0.7,0.6,0.7c0.2,0,0.4,0,0.5-0.1l0.1,0.3
					c-0.2,0.1-0.4,0.1-0.7,0.1C41.2,60.3,40.9,59.8,40.9,59.2z"/>
				<path d="M45.9,59.9h0.8v-2.4h-0.6v-0.3c0.3,0,0.5-0.1,0.7-0.2h0.3v2.9h0.7v0.3h-1.9V59.9z"/>
			</g>
		</g>
		<g>
			<g>
				<path d="M84.4,58.6c0-1.1,0.6-1.7,1.3-1.7c0.4,0,0.6,0.2,0.8,0.4l-0.2,0.3c-0.2-0.2-0.3-0.3-0.6-0.3c-0.6,0-0.9,0.5-0.9,1.3
					c0,0.8,0.4,1.3,0.9,1.3c0.3,0,0.5-0.1,0.7-0.4l0.2,0.3c-0.2,0.3-0.5,0.5-0.9,0.5C85,60.3,84.4,59.6,84.4,58.6z"/>
				<path d="M87.1,59c0-0.8,0.5-1.3,1.1-1.3s1.1,0.5,1.1,1.3c0,0.8-0.5,1.3-1.1,1.3S87.1,59.8,87.1,59z M88.9,59
					c0-0.6-0.3-0.9-0.7-0.9c-0.4,0-0.7,0.4-0.7,0.9c0,0.6,0.3,0.9,0.7,0.9C88.6,59.9,88.9,59.5,88.9,59z"/>
				<path d="M89.8,57.8h0.3l0,0.3h0c0.1-0.2,0.2-0.4,0.5-0.4c0.2,0,0.4,0.1,0.4,0.4c0.1-0.3,0.3-0.4,0.5-0.4c0.3,0,0.5,0.3,0.5,0.8
					v1.7h-0.4v-1.7c0-0.3-0.1-0.4-0.2-0.4c-0.2,0-0.2,0.1-0.4,0.4v1.8h-0.3v-1.7c0-0.3-0.1-0.4-0.2-0.4c-0.2,0-0.3,0.1-0.4,0.4v1.8
					h-0.4V57.8z"/>
				<path d="M92.5,57.8h0.3l0,0.3h0c0.1-0.2,0.2-0.4,0.5-0.4c0.2,0,0.4,0.1,0.4,0.4c0.1-0.3,0.3-0.4,0.5-0.4c0.3,0,0.5,0.3,0.5,0.8
					v1.7h-0.4v-1.7c0-0.3-0.1-0.4-0.2-0.4c-0.2,0-0.2,0.1-0.4,0.4v1.8h-0.3v-1.7c0-0.3-0.1-0.4-0.2-0.4c-0.2,0-0.3,0.1-0.4,0.4v1.8
					h-0.4V57.8z"/>
				<path d="M96.4,58.1h-1v-0.3h1.4v2.4h-0.4V58.1z M96.3,56.9c0-0.2,0.1-0.3,0.3-0.3c0.2,0,0.3,0.1,0.3,0.3c0,0.2-0.1,0.3-0.3,0.3
					C96.4,57.2,96.3,57.1,96.3,56.9z"/>
				<path d="M98.6,59.2v-1.2H98v-0.3l0.6,0l0-0.8H99v0.8h1.1v0.3H99v1.2c0,0.4,0.1,0.7,0.6,0.7c0.2,0,0.4,0,0.5-0.1l0.1,0.3
					c-0.2,0.1-0.4,0.1-0.7,0.1C98.8,60.3,98.6,59.8,98.6,59.2z"/>
				<path d="M103.5,59.9c1-1,1.5-1.5,1.5-2c0-0.4-0.2-0.6-0.6-0.6c-0.3,0-0.5,0.2-0.7,0.4l-0.2-0.2c0.3-0.3,0.5-0.5,0.9-0.5
					c0.6,0,0.9,0.4,0.9,0.9c0,0.6-0.5,1.2-1.3,2c0.2,0,0.4,0,0.5,0h0.9v0.4h-2V59.9z"/>
			</g>
		</g>
		<g>
			<g>
				<path d="M142.7,58.6c0-1.1,0.6-1.7,1.3-1.7c0.4,0,0.6,0.2,0.8,0.4l-0.2,0.3c-0.2-0.2-0.3-0.3-0.6-0.3c-0.6,0-0.9,0.5-0.9,1.3
					c0,0.8,0.4,1.3,0.9,1.3c0.3,0,0.5-0.1,0.7-0.4l0.2,0.3c-0.2,0.3-0.5,0.5-0.9,0.5C143.3,60.3,142.7,59.6,142.7,58.6z"/>
				<path d="M145.4,59c0-0.8,0.5-1.3,1.1-1.3s1.1,0.5,1.1,1.3c0,0.8-0.5,1.3-1.1,1.3S145.4,59.8,145.4,59z M147.2,59
					c0-0.6-0.3-0.9-0.7-0.9c-0.4,0-0.7,0.4-0.7,0.9c0,0.6,0.3,0.9,0.7,0.9C146.9,59.9,147.2,59.5,147.2,59z"/>
				<path d="M148.1,57.8h0.3l0,0.3h0c0.1-0.2,0.2-0.4,0.5-0.4c0.2,0,0.4,0.1,0.4,0.4c0.1-0.3,0.3-0.4,0.5-0.4c0.3,0,0.5,0.3,0.5,0.8
					v1.7H150v-1.7c0-0.3-0.1-0.4-0.2-0.4c-0.2,0-0.2,0.1-0.4,0.4v1.8h-0.3v-1.7c0-0.3-0.1-0.4-0.2-0.4c-0.2,0-0.3,0.1-0.4,0.4v1.8
					h-0.4V57.8z"/>
				<path d="M150.8,57.8h0.3l0,0.3h0c0.1-0.2,0.2-0.4,0.5-0.4c0.2,0,0.4,0.1,0.4,0.4c0.1-0.3,0.3-0.4,0.5-0.4c0.3,0,0.5,0.3,0.5,0.8
					v1.7h-0.4v-1.7c0-0.3-0.1-0.4-0.2-0.4c-0.2,0-0.2,0.1-0.4,0.4v1.8h-0.3v-1.7c0-0.3-0.1-0.4-0.2-0.4c-0.2,0-0.3,0.1-0.4,0.4v1.8
					h-0.4V57.8z"/>
				<path d="M154.7,58.1h-1v-0.3h1.4v2.4h-0.4V58.1z M154.6,56.9c0-0.2,0.1-0.3,0.3-0.3c0.2,0,0.3,0.1,0.3,0.3
					c0,0.2-0.1,0.3-0.3,0.3C154.7,57.2,154.6,57.1,154.6,56.9z"/>
				<path d="M156.9,59.2v-1.2h-0.6v-0.3l0.6,0l0-0.8h0.3v0.8h1.1v0.3h-1.1v1.2c0,0.4,0.1,0.7,0.6,0.7c0.2,0,0.4,0,0.5-0.1l0.1,0.3
					c-0.2,0.1-0.4,0.1-0.7,0.1C157.1,60.3,156.9,59.8,156.9,59.2z"/>
				<path d="M161.7,59.8l0.2-0.3c0.2,0.2,0.5,0.4,0.8,0.4c0.4,0,0.7-0.2,0.7-0.6c0-0.4-0.3-0.6-1-0.6v-0.3c0.7,0,0.9-0.3,0.9-0.6
					c0-0.3-0.2-0.5-0.6-0.5c-0.3,0-0.5,0.1-0.7,0.3l-0.2-0.3c0.2-0.2,0.6-0.4,0.9-0.4c0.5,0,1,0.3,1,0.8c0,0.4-0.3,0.6-0.6,0.8v0
					c0.4,0.1,0.7,0.4,0.7,0.8c0,0.6-0.5,0.9-1,0.9C162.2,60.3,161.9,60,161.7,59.8z"/>
			</g>
		</g>
		<g>
			<g>
				<path d="M81.2,88.4h0.4v1.4h1.2v-1.4h0.4v3.3h-0.4v-1.5h-1.2v1.5h-0.4V88.4z"/>
				<path d="M84,88.4h1.8v0.4h-1.5v1h1.2v0.4h-1.2v1.2h1.5v0.4H84V88.4z"/>
				<path d="M87.4,88.4h0.4l1,3.3h-0.4l-0.3-1H87l-0.3,1h-0.4L87.4,88.4z M87.1,90.4H88l-0.1-0.5c-0.1-0.4-0.2-0.7-0.3-1.1h0
					c-0.1,0.4-0.2,0.7-0.3,1.1L87.1,90.4z"/>
				<path d="M89.3,88.4h0.7c0.9,0,1.4,0.6,1.4,1.6c0,1-0.5,1.7-1.4,1.7h-0.8V88.4z M90,91.3c0.7,0,1-0.5,1-1.3c0-0.8-0.3-1.3-1-1.3
					h-0.3v2.6H90z"/>
				<path d="M92,89.9H94v0.3H92V89.9z"/>
				<path d="M94.7,88.4h0.5l0.4,1.4l0.1,0.5h0l0.1-0.5l0.4-1.4h0.5v3.3h-0.4V90c0-0.3,0-0.9,0.1-1.2h0l-0.2,0.6l-0.4,1.3h-0.3
					l-0.4-1.3L95,88.9h0c0,0.3,0.1,0.8,0.1,1.2v1.6h-0.4V88.4z"/>
				<path d="M97.4,91.1c0-0.5,0.5-0.8,1.6-0.9c0-0.3-0.2-0.6-0.6-0.6c-0.3,0-0.6,0.2-0.8,0.3l-0.1-0.3c0.2-0.2,0.6-0.4,1-0.4
					c0.6,0,0.9,0.4,0.9,1v1.5h-0.3l0-0.3h0c-0.2,0.2-0.6,0.4-0.9,0.4C97.8,91.7,97.4,91.5,97.4,91.1z M99,91.1v-0.6
					c-0.9,0.1-1.2,0.3-1.2,0.6c0,0.3,0.2,0.4,0.5,0.4C98.5,91.4,98.8,91.3,99,91.1z"/>
				<path d="M100.1,91.4l0.2-0.3c0.3,0.2,0.5,0.3,1,0.3c0.4,0,0.6-0.2,0.6-0.4c0-0.2-0.1-0.3-0.7-0.5c-0.6-0.1-0.9-0.3-0.9-0.7
					c0-0.4,0.3-0.7,0.9-0.7c0.3,0,0.7,0.1,0.9,0.3l-0.2,0.3c-0.2-0.2-0.5-0.3-0.7-0.3c-0.4,0-0.5,0.2-0.5,0.4c0,0.2,0.2,0.3,0.6,0.4
					c0.7,0.2,0.9,0.4,0.9,0.8c0,0.4-0.3,0.7-1,0.7C100.8,91.7,100.4,91.6,100.1,91.4z"/>
				<path d="M103.4,90.7v-1.2h-0.6v-0.3l0.6,0l0-0.8h0.3v0.8h1.1v0.3h-1.1v1.2c0,0.4,0.1,0.7,0.6,0.7c0.2,0,0.4,0,0.5-0.1l0.1,0.3
					c-0.2,0.1-0.4,0.1-0.7,0.1C103.6,91.7,103.4,91.3,103.4,90.7z"/>
				<path d="M105.5,90.5c0-0.8,0.5-1.3,1.1-1.3c0.6,0,1,0.5,1,1.1c0,0.1,0,0.2,0,0.3h-1.7c0,0.6,0.4,0.8,0.9,0.8
					c0.3,0,0.5-0.1,0.7-0.2l0.1,0.3c-0.2,0.2-0.5,0.3-0.8,0.3C106,91.7,105.5,91.3,105.5,90.5z M105.9,90.3h1.4
					c0-0.5-0.3-0.7-0.7-0.7C106.3,89.5,106,89.8,105.9,90.3z"/>
				<path d="M108.6,89.3h0.3l0,0.6h0c0.2-0.4,0.6-0.6,1-0.6c0.2,0,0.3,0,0.4,0.1l-0.1,0.4c-0.2-0.1-0.2-0.1-0.4-0.1
					c-0.3,0-0.6,0.2-0.9,0.7v1.4h-0.4V89.3z"/>
			</g>
		</g>
		<g>
			<g>
				<line class="st28" x1="151.6" y1="46.5" x2="151.6" y2="33.9"/>
				<g>
					<polygon class="st29" points="152.8,45.7 151.6,50.2 150.4,45.7 					"/>
				</g>
			</g>
		</g>
		<g>
			<g>
				<line class="st28" x1="151.6" y1="70.7" x2="151.6" y2="73.3"/>
				<line class="st28" x1="151.6" y1="80.8" x2="151.6" y2="83.3"/>
				<g>
					<polygon class="st29" points="150.4,71.6 151.6,67 152.8,71.6 					"/>
				</g>
			</g>
		</g>
		<g>
			<g>
				<line class="st28" x1="94" y1="70.7" x2="94" y2="83.3"/>
				<g>
					<polygon class="st29" points="92.8,71.6 94,67 95.2,71.6 					"/>
				</g>
			</g>
		</g>
		<g>
			<g>
				<line class="st28" x1="61.6" y1="58.6" x2="72.6" y2="58.6"/>
				<g>
					<polygon class="st29" points="62.4,59.9 57.8,58.6 62.4,57.4 					"/>
				</g>
			</g>
		</g>
		<line class="st28" x1="115.4" y1="58.6" x2="130.2" y2="58.6"/>
		<g>
			<g>
				<line class="st28" x1="126.4" y1="89.6" x2="123.9" y2="89.6"/>
				<line class="st28" x1="117.9" y1="89.6" x2="115.4" y2="89.6"/>
				<g>
					<polygon class="st29" points="125.6,88.4 130.2,89.6 125.6,90.9 					"/>
				</g>
			</g>
		</g>
	</g>
</g>
<g id="vorlage">
</g>
</svg>
