<?xml version="1.0" encoding="utf-8"?>
<!-- Generator: Adobe Illustrator 24.2.3, SVG Export Plug-In . SVG Version: 6.00 Build 0)  -->
<svg version="1.1" xmlns="http://www.w3.org/2000/svg" xmlns:xlink="http://www.w3.org/1999/xlink" x="0px" y="0px"
	 viewBox="0 0 190 118" style="enable-background:new 0 0 190 118;" xml:space="preserve">
<style type="text/css">
	.st0{fill:none;stroke:#999999;stroke-miterlimit:10;}
	.st1{fill:none;stroke:#999999;stroke-width:0.6034;stroke-miterlimit:10;}
	.st2{fill:#F2F2F2;stroke:#999999;stroke-miterlimit:10;}
	.st3{fill:#1F69B2;stroke:#999999;stroke-miterlimit:10;}
	.st4{fill:#B8D7E9;stroke:#999999;stroke-miterlimit:10;}
	.st5{fill:#4D4D4D;stroke:#999999;stroke-miterlimit:10;}
	.st6{fill:#1B8FCF;}
	.st7{display:none;fill:none;stroke:#999999;stroke-miterlimit:10;}
	.st8{fill:#1F69B2;}
	.st9{fill:none;stroke:#E3051C;stroke-width:2;stroke-miterlimit:10;}
	.st10{fill:#F2F2F2;stroke:#E3051C;stroke-width:0.9085;stroke-miterlimit:10;}
	.st11{fill:none;stroke:#4D4D4D;stroke-miterlimit:10;}
	.st12{fill:#1B8FCF;stroke:#4D4D4D;stroke-miterlimit:10;}
	.st13{fill:#A14794;stroke:#4D4D4D;stroke-miterlimit:10;}
	.st14{fill:none;stroke:#333333;stroke-miterlimit:10;}
	.st15{fill:none;stroke:#CCCCCC;stroke-miterlimit:10;}
	.st16{fill:none;stroke:#000000;stroke-miterlimit:10;stroke-dasharray:7.9394;}
	.st17{fill:none;stroke:#CCCCCC;stroke-miterlimit:10;stroke-dasharray:7.9394;}
	.st18{fill:#CCCCCC;}
	.st19{fill:#4D4D4D;}
	.st20{fill:none;stroke:#4D4D4D;stroke-width:0.9214;stroke-miterlimit:10;}
	.st21{fill:none;stroke:#CCCCCC;stroke-miterlimit:10;stroke-dasharray:8.9189,8.9189;}
	.st22{fill:none;stroke:#CCCCCC;stroke-miterlimit:10;stroke-dasharray:8.6923,8.6923;}
	.st23{fill:none;stroke:#CCCCCC;stroke-width:0.7312;stroke-miterlimit:10;}
	.st24{fill:none;stroke:#CCCCCC;stroke-width:0.7312;stroke-miterlimit:10;stroke-dasharray:6.7563,6.7563;}
	.st25{fill:none;stroke:#CCCCCC;stroke-width:0.7312;stroke-miterlimit:10;stroke-dasharray:6.4952,6.4952;}
	.st26{fill:none;stroke:#000000;stroke-width:0.8428;stroke-miterlimit:10;}
	.st27{fill:none;stroke:#000000;stroke-width:0.8428;stroke-miterlimit:10;stroke-dasharray:5.0598,5.0598;}
	.st28{fill:none;stroke:#D20A11;stroke-width:0.4214;stroke-miterlimit:10;}
	.st29{fill:#D20A11;}
	.st30{fill:none;stroke:#000000;stroke-width:0.7806;stroke-miterlimit:10;}
	.st31{fill:none;stroke:#D20A11;stroke-width:0.3903;stroke-miterlimit:10;}
	.st32{fill:none;stroke:#000000;stroke-width:0.7352;stroke-miterlimit:10;}
	.st33{fill:none;stroke:#D20A11;stroke-width:0.2757;stroke-miterlimit:10;}
	.st34{fill:none;stroke:#D20A11;stroke-width:0.2757;stroke-miterlimit:10;stroke-dasharray:2.2307,2.2307;}
	.st35{fill:none;stroke:#D20A11;stroke-width:0.3676;stroke-miterlimit:10;}
	.st36{fill:none;stroke:#000000;stroke-miterlimit:10;}
	.st37{fill:none;stroke:#000000;stroke-miterlimit:10;stroke-dasharray:13.0413,13.0413;}
	.st38{fill:none;stroke:#000000;stroke-miterlimit:10;stroke-dasharray:6,6;}
	.st39{fill:none;stroke:#D20A11;stroke-width:3;stroke-miterlimit:10;}
	.st40{fill:none;stroke:#D20A11;stroke-width:3;stroke-miterlimit:10;stroke-dasharray:9.4727,9.4727;}
</style>
<g id="work">
	<g id="Workflows">
	</g>
	<g id="Rueckgaengig">
	</g>
	<g id="Wiederherstellen">
	</g>
	<g id="Reset-Revert">
	</g>
	<g id="Team_2_">
		<rect x="69.2" y="100.1" class="st32" width="35.5" height="6.9"/>
		<ellipse class="st32" cx="34" cy="40.6" rx="17.7" ry="4.9"/>
		<ellipse class="st32" cx="86.9" cy="40.6" rx="17.7" ry="4.9"/>
		<rect x="69.2" y="11.1" class="st32" width="35.5" height="6.9"/>
		<rect x="112.2" y="11.1" class="st32" width="35.5" height="6.9"/>
		<ellipse class="st32" cx="34" cy="77.4" rx="17.7" ry="4.9"/>
		<ellipse class="st32" cx="86.9" cy="77.4" rx="17.7" ry="4.9"/>
		<g>
			<g>
				<path d="M22.1,39.7c0-1.1,0.6-1.7,1.5-1.7c0.4,0,0.7,0.2,0.9,0.4l-0.2,0.3c-0.2-0.2-0.4-0.3-0.7-0.3c-0.6,0-1,0.5-1,1.3
					c0,0.8,0.4,1.3,1,1.3c0.3,0,0.5-0.1,0.7-0.4l0.2,0.3c-0.3,0.3-0.6,0.5-1,0.5C22.7,41.4,22.1,40.8,22.1,39.7z"/>
				<path d="M25.1,40.2c0-0.8,0.6-1.3,1.2-1.3s1.2,0.5,1.2,1.3c0,0.8-0.6,1.3-1.2,1.3S25.1,41,25.1,40.2z M27,40.2
					c0-0.6-0.3-0.9-0.8-0.9c-0.5,0-0.8,0.4-0.8,0.9c0,0.6,0.3,0.9,0.8,0.9C26.7,41.1,27,40.7,27,40.2z"/>
				<path d="M28,38.9h0.3l0,0.3h0c0.1-0.2,0.3-0.4,0.6-0.4c0.2,0,0.4,0.1,0.5,0.4c0.1-0.3,0.3-0.4,0.6-0.4c0.3,0,0.5,0.3,0.5,0.8
					v1.7h-0.4v-1.7c0-0.3-0.1-0.4-0.3-0.4c-0.2,0-0.3,0.1-0.4,0.4v1.8h-0.4v-1.7c0-0.3-0.1-0.4-0.3-0.4c-0.2,0-0.3,0.1-0.4,0.4v1.8
					H28V38.9z"/>
				<path d="M31,38.9h0.3l0,0.3h0c0.1-0.2,0.3-0.4,0.6-0.4c0.2,0,0.4,0.1,0.5,0.4c0.1-0.3,0.3-0.4,0.6-0.4c0.3,0,0.5,0.3,0.5,0.8
					v1.7h-0.4v-1.7c0-0.3-0.1-0.4-0.3-0.4c-0.2,0-0.3,0.1-0.4,0.4v1.8h-0.4v-1.7c0-0.3-0.1-0.4-0.2-0.4c-0.2,0-0.3,0.1-0.4,0.4v1.8
					H31V38.9z"/>
				<path d="M35.3,39.3h-1.1v-0.3h1.5v2.4h-0.4V39.3z M35.2,38.1c0-0.2,0.1-0.3,0.3-0.3c0.2,0,0.3,0.1,0.3,0.3
					c0,0.2-0.1,0.3-0.3,0.3C35.3,38.4,35.2,38.3,35.2,38.1z"/>
				<path d="M37.8,40.4v-1.2h-0.7V39l0.7,0l0.1-0.8h0.3v0.8h1.2v0.3h-1.2v1.2c0,0.4,0.1,0.7,0.6,0.7c0.2,0,0.4,0,0.6-0.1l0.1,0.3
					c-0.2,0.1-0.5,0.1-0.8,0.1C38,41.4,37.8,41,37.8,40.4z"/>
				<path d="M43.2,41h0.9v-2.4h-0.7v-0.3c0.3,0,0.6-0.1,0.8-0.2h0.3V41h0.8v0.3h-2.1V41z"/>
			</g>
		</g>
		<g>
			<g>
				<path d="M23.8,77.2c0-1.1,0.6-1.7,1.5-1.7c0.4,0,0.7,0.2,0.9,0.4l-0.2,0.3c-0.2-0.2-0.4-0.3-0.7-0.3c-0.6,0-1,0.5-1,1.3
					c0,0.8,0.4,1.3,1,1.3c0.3,0,0.5-0.1,0.7-0.4l0.2,0.3c-0.3,0.3-0.6,0.5-1,0.5C24.4,79,23.8,78.3,23.8,77.2z"/>
				<path d="M26.8,77.7c0-0.8,0.6-1.3,1.2-1.3s1.2,0.5,1.2,1.3c0,0.8-0.6,1.3-1.2,1.3S26.8,78.5,26.8,77.7z M28.8,77.7
					c0-0.6-0.3-0.9-0.8-0.9c-0.5,0-0.8,0.4-0.8,0.9c0,0.6,0.3,0.9,0.8,0.9C28.4,78.6,28.8,78.2,28.8,77.7z"/>
				<path d="M29.8,76.5h0.3l0,0.3h0c0.1-0.2,0.3-0.4,0.6-0.4c0.2,0,0.4,0.1,0.5,0.4c0.1-0.3,0.3-0.4,0.6-0.4c0.3,0,0.5,0.3,0.5,0.8
					v1.7h-0.4v-1.7c0-0.3-0.1-0.4-0.3-0.4c-0.2,0-0.3,0.1-0.4,0.4v1.8h-0.4v-1.7c0-0.3-0.1-0.4-0.3-0.4c-0.2,0-0.3,0.1-0.4,0.4v1.8
					h-0.4V76.5z"/>
				<path d="M32.8,76.5h0.3l0,0.3h0c0.1-0.2,0.3-0.4,0.6-0.4c0.2,0,0.4,0.1,0.5,0.4c0.1-0.3,0.3-0.4,0.6-0.4c0.3,0,0.5,0.3,0.5,0.8
					v1.7h-0.4v-1.7c0-0.3-0.1-0.4-0.3-0.4c-0.2,0-0.3,0.1-0.4,0.4v1.8h-0.4v-1.7c0-0.3-0.1-0.4-0.3-0.4c-0.2,0-0.3,0.1-0.4,0.4v1.8
					h-0.4V76.5z"/>
				<path d="M37.1,76.8h-1.1v-0.3h1.5v2.4h-0.4V76.8z M36.9,75.6c0-0.2,0.1-0.3,0.3-0.3c0.2,0,0.3,0.1,0.3,0.3
					c0,0.2-0.1,0.3-0.3,0.3C37,75.9,36.9,75.8,36.9,75.6z"/>
				<path d="M39.5,77.9v-1.2h-0.7v-0.3l0.7,0l0.1-0.8h0.3v0.8h1.2v0.3h-1.2V78c0,0.4,0.1,0.7,0.6,0.7c0.2,0,0.4,0,0.6-0.1l0.1,0.3
					C41,78.9,40.8,79,40.4,79C39.7,79,39.5,78.5,39.5,77.9z"/>
				<path d="M45,78.6h0.9v-2.4h-0.7v-0.3c0.3,0,0.6-0.1,0.8-0.2h0.3v2.9h0.8v0.3H45V78.6z"/>
			</g>
		</g>
		<g>
			<g>
				<path d="M76.2,39.7c0-1.1,0.6-1.7,1.5-1.7c0.4,0,0.7,0.2,0.9,0.4l-0.2,0.3c-0.2-0.2-0.4-0.3-0.7-0.3c-0.6,0-1,0.5-1,1.3
					c0,0.8,0.4,1.3,1,1.3c0.3,0,0.5-0.1,0.7-0.4l0.2,0.3c-0.3,0.3-0.6,0.5-1,0.5C76.9,41.4,76.2,40.8,76.2,39.7z"/>
				<path d="M79.2,40.2c0-0.8,0.6-1.3,1.2-1.3s1.2,0.5,1.2,1.3c0,0.8-0.6,1.3-1.2,1.3S79.2,41,79.2,40.2z M81.2,40.2
					c0-0.6-0.3-0.9-0.8-0.9c-0.5,0-0.8,0.4-0.8,0.9c0,0.6,0.3,0.9,0.8,0.9C80.9,41.1,81.2,40.7,81.2,40.2z"/>
				<path d="M82.2,38.9h0.3l0,0.3h0c0.1-0.2,0.3-0.4,0.6-0.4c0.2,0,0.4,0.1,0.5,0.4c0.1-0.3,0.3-0.4,0.6-0.4c0.3,0,0.5,0.3,0.5,0.8
					v1.7h-0.4v-1.7c0-0.3-0.1-0.4-0.3-0.4c-0.2,0-0.3,0.1-0.4,0.4v1.8h-0.4v-1.7c0-0.3-0.1-0.4-0.3-0.4c-0.2,0-0.3,0.1-0.4,0.4v1.8
					h-0.4V38.9z"/>
				<path d="M85.2,38.9h0.3l0,0.3h0c0.1-0.2,0.3-0.4,0.6-0.4c0.2,0,0.4,0.1,0.5,0.4c0.1-0.3,0.3-0.4,0.6-0.4c0.3,0,0.5,0.3,0.5,0.8
					v1.7h-0.4v-1.7c0-0.3-0.1-0.4-0.3-0.4c-0.2,0-0.3,0.1-0.4,0.4v1.8h-0.4v-1.7c0-0.3-0.1-0.4-0.3-0.4c-0.2,0-0.3,0.1-0.4,0.4v1.8
					h-0.4V38.9z"/>
				<path d="M89.5,39.3h-1.1v-0.3h1.5v2.4h-0.4V39.3z M89.3,38.1c0-0.2,0.1-0.3,0.3-0.3c0.2,0,0.3,0.1,0.3,0.3
					c0,0.2-0.1,0.3-0.3,0.3C89.5,38.4,89.3,38.3,89.3,38.1z"/>
				<path d="M92,40.4v-1.2h-0.7V39l0.7,0l0.1-0.8h0.3v0.8h1.2v0.3h-1.2v1.2c0,0.4,0.1,0.7,0.6,0.7c0.2,0,0.4,0,0.6-0.1l0.1,0.3
					c-0.2,0.1-0.5,0.1-0.8,0.1C92.2,41.4,92,41,92,40.4z"/>
				<path d="M97.3,41.1c1.1-1,1.7-1.5,1.7-2c0-0.4-0.2-0.6-0.7-0.6c-0.3,0-0.6,0.2-0.8,0.4l-0.2-0.2c0.3-0.3,0.6-0.5,1.1-0.5
					c0.6,0,1,0.4,1,0.9c0,0.6-0.6,1.2-1.5,2c0.2,0,0.4,0,0.6,0h1.1v0.4h-2.2V41.1z"/>
			</g>
		</g>
		<g>
			<g>
				<path d="M76.2,77.2c0-1.1,0.6-1.7,1.5-1.7c0.4,0,0.7,0.2,0.9,0.4l-0.2,0.3c-0.2-0.2-0.4-0.3-0.7-0.3c-0.6,0-1,0.5-1,1.3
					c0,0.8,0.4,1.3,1,1.3c0.3,0,0.5-0.1,0.7-0.4l0.2,0.3c-0.3,0.3-0.6,0.5-1,0.5C76.9,79,76.2,78.3,76.2,77.2z"/>
				<path d="M79.2,77.7c0-0.8,0.6-1.3,1.2-1.3s1.2,0.5,1.2,1.3c0,0.8-0.6,1.3-1.2,1.3S79.2,78.5,79.2,77.7z M81.2,77.7
					c0-0.6-0.3-0.9-0.8-0.9c-0.5,0-0.8,0.4-0.8,0.9c0,0.6,0.3,0.9,0.8,0.9C80.9,78.6,81.2,78.2,81.2,77.7z"/>
				<path d="M82.2,76.5h0.3l0,0.3h0c0.1-0.2,0.3-0.4,0.6-0.4c0.2,0,0.4,0.1,0.5,0.4c0.1-0.3,0.3-0.4,0.6-0.4c0.3,0,0.5,0.3,0.5,0.8
					v1.7h-0.4v-1.7c0-0.3-0.1-0.4-0.3-0.4c-0.2,0-0.3,0.1-0.4,0.4v1.8h-0.4v-1.7c0-0.3-0.1-0.4-0.3-0.4c-0.2,0-0.3,0.1-0.4,0.4v1.8
					h-0.4V76.5z"/>
				<path d="M85.2,76.5h0.3l0,0.3h0c0.1-0.2,0.3-0.4,0.6-0.4c0.2,0,0.4,0.1,0.5,0.4c0.1-0.3,0.3-0.4,0.6-0.4c0.3,0,0.5,0.3,0.5,0.8
					v1.7h-0.4v-1.7c0-0.3-0.1-0.4-0.3-0.4c-0.2,0-0.3,0.1-0.4,0.4v1.8h-0.4v-1.7c0-0.3-0.1-0.4-0.3-0.4c-0.2,0-0.3,0.1-0.4,0.4v1.8
					h-0.4V76.5z"/>
				<path d="M89.5,76.8h-1.1v-0.3h1.5v2.4h-0.4V76.8z M89.3,75.6c0-0.2,0.1-0.3,0.3-0.3c0.2,0,0.3,0.1,0.3,0.3
					c0,0.2-0.1,0.3-0.3,0.3C89.5,75.9,89.3,75.8,89.3,75.6z"/>
				<path d="M92,77.9v-1.2h-0.7v-0.3l0.7,0l0.1-0.8h0.3v0.8h1.2v0.3h-1.2V78c0,0.4,0.1,0.7,0.6,0.7c0.2,0,0.4,0,0.6-0.1l0.1,0.3
					c-0.2,0.1-0.5,0.1-0.8,0.1C92.2,79,92,78.5,92,77.9z"/>
				<path d="M97.3,78.6c1.1-1,1.7-1.5,1.7-2c0-0.4-0.2-0.6-0.7-0.6c-0.3,0-0.6,0.2-0.8,0.4l-0.2-0.2c0.3-0.3,0.6-0.5,1.1-0.5
					c0.6,0,1,0.4,1,0.9c0,0.6-0.6,1.2-1.5,2c0.2,0,0.4,0,0.6,0h1.1v0.4h-2.2V78.6z"/>
			</g>
		</g>
		<g>
			<g>
				<path d="M72.7,14.4c0-0.7,0.4-1,1-1s1,0.4,1,1c0,0.6-0.4,1-1,1S72.7,15.1,72.7,14.4z M74.3,14.4c0-0.4-0.2-0.8-0.6-0.8
					s-0.6,0.3-0.6,0.8c0,0.4,0.2,0.7,0.6,0.7S74.3,14.9,74.3,14.4z"/>
				<path d="M75.5,13.5h0.3l0,0.5h0c0.2-0.3,0.5-0.5,0.9-0.5c0.1,0,0.3,0,0.4,0.1l-0.1,0.3c-0.1,0-0.2-0.1-0.4-0.1
					c-0.3,0-0.6,0.2-0.8,0.6v1.1h-0.3V13.5z"/>
				<path d="M78.5,13.7h-0.9v-0.3h1.2v1.9h-0.3V13.7z M78.4,12.8c0-0.2,0.1-0.3,0.3-0.3c0.1,0,0.3,0.1,0.3,0.3
					c0,0.2-0.1,0.3-0.3,0.3C78.5,13.1,78.4,13,78.4,12.8z"/>
				<path d="M80,15.8c0-0.2,0.1-0.3,0.3-0.4v0c-0.1-0.1-0.2-0.2-0.2-0.3c0-0.1,0.1-0.3,0.2-0.4v0c-0.1-0.1-0.2-0.3-0.2-0.5
					c0-0.4,0.4-0.7,0.8-0.7c0.1,0,0.2,0,0.3,0h0.8v0.3h-0.5c0.1,0.1,0.2,0.2,0.2,0.4c0,0.4-0.3,0.7-0.8,0.7c-0.1,0-0.2,0-0.3-0.1
					c-0.1,0.1-0.2,0.1-0.2,0.2c0,0.2,0.1,0.2,0.4,0.2h0.4c0.5,0,0.7,0.1,0.7,0.5c0,0.4-0.4,0.7-1.1,0.7C80.3,16.3,80,16.1,80,15.8z
					 M81.6,15.7c0-0.2-0.1-0.2-0.4-0.2h-0.4c-0.1,0-0.2,0-0.3,0c-0.2,0.1-0.2,0.2-0.2,0.3c0,0.2,0.2,0.3,0.6,0.3
					C81.3,16.1,81.6,15.9,81.6,15.7z M81.3,14.1c0-0.3-0.2-0.5-0.4-0.5c-0.2,0-0.4,0.2-0.4,0.5c0,0.3,0.2,0.5,0.4,0.5
					C81.1,14.6,81.3,14.4,81.3,14.1z"/>
				<path d="M83.3,13.7h-0.9v-0.3h1.2v1.9h-0.3V13.7z M83.2,12.8c0-0.2,0.1-0.3,0.3-0.3c0.1,0,0.3,0.1,0.3,0.3
					c0,0.2-0.1,0.3-0.3,0.3C83.3,13.1,83.2,13,83.2,12.8z"/>
				<path d="M84.8,13.5h0.3l0,0.3h0c0.2-0.2,0.4-0.4,0.7-0.4c0.5,0,0.7,0.3,0.7,0.8v1.2h-0.3v-1.2c0-0.4-0.1-0.5-0.4-0.5
					c-0.2,0-0.4,0.1-0.6,0.4v1.4h-0.3V13.5z"/>
				<path d="M88.6,12.6h0.3L87.6,16h-0.3L88.6,12.6z"/>
				<path d="M89.6,12.8H90l0.4,1.1l0.1,0.4h0l0.1-0.4l0.4-1.1h0.4v2.6h-0.3v-1.3c0-0.3,0-0.7,0.1-0.9h0L91,13.7l-0.4,1h-0.2l-0.4-1
					l-0.2-0.5h0c0,0.2,0.1,0.7,0.1,0.9v1.3h-0.3V12.8z"/>
				<path d="M92,14.9c0-0.4,0.4-0.6,1.4-0.7c0-0.3-0.1-0.5-0.5-0.5c-0.3,0-0.5,0.1-0.7,0.2l-0.1-0.2c0.2-0.1,0.5-0.3,0.9-0.3
					c0.5,0,0.8,0.3,0.8,0.8v1.2h-0.3l0-0.3h0c-0.2,0.2-0.5,0.3-0.8,0.3C92.3,15.5,92,15.2,92,14.9z M93.4,14.9v-0.5
					c-0.8,0.1-1.1,0.2-1.1,0.5c0,0.2,0.2,0.3,0.4,0.3C93,15.2,93.2,15.1,93.4,14.9z"/>
				<path d="M94.4,15.1l0.2-0.2c0.2,0.2,0.5,0.3,0.8,0.3c0.3,0,0.5-0.1,0.5-0.3c0-0.1-0.1-0.3-0.6-0.4c-0.5-0.1-0.8-0.3-0.8-0.6
					c0-0.3,0.3-0.6,0.8-0.6c0.3,0,0.6,0.1,0.8,0.2l-0.2,0.2c-0.2-0.1-0.4-0.2-0.7-0.2c-0.3,0-0.4,0.1-0.4,0.3c0,0.2,0.2,0.2,0.6,0.3
					c0.6,0.1,0.8,0.3,0.8,0.6c0,0.3-0.3,0.6-0.9,0.6C94.9,15.5,94.6,15.3,94.4,15.1z"/>
				<path d="M97.3,14.6v-0.9h-0.5v-0.2l0.6,0l0-0.6h0.3v0.6h1v0.3h-1v0.9c0,0.3,0.1,0.5,0.5,0.5c0.2,0,0.3,0,0.5-0.1l0.1,0.2
					c-0.2,0.1-0.4,0.1-0.6,0.1C97.5,15.5,97.3,15.1,97.3,14.6z"/>
				<path d="M99.1,14.4c0-0.6,0.5-1,1-1c0.6,0,0.9,0.4,0.9,0.9c0,0.1,0,0.1,0,0.2h-1.5c0,0.4,0.4,0.7,0.8,0.7c0.2,0,0.4-0.1,0.6-0.2
					l0.1,0.2c-0.2,0.1-0.4,0.2-0.8,0.2C99.6,15.5,99.1,15.1,99.1,14.4z M99.5,14.3h1.2c0-0.4-0.2-0.6-0.6-0.6
					C99.8,13.7,99.5,13.9,99.5,14.3z"/>
				<path d="M101.9,13.5h0.3l0,0.5h0c0.2-0.3,0.5-0.5,0.9-0.5c0.1,0,0.3,0,0.4,0.1l-0.1,0.3c-0.1,0-0.2-0.1-0.4-0.1
					c-0.3,0-0.6,0.2-0.8,0.6v1.1h-0.3V13.5z"/>
			</g>
		</g>
		<g>
			<g>
				<path d="M116.4,14.4c0-0.7,0.4-1,1-1s1,0.4,1,1c0,0.6-0.4,1-1,1S116.4,15.1,116.4,14.4z M118,14.4c0-0.4-0.2-0.8-0.6-0.8
					s-0.6,0.3-0.6,0.8c0,0.4,0.2,0.7,0.6,0.7S118,14.9,118,14.4z"/>
				<path d="M119.1,13.5h0.3l0,0.5h0c0.2-0.3,0.5-0.5,0.9-0.5c0.1,0,0.3,0,0.4,0.1l-0.1,0.3c-0.1,0-0.2-0.1-0.4-0.1
					c-0.3,0-0.6,0.2-0.8,0.6v1.1h-0.3V13.5z"/>
				<path d="M122.2,13.7h-0.9v-0.3h1.2v1.9h-0.3V13.7z M122.1,12.8c0-0.2,0.1-0.3,0.3-0.3c0.1,0,0.3,0.1,0.3,0.3
					c0,0.2-0.1,0.3-0.3,0.3C122.2,13.1,122.1,13,122.1,12.8z"/>
				<path d="M123.6,15.8c0-0.2,0.1-0.3,0.3-0.4v0c-0.1-0.1-0.2-0.2-0.2-0.3c0-0.1,0.1-0.3,0.2-0.4v0c-0.1-0.1-0.2-0.3-0.2-0.5
					c0-0.4,0.4-0.7,0.8-0.7c0.1,0,0.2,0,0.3,0h0.8v0.3h-0.5c0.1,0.1,0.2,0.2,0.2,0.4c0,0.4-0.3,0.7-0.8,0.7c-0.1,0-0.2,0-0.3-0.1
					c-0.1,0.1-0.2,0.1-0.2,0.2c0,0.2,0.1,0.2,0.4,0.2h0.4c0.5,0,0.7,0.1,0.7,0.5c0,0.4-0.4,0.7-1.1,0.7
					C124,16.3,123.6,16.1,123.6,15.8z M125.3,15.7c0-0.2-0.1-0.2-0.4-0.2h-0.4c-0.1,0-0.2,0-0.3,0c-0.2,0.1-0.2,0.2-0.2,0.3
					c0,0.2,0.2,0.3,0.6,0.3C125,16.1,125.3,15.9,125.3,15.7z M125,14.1c0-0.3-0.2-0.5-0.4-0.5c-0.2,0-0.4,0.2-0.4,0.5
					c0,0.3,0.2,0.5,0.4,0.5C124.8,14.6,125,14.4,125,14.1z"/>
				<path d="M127,13.7h-0.9v-0.3h1.2v1.9H127V13.7z M126.9,12.8c0-0.2,0.1-0.3,0.3-0.3c0.1,0,0.3,0.1,0.3,0.3c0,0.2-0.1,0.3-0.3,0.3
					C127,13.1,126.9,13,126.9,12.8z"/>
				<path d="M128.5,13.5h0.3l0,0.3h0c0.2-0.2,0.4-0.4,0.7-0.4c0.5,0,0.7,0.3,0.7,0.8v1.2h-0.3v-1.2c0-0.4-0.1-0.5-0.4-0.5
					c-0.2,0-0.4,0.1-0.6,0.4v1.4h-0.3V13.5z"/>
				<path d="M132.2,12.6h0.3l-1.3,3.5h-0.3L132.2,12.6z"/>
				<path d="M133.3,12.8h0.3v1.1h1.1v-1.1h0.3v2.6h-0.3v-1.2h-1.1v1.2h-0.3V12.8z"/>
				<path d="M135.8,12.8h1.6v0.3h-1.3v0.8h1.1v0.3h-1.1v1h1.3v0.3h-1.7V12.8z"/>
				<path d="M138.8,12.8h0.4l0.9,2.6h-0.4l-0.2-0.8h-1l-0.3,0.8h-0.3L138.8,12.8z M138.5,14.3h0.8l-0.1-0.4
					c-0.1-0.3-0.2-0.6-0.3-0.9h0c-0.1,0.3-0.2,0.6-0.3,0.9L138.5,14.3z"/>
				<path d="M140.5,12.8h0.6c0.8,0,1.2,0.5,1.2,1.3c0,0.8-0.4,1.3-1.2,1.3h-0.7V12.8z M141.1,15.1c0.6,0,0.9-0.4,0.9-1.1
					c0-0.7-0.3-1-0.9-1h-0.3v2.1H141.1z"/>
			</g>
		</g>
		<g>
			<g>
				<path d="M53.3,57.9c0-0.2,0.1-0.4,0.4-0.5v0c-0.1-0.1-0.3-0.2-0.3-0.4c0-0.2,0.1-0.3,0.3-0.5v0c-0.2-0.1-0.3-0.3-0.3-0.6
					c0-0.5,0.4-0.9,1-0.9c0.1,0,0.3,0,0.4,0.1h1v0.3h-0.6c0.1,0.1,0.2,0.3,0.2,0.5c0,0.5-0.4,0.8-0.9,0.8c-0.1,0-0.3,0-0.4-0.1
					c-0.1,0.1-0.2,0.2-0.2,0.3c0,0.2,0.2,0.3,0.5,0.3h0.5c0.6,0,0.9,0.2,0.9,0.6c0,0.5-0.5,0.9-1.4,0.9
					C53.7,58.5,53.3,58.3,53.3,57.9z M55.4,57.7c0-0.2-0.2-0.3-0.6-0.3h-0.5c-0.1,0-0.3,0-0.4,0c-0.2,0.1-0.3,0.3-0.3,0.4
					c0,0.3,0.3,0.4,0.8,0.4C55,58.2,55.4,58,55.4,57.7z M54.9,55.8c0-0.3-0.3-0.6-0.6-0.6c-0.3,0-0.6,0.2-0.6,0.6
					c0,0.4,0.3,0.6,0.6,0.6C54.7,56.4,54.9,56.1,54.9,55.8z"/>
				<path d="M57.5,55.3h-1.1V55h1.5v2.4h-0.4V55.3z M57.3,54.1c0-0.2,0.1-0.3,0.3-0.3c0.2,0,0.3,0.1,0.3,0.3c0,0.2-0.1,0.3-0.3,0.3
					C57.5,54.5,57.3,54.3,57.3,54.1z"/>
				<path d="M60,56.5v-1.2h-0.7V55l0.7,0l0.1-0.8h0.3V55h1.2v0.3h-1.2v1.2c0,0.4,0.1,0.7,0.6,0.7c0.2,0,0.4,0,0.6-0.1l0.1,0.3
					c-0.2,0.1-0.5,0.1-0.8,0.1C60.2,57.5,60,57.1,60,56.5z"/>
				<path d="M65.3,56.2c0-0.8,0.6-1.3,1.4-1.3c0.4,0,0.7,0.2,0.9,0.4l-0.2,0.3c-0.2-0.2-0.4-0.3-0.7-0.3c-0.6,0-0.9,0.4-0.9,0.9
					c0,0.6,0.4,0.9,0.9,0.9c0.3,0,0.6-0.1,0.8-0.3l0.2,0.3c-0.3,0.2-0.6,0.4-1,0.4C65.9,57.5,65.3,57,65.3,56.2z"/>
				<path d="M69.2,56.6v-2.4h-0.8v-0.3h1.2v2.8c0,0.4,0.2,0.5,0.5,0.5c0.1,0,0.3,0,0.5-0.1l0.1,0.3c-0.2,0.1-0.4,0.1-0.7,0.1
					C69.5,57.5,69.2,57.2,69.2,56.6z"/>
				<path d="M71.2,56.2c0-0.8,0.6-1.3,1.2-1.3s1.2,0.5,1.2,1.3c0,0.8-0.6,1.3-1.2,1.3S71.2,57,71.2,56.2z M73.2,56.2
					c0-0.6-0.3-0.9-0.8-0.9c-0.5,0-0.8,0.4-0.8,0.9c0,0.6,0.3,0.9,0.8,0.9C72.9,57.1,73.2,56.8,73.2,56.2z"/>
				<path d="M74.4,55h0.3l0,0.4h0c0.3-0.3,0.5-0.5,0.9-0.5c0.6,0,0.8,0.3,0.8,1v1.5h-0.4V56c0-0.5-0.2-0.7-0.6-0.7
					c-0.3,0-0.5,0.1-0.8,0.4v1.7h-0.4V55z"/>
				<path d="M77.3,56.2c0-0.8,0.6-1.3,1.2-1.3c0.7,0,1.1,0.5,1.1,1.1c0,0.1,0,0.2,0,0.3h-1.9c0,0.5,0.4,0.8,0.9,0.8
					c0.3,0,0.5-0.1,0.7-0.2l0.2,0.3c-0.2,0.2-0.6,0.3-0.9,0.3C77.9,57.5,77.3,57,77.3,56.2z M77.7,56h1.6c0-0.5-0.3-0.7-0.7-0.7
					C78.1,55.2,77.8,55.5,77.7,56z"/>
			</g>
		</g>
		<g>
			<g>
				<path d="M71,101.4h0.4v1.4h1.4v-1.4h0.4v3.3h-0.4v-1.5h-1.4v1.5H71V101.4z"/>
				<path d="M74.2,101.4h2v0.4h-1.6v1H76v0.4h-1.4v1.2h1.7v0.4h-2.1V101.4z"/>
				<path d="M77.9,101.4h0.5l1.1,3.3H79l-0.3-1h-1.2l-0.3,1h-0.4L77.9,101.4z M77.6,103.4h1l-0.2-0.5c-0.1-0.4-0.2-0.7-0.3-1.1h0
					c-0.1,0.4-0.2,0.7-0.3,1.1L77.6,103.4z"/>
				<path d="M80,101.4h0.8c1,0,1.5,0.6,1.5,1.6c0,1-0.5,1.7-1.5,1.7H80V101.4z M80.8,104.4c0.8,0,1.1-0.5,1.1-1.3
					c0-0.8-0.4-1.3-1.1-1.3h-0.4v2.6H80.8z"/>
				<path d="M83,102.9h2.2v0.3H83V102.9z"/>
				<path d="M86,101.4h0.5l0.5,1.4l0.2,0.5h0l0.2-0.5l0.5-1.4h0.5v3.3h-0.4v-1.6c0-0.3,0-0.9,0.1-1.2h0l-0.2,0.6l-0.5,1.3h-0.3
					l-0.5-1.3l-0.2-0.6h0c0,0.3,0.1,0.8,0.1,1.2v1.6H86V101.4z"/>
				<path d="M89,104.1c0-0.5,0.5-0.8,1.8-0.9c0-0.3-0.2-0.6-0.6-0.6c-0.3,0-0.6,0.2-0.9,0.3l-0.2-0.3c0.2-0.2,0.7-0.3,1.1-0.3
					c0.7,0,1,0.4,1,1v1.5h-0.3l0-0.3h0c-0.3,0.2-0.6,0.4-1,0.4C89.4,104.8,89,104.5,89,104.1z M90.8,104.1v-0.6
					c-1,0.1-1.4,0.3-1.4,0.6c0,0.3,0.3,0.4,0.5,0.4C90.2,104.5,90.5,104.3,90.8,104.1z"/>
				<path d="M92,104.4l0.2-0.3c0.3,0.2,0.6,0.3,1.1,0.3c0.4,0,0.6-0.2,0.6-0.4c0-0.2-0.1-0.3-0.8-0.5c-0.6-0.1-1-0.3-1-0.7
					c0-0.4,0.3-0.7,1-0.7c0.4,0,0.7,0.1,1,0.3l-0.2,0.3c-0.2-0.2-0.5-0.3-0.8-0.3c-0.4,0-0.6,0.2-0.6,0.3c0,0.2,0.2,0.3,0.7,0.4
					c0.8,0.2,1,0.4,1,0.8c0,0.4-0.4,0.7-1.1,0.7C92.7,104.8,92.2,104.6,92,104.4z"/>
				<path d="M95.6,103.8v-1.2h-0.7v-0.3l0.7,0l0.1-0.8H96v0.8h1.2v0.3H96v1.2c0,0.4,0.1,0.7,0.6,0.7c0.2,0,0.4,0,0.6-0.1l0.1,0.3
					c-0.2,0.1-0.5,0.1-0.8,0.1C95.9,104.8,95.6,104.4,95.6,103.8z"/>
				<path d="M97.9,103.5c0-0.8,0.6-1.3,1.2-1.3c0.7,0,1.1,0.5,1.1,1.1c0,0.1,0,0.2,0,0.3h-1.9c0,0.6,0.4,0.8,0.9,0.8
					c0.3,0,0.5-0.1,0.7-0.2l0.2,0.3c-0.2,0.2-0.6,0.3-0.9,0.3C98.5,104.8,97.9,104.3,97.9,103.5z M98.4,103.3h1.6
					c0-0.5-0.3-0.7-0.7-0.7C98.8,102.6,98.4,102.8,98.4,103.3z"/>
				<path d="M101.3,102.3h0.3l0,0.6h0c0.3-0.4,0.6-0.6,1.1-0.6c0.2,0,0.3,0,0.5,0.1l-0.1,0.4c-0.2-0.1-0.3-0.1-0.5-0.1
					c-0.4,0-0.7,0.2-1,0.7v1.4h-0.4V102.3z"/>
			</g>
		</g>
		<g>
			<g>
				<path d="M156.3,100.2h0.4v2.9h1.6v0.4h-2V100.2z"/>
				<path d="M159,102.3c0-0.8,0.6-1.3,1.2-1.3s1.2,0.5,1.2,1.3c0,0.8-0.6,1.3-1.2,1.3S159,103.1,159,102.3z M160.9,102.3
					c0-0.6-0.3-0.9-0.8-0.9c-0.5,0-0.8,0.4-0.8,0.9c0,0.6,0.3,0.9,0.8,0.9C160.6,103.2,160.9,102.8,160.9,102.3z"/>
				<path d="M162.2,99.9h0.4v2.4h0l1.3-1.3h0.5l-1,1l1.1,1.5h-0.5l-0.9-1.2l-0.6,0.6v0.7h-0.4V99.9z"/>
				<path d="M165.1,102.9c0-0.5,0.5-0.8,1.8-0.9c0-0.3-0.2-0.6-0.6-0.6c-0.3,0-0.6,0.2-0.9,0.3l-0.2-0.3c0.2-0.2,0.7-0.3,1.1-0.3
					c0.7,0,1,0.4,1,1v1.5h-0.3l0-0.3h0c-0.3,0.2-0.6,0.4-1,0.4C165.4,103.5,165.1,103.3,165.1,102.9z M166.8,102.9v-0.6
					c-1,0.1-1.4,0.3-1.4,0.6c0,0.3,0.3,0.4,0.5,0.4C166.3,103.2,166.5,103.1,166.8,102.9z"/>
				<path d="M168.9,102.7v-2.4h-0.8v-0.3h1.2v2.8c0,0.4,0.2,0.5,0.5,0.5c0.1,0,0.3,0,0.5-0.1l0.1,0.3c-0.2,0.1-0.4,0.1-0.7,0.1
					C169.2,103.5,168.9,103.2,168.9,102.7z"/>
			</g>
		</g>
		<g>
			<g>
				<path d="M156,15l0.3-0.3c0.2,0.2,0.6,0.4,1,0.4c0.5,0,0.7-0.2,0.7-0.5c0-0.3-0.3-0.5-0.6-0.6l-0.5-0.2c-0.3-0.1-0.7-0.4-0.7-0.8
					c0-0.5,0.5-0.9,1.1-0.9c0.4,0,0.8,0.2,1,0.4l-0.2,0.3c-0.2-0.2-0.5-0.3-0.8-0.3c-0.4,0-0.6,0.2-0.6,0.5c0,0.3,0.3,0.4,0.6,0.5
					l0.5,0.2c0.4,0.2,0.7,0.4,0.7,0.9c0,0.5-0.4,0.9-1.2,0.9C156.7,15.5,156.3,15.3,156,15z"/>
				<path d="M159,14.2c0-0.8,0.6-1.3,1.2-1.3c0.7,0,1.1,0.5,1.1,1.1c0,0.1,0,0.2,0,0.3h-1.9c0,0.5,0.4,0.8,0.9,0.8
					c0.3,0,0.5-0.1,0.7-0.2l0.2,0.3c-0.2,0.2-0.6,0.3-0.9,0.3C159.6,15.5,159,15,159,14.2z M159.4,14h1.6c0-0.5-0.3-0.7-0.7-0.7
					C159.8,13.2,159.5,13.5,159.4,14z"/>
				<path d="M162.4,13h0.3l0,0.6h0c0.3-0.4,0.6-0.6,1.1-0.6c0.2,0,0.3,0,0.5,0.1l-0.1,0.4c-0.2-0.1-0.3-0.1-0.5-0.1
					c-0.4,0-0.7,0.2-1,0.7v1.4h-0.4V13z"/>
				<path d="M164.9,13h0.4l0.6,1.4c0.1,0.2,0.2,0.5,0.3,0.7h0c0.1-0.2,0.2-0.5,0.3-0.7L167,13h0.4l-1,2.4h-0.5L164.9,13z"/>
				<path d="M168,14.2c0-0.8,0.6-1.3,1.2-1.3c0.7,0,1.1,0.5,1.1,1.1c0,0.1,0,0.2,0,0.3h-1.9c0,0.5,0.4,0.8,0.9,0.8
					c0.3,0,0.5-0.1,0.7-0.2l0.2,0.3c-0.2,0.2-0.6,0.3-0.9,0.3C168.6,15.5,168,15,168,14.2z M168.4,14h1.6c0-0.5-0.3-0.7-0.7-0.7
					C168.8,13.2,168.5,13.5,168.4,14z"/>
				<path d="M171.4,13h0.3l0,0.6h0c0.3-0.4,0.6-0.6,1.1-0.6c0.2,0,0.3,0,0.5,0.1l-0.1,0.4c-0.2-0.1-0.3-0.1-0.5-0.1
					c-0.4,0-0.7,0.2-1,0.7v1.4h-0.4V13z"/>
			</g>
		</g>
		<g>
			<g>
				<path d="M134.9,53h0.3l0,0.3h0c0.2-0.2,0.5-0.4,0.8-0.4c0.7,0,1,0.5,1,1.2c0,0.8-0.5,1.3-1.1,1.3c-0.2,0-0.5-0.1-0.7-0.3h0
					l0,0.5v0.8h-0.4V53z M136.7,54.2c0-0.5-0.2-0.9-0.7-0.9c-0.2,0-0.5,0.1-0.7,0.4v1.2c0.2,0.2,0.5,0.3,0.7,0.3
					C136.4,55.1,136.7,54.8,136.7,54.2z"/>
				<path d="M137.8,54.5V53h0.4v1.5c0,0.5,0.2,0.7,0.6,0.7c0.3,0,0.5-0.1,0.8-0.5V53h0.4v2.4h-0.3l0-0.4h0c-0.2,0.3-0.5,0.5-0.9,0.5
					C138.1,55.5,137.8,55.1,137.8,54.5z"/>
				<path d="M140.8,55.1l0.2-0.3c0.3,0.2,0.6,0.3,1.1,0.3c0.4,0,0.6-0.2,0.6-0.4c0-0.2-0.1-0.3-0.8-0.5c-0.6-0.1-1-0.3-1-0.7
					c0-0.4,0.3-0.7,1-0.7c0.4,0,0.7,0.1,1,0.3l-0.2,0.3c-0.2-0.2-0.5-0.3-0.8-0.3c-0.4,0-0.6,0.2-0.6,0.4c0,0.2,0.2,0.3,0.7,0.4
					c0.8,0.2,1,0.4,1,0.8c0,0.4-0.4,0.7-1.1,0.7C141.5,55.5,141.1,55.3,140.8,55.1z"/>
				<path d="M143.9,51.8h0.4v1l0,0.6h0c0.3-0.3,0.5-0.5,0.9-0.5c0.6,0,0.8,0.3,0.8,1v1.5h-0.4V54c0-0.5-0.2-0.7-0.6-0.7
					c-0.3,0-0.5,0.1-0.8,0.4v1.7h-0.4V51.8z"/>
			</g>
		</g>
		<g>
			<g>
				<path d="M160.2,54.1h0.3l0,0.3h0c0.2-0.2,0.5-0.4,0.8-0.4c0.7,0,1,0.5,1,1.2c0,0.8-0.5,1.3-1.1,1.3c-0.2,0-0.5-0.1-0.7-0.3h0
					l0,0.5v0.8h-0.4V54.1z M162,55.2c0-0.5-0.2-0.9-0.7-0.9c-0.2,0-0.5,0.1-0.7,0.4v1.2c0.2,0.2,0.5,0.3,0.7,0.3
					C161.7,56.2,162,55.8,162,55.2z"/>
				<path d="M163.1,55.6v-1.5h0.4v1.5c0,0.5,0.2,0.7,0.6,0.7c0.3,0,0.5-0.1,0.8-0.5v-1.7h0.4v2.4h-0.3l0-0.4h0
					c-0.2,0.3-0.5,0.5-0.9,0.5C163.4,56.6,163.1,56.2,163.1,55.6z"/>
				<path d="M167,55.7v-2.4h-0.8v-0.3h1.2v2.8c0,0.4,0.2,0.5,0.5,0.5c0.1,0,0.3,0,0.5-0.1l0.1,0.3c-0.2,0.1-0.4,0.1-0.7,0.1
					C167.2,56.6,167,56.3,167,55.7z"/>
				<path d="M170,55.7v-2.4h-0.8v-0.3h1.2v2.8c0,0.4,0.2,0.5,0.5,0.5c0.1,0,0.3,0,0.5-0.1l0.1,0.3c-0.2,0.1-0.4,0.1-0.7,0.1
					C170.2,56.6,170,56.3,170,55.7z"/>
			</g>
		</g>
		<g>
			<g>
				<line class="st33" x1="86.9" y1="31.2" x2="86.9" y2="20.1"/>
				<g>
					<polygon class="st29" points="87.7,30.6 86.9,33.6 86.1,30.6 					"/>
				</g>
			</g>
		</g>
		<g>
			<g>
				<line class="st33" x1="108.8" y1="31.9" x2="116.6" y2="24"/>
				<g>
					<polygon class="st29" points="109.7,32.1 107.1,33.6 108.6,30.9 					"/>
				</g>
			</g>
		</g>
		<g>
			<g>
				<line class="st33" x1="56.1" y1="40.6" x2="67.2" y2="40.6"/>
				<g>
					<polygon class="st29" points="56.6,41.4 53.7,40.6 56.6,39.8 					"/>
				</g>
			</g>
		</g>
		<g>
			<g>
				<line class="st33" x1="86.9" y1="86.8" x2="86.9" y2="89"/>
				<line class="st34" x1="86.9" y1="91.3" x2="86.9" y2="94.6"/>
				<line class="st33" x1="86.9" y1="95.7" x2="86.9" y2="97.9"/>
				<g>
					<polygon class="st29" points="86.1,87.4 86.9,84.4 87.7,87.4 					"/>
				</g>
			</g>
		</g>
		<g>
			<g>
				<line class="st33" x1="56.1" y1="77.4" x2="67.2" y2="77.4"/>
				<g>
					<polygon class="st29" points="56.6,78.2 53.7,77.4 56.6,76.6 					"/>
				</g>
			</g>
		</g>
		<g>
			<g>
				<line class="st33" x1="56.1" y1="77.4" x2="67.2" y2="77.4"/>
				<g>
					<polygon class="st29" points="56.6,78.2 53.7,77.4 56.6,76.6 					"/>
				</g>
			</g>
		</g>
		<rect x="85.4" y="48" class="st29" width="2.9" height="13.1"/>
		<polygon class="st29" points="81.8,61 86.9,70 92.1,61 		"/>
		<g>
			<g>
				<line class="st33" x1="155.6" y1="50.2" x2="155.6" y2="61.3"/>
				<g>
					<polygon class="st29" points="154.8,50.7 155.6,47.7 156.5,50.7 					"/>
				</g>
			</g>
		</g>
		<g>
			<g>
				<line class="st35" x1="151" y1="58" x2="151" y2="47.7"/>
				<g>
					<polygon class="st29" points="152,57.3 151,61.3 149.9,57.3 					"/>
				</g>
			</g>
		</g>
	</g>
</g>
<g id="vorlage">
</g>
</svg>
