<?xml version="1.0" encoding="utf-8"?>
<!-- Generator: Adobe Illustrator 24.2.3, SVG Export Plug-In . SVG Version: 6.00 Build 0)  -->
<svg version="1.1" xmlns="http://www.w3.org/2000/svg" xmlns:xlink="http://www.w3.org/1999/xlink" x="0px" y="0px"
	 viewBox="0 0 190 118" style="enable-background:new 0 0 190 118;" xml:space="preserve">
<style type="text/css">
	.st0{fill:none;stroke:#999999;stroke-miterlimit:10;}
	.st1{fill:none;stroke:#999999;stroke-width:0.6034;stroke-miterlimit:10;}
	.st2{fill:#F2F2F2;stroke:#999999;stroke-miterlimit:10;}
	.st3{fill:#1F69B2;stroke:#999999;stroke-miterlimit:10;}
	.st4{fill:#B8D7E9;stroke:#999999;stroke-miterlimit:10;}
	.st5{fill:#4D4D4D;stroke:#999999;stroke-miterlimit:10;}
	.st6{fill:#1B8FCF;}
	.st7{display:none;fill:none;stroke:#999999;stroke-miterlimit:10;}
	.st8{fill:#1F69B2;}
	.st9{fill:none;stroke:#E3051C;stroke-width:2;stroke-miterlimit:10;}
	.st10{fill:#F2F2F2;stroke:#E3051C;stroke-width:0.9085;stroke-miterlimit:10;}
	.st11{fill:none;stroke:#4D4D4D;stroke-miterlimit:10;}
	.st12{fill:#1B8FCF;stroke:#4D4D4D;stroke-miterlimit:10;}
	.st13{fill:#A14794;stroke:#4D4D4D;stroke-miterlimit:10;}
	.st14{fill:none;stroke:#333333;stroke-miterlimit:10;}
	.st15{fill:none;stroke:#CCCCCC;stroke-miterlimit:10;}
	.st16{fill:none;stroke:#000000;stroke-miterlimit:10;stroke-dasharray:7.9394;}
	.st17{fill:none;stroke:#CCCCCC;stroke-miterlimit:10;stroke-dasharray:7.9394;}
	.st18{fill:#CCCCCC;}
	.st19{fill:#4D4D4D;}
	.st20{fill:none;stroke:#4D4D4D;stroke-width:0.9214;stroke-miterlimit:10;}
	.st21{fill:none;stroke:#CCCCCC;stroke-miterlimit:10;stroke-dasharray:8.9189,8.9189;}
	.st22{fill:none;stroke:#CCCCCC;stroke-miterlimit:10;stroke-dasharray:8.6923,8.6923;}
	.st23{fill:none;stroke:#CCCCCC;stroke-width:0.7312;stroke-miterlimit:10;}
	.st24{fill:none;stroke:#CCCCCC;stroke-width:0.7312;stroke-miterlimit:10;stroke-dasharray:6.7563,6.7563;}
	.st25{fill:none;stroke:#CCCCCC;stroke-width:0.7312;stroke-miterlimit:10;stroke-dasharray:6.4952,6.4952;}
	.st26{fill:none;stroke:#000000;stroke-width:0.8428;stroke-miterlimit:10;}
	.st27{fill:none;stroke:#000000;stroke-width:0.8428;stroke-miterlimit:10;stroke-dasharray:5.0598,5.0598;}
	.st28{fill:none;stroke:#D20A11;stroke-width:0.4214;stroke-miterlimit:10;}
	.st29{fill:#D20A11;}
	.st30{fill:none;stroke:#000000;stroke-width:0.7806;stroke-miterlimit:10;}
	.st31{fill:none;stroke:#D20A11;stroke-width:0.3903;stroke-miterlimit:10;}
	.st32{fill:none;stroke:#000000;stroke-width:0.7352;stroke-miterlimit:10;}
	.st33{fill:none;stroke:#D20A11;stroke-width:0.2757;stroke-miterlimit:10;}
	.st34{fill:none;stroke:#D20A11;stroke-width:0.2757;stroke-miterlimit:10;stroke-dasharray:2.2307,2.2307;}
	.st35{fill:none;stroke:#D20A11;stroke-width:0.3676;stroke-miterlimit:10;}
	.st36{fill:none;stroke:#000000;stroke-miterlimit:10;}
	.st37{fill:none;stroke:#000000;stroke-miterlimit:10;stroke-dasharray:13.0413,13.0413;}
	.st38{fill:none;stroke:#000000;stroke-miterlimit:10;stroke-dasharray:6,6;}
	.st39{fill:none;stroke:#D20A11;stroke-width:3;stroke-miterlimit:10;}
	.st40{fill:none;stroke:#D20A11;stroke-width:3;stroke-miterlimit:10;stroke-dasharray:9.4727,9.4727;}
</style>
<g id="work">
	<g id="Workflows">
	</g>
	<g id="Rueckgaengig">
	</g>
	<g id="Wiederherstellen">
	</g>
	<g id="Reset-Revert">
	</g>
	<g id="Parallel_2_">
		<ellipse class="st30" cx="97.8" cy="58.2" rx="18.7" ry="5.2"/>
		<ellipse class="st30" cx="41.7" cy="58.2" rx="18.7" ry="5.2"/>
		<ellipse class="st30" cx="147.3" cy="76.8" rx="18.7" ry="5.2"/>
		<ellipse class="st30" cx="147.3" cy="40.9" rx="18.7" ry="5.2"/>
		<rect x="128.4" y="9.5" class="st30" width="37.7" height="7.3"/>
		<rect x="129.4" y="101.2" class="st30" width="37.7" height="7.3"/>
		<ellipse class="st30" cx="97.8" cy="58.2" rx="18.7" ry="5.2"/>
		<ellipse class="st30" cx="41.7" cy="58.2" rx="18.7" ry="5.2"/>
		<ellipse class="st30" cx="147.3" cy="76.8" rx="18.7" ry="5.2"/>
		<ellipse class="st30" cx="147.3" cy="40.9" rx="18.7" ry="5.2"/>
		<rect x="128.4" y="9.5" class="st30" width="37.7" height="7.3"/>
		<rect x="129.4" y="101.2" class="st30" width="37.7" height="7.3"/>
		<ellipse class="st30" cx="97.8" cy="58.2" rx="18.7" ry="5.2"/>
		<ellipse class="st30" cx="41.7" cy="58.2" rx="18.7" ry="5.2"/>
		<ellipse class="st30" cx="147.3" cy="76.8" rx="18.7" ry="5.2"/>
		<ellipse class="st30" cx="147.3" cy="40.9" rx="18.7" ry="5.2"/>
		<rect x="128.4" y="9.5" class="st30" width="37.7" height="7.3"/>
		<rect x="129.4" y="101.2" class="st30" width="37.7" height="7.3"/>
		<ellipse class="st30" cx="97.8" cy="58.2" rx="18.7" ry="5.2"/>
		<ellipse class="st30" cx="41.7" cy="58.2" rx="18.7" ry="5.2"/>
		<ellipse class="st30" cx="147.3" cy="76.8" rx="18.7" ry="5.2"/>
		<ellipse class="st30" cx="147.3" cy="40.9" rx="18.7" ry="5.2"/>
		<rect x="128.4" y="9.5" class="st30" width="37.7" height="7.3"/>
		<rect x="129.4" y="101.2" class="st30" width="37.7" height="7.3"/>
		<g>
			<g>
				<path d="M132.4,11.4h2v0.4h-1.6v1h1.4v0.4h-1.4v1.2h1.7v0.4h-2.1V11.4z"/>
				<path d="M135.3,12.3h0.3l0,0.4h0c0.3-0.3,0.5-0.5,0.9-0.5c0.6,0,0.8,0.3,0.8,1v1.5H137v-1.5c0-0.5-0.2-0.7-0.6-0.7
					c-0.3,0-0.5,0.1-0.8,0.4v1.7h-0.4V12.3z"/>
				<path d="M138.9,13.8v-1.2h-0.7v-0.3l0.7,0l0.1-0.8h0.3v0.8h1.2v0.3h-1.2v1.2c0,0.4,0.1,0.7,0.6,0.7c0.2,0,0.4,0,0.6-0.1l0.1,0.3
					c-0.2,0.1-0.5,0.1-0.8,0.1C139.1,14.8,138.9,14.4,138.9,13.8z"/>
				<path d="M140.9,12.3h0.4l0.3,1.4c0,0.2,0.1,0.4,0.1,0.7h0c0-0.2,0.1-0.4,0.1-0.7l0.3-1.3h0.4l0.3,1.3c0.1,0.2,0.1,0.4,0.2,0.7h0
					c0-0.2,0.1-0.4,0.1-0.7l0.3-1.4h0.4l-0.5,2.4h-0.5l-0.3-1.2c0-0.2-0.1-0.4-0.1-0.7h0c0,0.3-0.1,0.6-0.1,0.7l-0.3,1.2h-0.5
					L140.9,12.3z"/>
				<path d="M145.4,12.6h-1.1v-0.3h1.5v2.4h-0.4V12.6z M145.2,11.4c0-0.2,0.1-0.3,0.3-0.3c0.2,0,0.3,0.1,0.3,0.3
					c0,0.2-0.1,0.3-0.3,0.3C145.4,11.8,145.2,11.6,145.2,11.4z"/>
				<path d="M147.2,13.5c0-0.8,0.6-1.3,1.4-1.3c0.4,0,0.7,0.2,0.9,0.4l-0.2,0.3c-0.2-0.2-0.4-0.3-0.7-0.3c-0.6,0-0.9,0.4-0.9,0.9
					c0,0.6,0.4,0.9,0.9,0.9c0.3,0,0.6-0.1,0.8-0.3l0.2,0.3c-0.3,0.2-0.6,0.4-1,0.4C147.8,14.8,147.2,14.3,147.2,13.5z"/>
				<path d="M150.4,11.1h0.4v2.4h0l1.3-1.3h0.5l-1,1l1.1,1.5h-0.5l-0.9-1.2l-0.6,0.6v0.7h-0.4V11.1z"/>
				<path d="M154.1,13.9v-2.4h-0.8v-0.3h1.2v2.8c0,0.4,0.2,0.5,0.5,0.5c0.1,0,0.3,0,0.5-0.1l0.1,0.3c-0.2,0.1-0.4,0.1-0.7,0.1
					C154.4,14.8,154.1,14.5,154.1,13.9z"/>
				<path d="M156.2,13.8v-1.5h0.4v1.5c0,0.5,0.2,0.7,0.6,0.7c0.3,0,0.5-0.1,0.8-0.5v-1.7h0.4v2.4H158l0-0.4h0
					c-0.2,0.3-0.5,0.5-0.9,0.5C156.5,14.8,156.2,14.4,156.2,13.8z"/>
				<path d="M159.3,12.3h0.3l0,0.4h0c0.3-0.3,0.5-0.5,0.9-0.5c0.6,0,0.8,0.3,0.8,1v1.5H161v-1.5c0-0.5-0.2-0.7-0.6-0.7
					c-0.3,0-0.5,0.1-0.8,0.4v1.7h-0.4V12.3z"/>
				<path d="M162.2,15.2c0-0.2,0.1-0.4,0.4-0.5v0c-0.1-0.1-0.3-0.2-0.3-0.4c0-0.2,0.1-0.3,0.3-0.5v0c-0.2-0.1-0.3-0.3-0.3-0.6
					c0-0.5,0.4-0.9,1-0.9c0.1,0,0.3,0,0.4,0.1h1v0.3H164c0.1,0.1,0.2,0.3,0.2,0.5c0,0.5-0.4,0.8-0.9,0.8c-0.1,0-0.3,0-0.4-0.1
					c-0.1,0.1-0.2,0.2-0.2,0.3c0,0.2,0.2,0.3,0.5,0.3h0.5c0.6,0,0.9,0.2,0.9,0.6c0,0.5-0.5,0.9-1.4,0.9
					C162.6,15.8,162.2,15.6,162.2,15.2z M164.3,15c0-0.2-0.2-0.3-0.6-0.3h-0.5c-0.1,0-0.3,0-0.4,0c-0.2,0.1-0.3,0.3-0.3,0.4
					c0,0.3,0.3,0.4,0.8,0.4C163.9,15.5,164.3,15.3,164.3,15z M163.8,13.1c0-0.3-0.3-0.6-0.6-0.6c-0.3,0-0.6,0.2-0.6,0.6
					c0,0.4,0.3,0.6,0.6,0.6C163.6,13.7,163.8,13.4,163.8,13.1z"/>
			</g>
		</g>
		<g>
			<g>
				<path d="M133.5,102.9h0.4v1.4h1.4v-1.4h0.4v3.3h-0.4v-1.5H134v1.5h-0.4V102.9z"/>
				<path d="M136.7,102.9h2v0.4h-1.6v1h1.4v0.4h-1.4v1.2h1.7v0.4h-2.1V102.9z"/>
				<path d="M140.4,102.9h0.5l1.1,3.3h-0.4l-0.3-1H140l-0.3,1h-0.4L140.4,102.9z M140.1,104.9h1l-0.2-0.5c-0.1-0.4-0.2-0.7-0.3-1.1
					h0c-0.1,0.4-0.2,0.7-0.3,1.1L140.1,104.9z"/>
				<path d="M142.6,102.9h0.8c1,0,1.5,0.6,1.5,1.6c0,1-0.5,1.7-1.5,1.7h-0.8V102.9z M143.4,105.9c0.8,0,1.1-0.5,1.1-1.3
					c0-0.8-0.4-1.3-1.1-1.3H143v2.6H143.4z"/>
				<path d="M145.6,104.4h2.2v0.3h-2.2V104.4z"/>
				<path d="M148.5,102.9h0.5l0.5,1.4l0.2,0.5h0l0.2-0.5l0.5-1.4h0.5v3.3h-0.4v-1.6c0-0.3,0-0.9,0.1-1.2h0l-0.2,0.6l-0.5,1.3h-0.3
					l-0.5-1.3l-0.2-0.6h0c0,0.3,0.1,0.8,0.1,1.2v1.6h-0.4V102.9z"/>
				<path d="M151.5,105.6c0-0.5,0.5-0.8,1.8-0.9c0-0.3-0.2-0.6-0.6-0.6c-0.3,0-0.6,0.2-0.9,0.3l-0.2-0.3c0.2-0.2,0.7-0.4,1.1-0.4
					c0.7,0,1,0.4,1,1v1.5h-0.3l0-0.3h0c-0.3,0.2-0.6,0.4-1,0.4C151.9,106.3,151.5,106,151.5,105.6z M153.3,105.6V105
					c-1,0.1-1.4,0.3-1.4,0.6c0,0.3,0.3,0.4,0.5,0.4C152.8,106,153,105.8,153.3,105.6z"/>
				<path d="M154.5,105.9l0.2-0.3c0.3,0.2,0.6,0.3,1.1,0.3c0.4,0,0.6-0.2,0.6-0.4c0-0.2-0.1-0.3-0.8-0.5c-0.6-0.1-1-0.3-1-0.7
					c0-0.4,0.3-0.7,1-0.7c0.4,0,0.7,0.1,1,0.3l-0.2,0.3c-0.2-0.2-0.5-0.3-0.8-0.3c-0.4,0-0.6,0.2-0.6,0.4c0,0.2,0.2,0.3,0.7,0.4
					c0.8,0.2,1,0.4,1,0.8c0,0.4-0.4,0.7-1.1,0.7C155.2,106.3,154.8,106.1,154.5,105.9z"/>
				<path d="M158.2,105.3v-1.2h-0.7v-0.3l0.7,0l0.1-0.8h0.3v0.8h1.2v0.3h-1.2v1.2c0,0.4,0.1,0.7,0.6,0.7c0.2,0,0.4,0,0.6-0.1
					l0.1,0.3c-0.2,0.1-0.5,0.1-0.8,0.1C158.4,106.3,158.2,105.9,158.2,105.3z"/>
				<path d="M160.5,105c0-0.8,0.6-1.3,1.2-1.3c0.7,0,1.1,0.5,1.1,1.1c0,0.1,0,0.2,0,0.3h-1.9c0,0.5,0.4,0.8,0.9,0.8
					c0.3,0,0.5-0.1,0.7-0.2l0.2,0.3c-0.2,0.2-0.6,0.3-0.9,0.3C161.1,106.3,160.5,105.8,160.5,105z M160.9,104.8h1.6
					c0-0.5-0.3-0.7-0.7-0.7C161.3,104.1,161,104.3,160.9,104.8z"/>
				<path d="M163.9,103.8h0.3l0,0.6h0c0.3-0.4,0.6-0.6,1.1-0.6c0.2,0,0.3,0,0.5,0.1l-0.1,0.4c-0.2-0.1-0.3-0.1-0.5-0.1
					c-0.4,0-0.7,0.2-1,0.7v1.4h-0.4V103.8z"/>
			</g>
		</g>
		<g>
			<g>
				<path d="M29.2,57.6c0-1.1,0.6-1.7,1.5-1.7c0.4,0,0.7,0.2,0.9,0.4l-0.2,0.3c-0.2-0.2-0.4-0.3-0.7-0.3c-0.6,0-1,0.5-1,1.3
					c0,0.8,0.4,1.3,1,1.3c0.3,0,0.5-0.1,0.7-0.4l0.2,0.3c-0.3,0.3-0.6,0.5-1,0.5C29.8,59.3,29.2,58.7,29.2,57.6z"/>
				<path d="M32.2,58c0-0.8,0.6-1.3,1.2-1.3s1.2,0.5,1.2,1.3c0,0.8-0.6,1.3-1.2,1.3S32.2,58.9,32.2,58z M34.1,58
					c0-0.6-0.3-0.9-0.8-0.9c-0.5,0-0.8,0.4-0.8,0.9c0,0.6,0.3,0.9,0.8,0.9C33.8,59,34.1,58.6,34.1,58z"/>
				<path d="M35.2,56.8h0.3l0,0.3h0c0.1-0.2,0.3-0.4,0.6-0.4c0.2,0,0.4,0.1,0.5,0.4c0.1-0.3,0.3-0.4,0.6-0.4c0.3,0,0.5,0.3,0.5,0.8
					v1.7h-0.4v-1.7c0-0.3-0.1-0.4-0.3-0.4c-0.2,0-0.3,0.1-0.4,0.4v1.8h-0.4v-1.7c0-0.3-0.1-0.4-0.3-0.4c-0.2,0-0.3,0.1-0.4,0.4v1.8
					h-0.4V56.8z"/>
				<path d="M38.2,56.8h0.3l0,0.3h0c0.1-0.2,0.3-0.4,0.6-0.4c0.2,0,0.4,0.1,0.5,0.4c0.1-0.3,0.3-0.4,0.6-0.4c0.3,0,0.5,0.3,0.5,0.8
					v1.7h-0.4v-1.7c0-0.3-0.1-0.4-0.3-0.4c-0.2,0-0.3,0.1-0.4,0.4v1.8h-0.4v-1.7c0-0.3-0.1-0.4-0.3-0.4c-0.2,0-0.3,0.1-0.4,0.4v1.8
					h-0.4V56.8z"/>
				<path d="M42.4,57.2h-1.1v-0.3h1.5v2.4h-0.4V57.2z M42.3,56c0-0.2,0.1-0.3,0.3-0.3c0.2,0,0.3,0.1,0.3,0.3c0,0.2-0.1,0.3-0.3,0.3
					C42.4,56.3,42.3,56.2,42.3,56z"/>
				<path d="M44.9,58.3v-1.2h-0.7v-0.3l0.7,0L45,56h0.3v0.8h1.2v0.3h-1.2v1.2c0,0.4,0.1,0.7,0.6,0.7c0.2,0,0.4,0,0.6-0.1l0.1,0.3
					c-0.2,0.1-0.5,0.1-0.8,0.1C45.1,59.3,44.9,58.9,44.9,58.3z"/>
				<path d="M50.4,58.9h0.9v-2.4h-0.7v-0.3c0.3,0,0.6-0.1,0.8-0.2h0.3v2.9h0.8v0.3h-2.1V58.9z"/>
			</g>
		</g>
		<g>
			<g>
				<path d="M86.6,57.9c0-1.1,0.6-1.7,1.5-1.7c0.4,0,0.7,0.2,0.9,0.4l-0.2,0.3c-0.2-0.2-0.4-0.3-0.7-0.3c-0.6,0-1,0.5-1,1.3
					c0,0.8,0.4,1.3,1,1.3c0.3,0,0.5-0.1,0.7-0.4l0.2,0.3c-0.3,0.3-0.6,0.5-1,0.5C87.2,59.6,86.6,59,86.6,57.9z"/>
				<path d="M89.5,58.3c0-0.8,0.6-1.3,1.2-1.3s1.2,0.5,1.2,1.3c0,0.8-0.6,1.3-1.2,1.3S89.5,59.1,89.5,58.3z M91.5,58.3
					c0-0.6-0.3-0.9-0.8-0.9c-0.5,0-0.8,0.4-0.8,0.9c0,0.6,0.3,0.9,0.8,0.9C91.2,59.2,91.5,58.9,91.5,58.3z"/>
				<path d="M92.5,57.1h0.3l0,0.3h0c0.1-0.2,0.3-0.4,0.6-0.4c0.2,0,0.4,0.1,0.5,0.4c0.1-0.3,0.3-0.4,0.6-0.4c0.3,0,0.5,0.3,0.5,0.8
					v1.7h-0.4v-1.7c0-0.3-0.1-0.4-0.3-0.4c-0.2,0-0.3,0.1-0.4,0.4v1.8h-0.4v-1.7c0-0.3-0.1-0.4-0.3-0.4c-0.2,0-0.3,0.1-0.4,0.4v1.8
					h-0.4V57.1z"/>
				<path d="M95.5,57.1h0.3l0,0.3h0c0.1-0.2,0.3-0.4,0.6-0.4c0.2,0,0.4,0.1,0.5,0.4c0.1-0.3,0.3-0.4,0.6-0.4c0.3,0,0.5,0.3,0.5,0.8
					v1.7h-0.4v-1.7c0-0.3-0.1-0.4-0.3-0.4c-0.2,0-0.3,0.1-0.4,0.4v1.8h-0.4v-1.7c0-0.3-0.1-0.4-0.3-0.4c-0.2,0-0.3,0.1-0.4,0.4v1.8
					h-0.4V57.1z"/>
				<path d="M99.8,57.4h-1.1v-0.3h1.5v2.4h-0.4V57.4z M99.7,56.3c0-0.2,0.1-0.3,0.3-0.3c0.2,0,0.3,0.1,0.3,0.3
					c0,0.2-0.1,0.3-0.3,0.3C99.8,56.6,99.7,56.5,99.7,56.3z"/>
				<path d="M102.3,58.6v-1.2h-0.7v-0.3l0.7,0l0.1-0.8h0.3v0.8h1.2v0.3h-1.2v1.2c0,0.4,0.1,0.7,0.6,0.7c0.2,0,0.4,0,0.6-0.1l0.1,0.3
					c-0.2,0.1-0.5,0.1-0.8,0.1C102.5,59.6,102.3,59.2,102.3,58.6z"/>
				<path d="M107.6,59.3c1.1-1,1.7-1.5,1.7-2c0-0.4-0.2-0.6-0.7-0.6c-0.3,0-0.6,0.2-0.8,0.4l-0.2-0.2c0.3-0.3,0.6-0.5,1.1-0.5
					c0.6,0,1,0.4,1,0.9c0,0.6-0.6,1.2-1.5,2c0.2,0,0.4,0,0.6,0h1.1v0.4h-2.2V59.3z"/>
			</g>
		</g>
		<g>
			<g>
				<path d="M136.1,76.5c0-1.1,0.6-1.7,1.5-1.7c0.4,0,0.7,0.2,0.9,0.4l-0.2,0.3c-0.2-0.2-0.4-0.3-0.7-0.3c-0.6,0-1,0.5-1,1.3
					c0,0.8,0.4,1.3,1,1.3c0.3,0,0.5-0.1,0.7-0.4l0.2,0.3c-0.3,0.3-0.6,0.5-1,0.5C136.7,78.2,136.1,77.6,136.1,76.5z"/>
				<path d="M139,76.9c0-0.8,0.6-1.3,1.2-1.3s1.2,0.5,1.2,1.3c0,0.8-0.6,1.3-1.2,1.3S139,77.7,139,76.9z M141,76.9
					c0-0.6-0.3-0.9-0.8-0.9c-0.5,0-0.8,0.4-0.8,0.9c0,0.6,0.3,0.9,0.8,0.9C140.7,77.9,141,77.5,141,76.9z"/>
				<path d="M142,75.7h0.3l0,0.3h0c0.1-0.2,0.3-0.4,0.6-0.4c0.2,0,0.4,0.1,0.5,0.4c0.1-0.3,0.3-0.4,0.6-0.4c0.3,0,0.5,0.3,0.5,0.8
					v1.7h-0.4v-1.7c0-0.3-0.1-0.4-0.3-0.4c-0.2,0-0.3,0.1-0.4,0.4v1.8h-0.4v-1.7c0-0.3-0.1-0.4-0.3-0.4c-0.2,0-0.3,0.1-0.4,0.4v1.8
					H142V75.7z"/>
				<path d="M145,75.7h0.3l0,0.3h0c0.1-0.2,0.3-0.4,0.6-0.4c0.2,0,0.4,0.1,0.5,0.4c0.1-0.3,0.3-0.4,0.6-0.4c0.3,0,0.5,0.3,0.5,0.8
					v1.7h-0.4v-1.7c0-0.3-0.1-0.4-0.3-0.4c-0.2,0-0.3,0.1-0.4,0.4v1.8h-0.4v-1.7c0-0.3-0.1-0.4-0.3-0.4c-0.2,0-0.3,0.1-0.4,0.4v1.8
					H145V75.7z"/>
				<path d="M149.3,76h-1.1v-0.3h1.5v2.4h-0.4V76z M149.2,74.9c0-0.2,0.1-0.3,0.3-0.3c0.2,0,0.3,0.1,0.3,0.3c0,0.2-0.1,0.3-0.3,0.3
					C149.3,75.2,149.2,75.1,149.2,74.9z"/>
				<path d="M151.8,77.2V76h-0.7v-0.3l0.7,0l0.1-0.8h0.3v0.8h1.2V76h-1.2v1.2c0,0.4,0.1,0.7,0.6,0.7c0.2,0,0.4,0,0.6-0.1l0.1,0.3
					c-0.2,0.1-0.5,0.1-0.8,0.1C152,78.2,151.8,77.8,151.8,77.2z"/>
				<path d="M157,77.7l0.2-0.3c0.2,0.2,0.5,0.4,0.9,0.4c0.4,0,0.8-0.2,0.8-0.6c0-0.4-0.3-0.6-1.2-0.6v-0.3c0.8,0,1-0.3,1-0.6
					c0-0.3-0.3-0.5-0.7-0.5c-0.3,0-0.6,0.1-0.8,0.3l-0.2-0.3c0.3-0.2,0.6-0.4,1-0.4c0.6,0,1.1,0.3,1.1,0.8c0,0.4-0.3,0.6-0.7,0.8v0
					c0.4,0.1,0.8,0.4,0.8,0.8c0,0.6-0.5,0.9-1.2,0.9C157.6,78.2,157.3,78,157,77.7z"/>
			</g>
		</g>
		<g>
			<g>
				<path d="M136.8,40.3c0-1.1,0.6-1.7,1.5-1.7c0.4,0,0.7,0.2,0.9,0.4l-0.2,0.3c-0.2-0.2-0.4-0.3-0.7-0.3c-0.6,0-1,0.5-1,1.3
					c0,0.8,0.4,1.3,1,1.3c0.3,0,0.5-0.1,0.7-0.4l0.2,0.3c-0.3,0.3-0.6,0.5-1,0.5C137.4,42,136.8,41.4,136.8,40.3z"/>
				<path d="M139.8,40.7c0-0.8,0.6-1.3,1.2-1.3s1.2,0.5,1.2,1.3c0,0.8-0.6,1.3-1.2,1.3S139.8,41.5,139.8,40.7z M141.8,40.7
					c0-0.6-0.3-0.9-0.8-0.9c-0.5,0-0.8,0.4-0.8,0.9c0,0.6,0.3,0.9,0.8,0.9C141.5,41.7,141.8,41.3,141.8,40.7z"/>
				<path d="M142.8,39.5h0.3l0,0.3h0c0.1-0.2,0.3-0.4,0.6-0.4c0.2,0,0.4,0.1,0.5,0.4c0.1-0.3,0.3-0.4,0.6-0.4c0.3,0,0.5,0.3,0.5,0.8
					v1.7h-0.4v-1.7c0-0.3-0.1-0.4-0.3-0.4c-0.2,0-0.3,0.1-0.4,0.4v1.8h-0.4v-1.7c0-0.3-0.1-0.4-0.3-0.4c-0.2,0-0.3,0.1-0.4,0.4v1.8
					h-0.4V39.5z"/>
				<path d="M145.8,39.5h0.3l0,0.3h0c0.1-0.2,0.3-0.4,0.6-0.4c0.2,0,0.4,0.1,0.5,0.4c0.1-0.3,0.3-0.4,0.6-0.4c0.3,0,0.5,0.3,0.5,0.8
					v1.7h-0.4v-1.7c0-0.3-0.1-0.4-0.3-0.4c-0.2,0-0.3,0.1-0.4,0.4v1.8h-0.4v-1.7c0-0.3-0.1-0.4-0.3-0.4c-0.2,0-0.3,0.1-0.4,0.4v1.8
					h-0.4V39.5z"/>
				<path d="M150.1,39.8h-1.1v-0.3h1.5v2.4h-0.4V39.8z M149.9,38.7c0-0.2,0.1-0.3,0.3-0.3c0.2,0,0.3,0.1,0.3,0.3
					c0,0.2-0.1,0.3-0.3,0.3C150,39,149.9,38.9,149.9,38.7z"/>
				<path d="M152.5,41v-1.2h-0.7v-0.3l0.7,0l0.1-0.8h0.3v0.8h1.2v0.3h-1.2V41c0,0.4,0.1,0.7,0.6,0.7c0.2,0,0.4,0,0.6-0.1l0.1,0.3
					c-0.2,0.1-0.5,0.1-0.8,0.1C152.7,42,152.5,41.6,152.5,41z"/>
				<path d="M159.3,41.1h-1.6v-0.3l1.6-2h0.4v2h0.5v0.3h-0.5v0.9h-0.4V41.1z M159.3,40.7v-1c0-0.2,0-0.4,0-0.6h0
					c-0.1,0.2-0.2,0.3-0.3,0.5l-0.9,1.1H159.3z"/>
			</g>
		</g>
		<g>
			<g>
				<line class="st31" x1="147.3" y1="30" x2="147.3" y2="19.1"/>
				<g>
					<polygon class="st29" points="148.4,29.2 147.3,33.5 146.2,29.2 					"/>
				</g>
			</g>
		</g>
		<g>
			<g>
				<line class="st31" x1="147.3" y1="87.8" x2="147.3" y2="98.8"/>
				<g>
					<polygon class="st29" points="146.2,88.6 147.3,84.4 148.4,88.6 					"/>
				</g>
			</g>
		</g>
		<g>
			<g>
				<line class="st31" x1="66" y1="58.2" x2="76.9" y2="58.2"/>
				<g>
					<polygon class="st29" points="66.8,59.3 62.5,58.2 66.8,57 					"/>
				</g>
			</g>
		</g>
		<g>
			<g>
				<line class="st31" x1="118.6" y1="51.3" x2="126.3" y2="43.5"/>
				<g>
					<polygon class="st29" points="119.9,51.5 116.1,53.7 118.3,49.9 					"/>
				</g>
			</g>
		</g>
		<g>
			<g>
				<line class="st31" x1="118.6" y1="65.8" x2="126.3" y2="73.5"/>
				<g>
					<polygon class="st29" points="118.3,67.1 116.1,63.3 119.9,65.5 					"/>
				</g>
			</g>
		</g>
	</g>
</g>
<g id="vorlage">
</g>
</svg>
