<?xml version="1.0" encoding="utf-8"?>
<!-- Generator: Adobe Illustrator 24.2.3, SVG Export Plug-In . SVG Version: 6.00 Build 0)  -->
<svg version="1.1" xmlns="http://www.w3.org/2000/svg" xmlns:xlink="http://www.w3.org/1999/xlink" x="0px" y="0px"
	 viewBox="0 0 340 123" style="enable-background:new 0 0 340 123;" xml:space="preserve">
<style type="text/css">
	.st0{fill:none;stroke:#999999;stroke-miterlimit:10;}
	.st1{fill:none;stroke:#999999;stroke-width:0.6034;stroke-miterlimit:10;}
	.st2{fill:#F2F2F2;stroke:#999999;stroke-miterlimit:10;}
	.st3{fill:#1F69B2;stroke:#999999;stroke-miterlimit:10;}
	.st4{fill:#B8D7E9;stroke:#999999;stroke-miterlimit:10;}
	.st5{fill:#4D4D4D;stroke:#999999;stroke-miterlimit:10;}
	.st6{fill:#1B8FCF;}
	.st7{display:none;fill:none;stroke:#999999;stroke-miterlimit:10;}
	.st8{fill:#1F69B2;}
	.st9{fill:none;stroke:#E3051C;stroke-width:2;stroke-miterlimit:10;}
	.st10{fill:#F2F2F2;stroke:#E3051C;stroke-width:0.9085;stroke-miterlimit:10;}
	.st11{fill:none;stroke:#4D4D4D;stroke-miterlimit:10;}
	.st12{fill:#1B8FCF;stroke:#4D4D4D;stroke-miterlimit:10;}
	.st13{fill:#A14794;stroke:#4D4D4D;stroke-miterlimit:10;}
	.st14{fill:none;stroke:#333333;stroke-miterlimit:10;}
	.st15{fill:none;stroke:#CCCCCC;stroke-miterlimit:10;}
	.st16{fill:none;stroke:#000000;stroke-miterlimit:10;stroke-dasharray:7.9394;}
	.st17{fill:none;stroke:#CCCCCC;stroke-miterlimit:10;stroke-dasharray:7.9394;}
	.st18{fill:#CCCCCC;}
	.st19{fill:#4D4D4D;}
	.st20{fill:none;stroke:#4D4D4D;stroke-width:0.9214;stroke-miterlimit:10;}
	.st21{fill:none;}
	.st22{fill:none;stroke:#CCCCCC;stroke-miterlimit:10;stroke-dasharray:8.9189,8.9189;}
	.st23{fill:none;stroke:#CCCCCC;stroke-miterlimit:10;stroke-dasharray:8.6923,8.6923;}
	.st24{fill:none;stroke:#CCCCCC;stroke-width:0.7312;stroke-miterlimit:10;}
	.st25{fill:none;stroke:#CCCCCC;stroke-width:0.7312;stroke-miterlimit:10;stroke-dasharray:6.7563,6.7563;}
	.st26{fill:none;stroke:#CCCCCC;stroke-width:0.7312;stroke-miterlimit:10;stroke-dasharray:6.4952,6.4952;}
	.st27{fill:none;stroke:#000000;stroke-width:0.8428;stroke-miterlimit:10;}
	.st28{fill:none;stroke:#000000;stroke-width:0.8428;stroke-miterlimit:10;stroke-dasharray:5.0598,5.0598;}
	.st29{fill:none;stroke:#D20A11;stroke-width:0.4214;stroke-miterlimit:10;}
	.st30{fill:#D20A11;}
	.st31{fill:none;stroke:#000000;stroke-width:0.7806;stroke-miterlimit:10;}
	.st32{fill:none;stroke:#D20A11;stroke-width:0.3903;stroke-miterlimit:10;}
	.st33{fill:none;stroke:#000000;stroke-width:0.7352;stroke-miterlimit:10;}
	.st34{fill:none;stroke:#D20A11;stroke-width:0.2757;stroke-miterlimit:10;}
	.st35{fill:none;stroke:#D20A11;stroke-width:0.2757;stroke-miterlimit:10;stroke-dasharray:2.2307,2.2307;}
	.st36{fill:none;stroke:#D20A11;stroke-width:0.3676;stroke-miterlimit:10;}
	.st37{fill:none;stroke:#000000;stroke-miterlimit:10;}
	.st38{fill:none;stroke:#000000;stroke-miterlimit:10;stroke-dasharray:13.0413,13.0413;}
	.st39{fill:none;stroke:#000000;stroke-miterlimit:10;stroke-dasharray:6,6;}
	.st40{fill:none;stroke:#D20A11;stroke-width:3;stroke-miterlimit:10;}
	.st41{fill:none;stroke:#D20A11;stroke-width:3;stroke-miterlimit:10;stroke-dasharray:9.4727,9.4727;}
</style>
<g id="work">
	<g id="Workflows">
	</g>
	<g id="Rueckgaengig">
	</g>
	<g id="Wiederherstellen">
	</g>
	<g id="Reset-Revert">
		<g>
			<g>
				<circle class="st11" cx="28.5" cy="55.1" r="9"/>
				<circle class="st12" cx="95" cy="55.1" r="9"/>
				<circle class="st11" cx="61.7" cy="55.1" r="9"/>
				<rect x="119" y="46.1" class="st13" width="18" height="18"/>
				<line class="st14" x1="37.5" y1="55.2" x2="52.5" y2="55.2"/>
				<line class="st14" x1="85.5" y1="55.2" x2="70.5" y2="55.2"/>
				<line class="st14" x1="118.5" y1="55.2" x2="103.5" y2="55.2"/>
				<g>
					<line class="st14" x1="124" y1="59.1" x2="132" y2="51.1"/>
					<line class="st14" x1="132" y1="59.1" x2="124" y2="51.1"/>
				</g>
				<rect x="81" y="83.2" class="st11" width="28" height="11"/>
				<rect x="81" y="96.7" class="st11" width="28" height="11"/>
				<rect x="114" y="83.2" class="st15" width="28" height="11"/>
				<rect x="114" y="96.9" class="st15" width="28" height="11"/>
				<g>
					<g>
						<path d="M72.8,19.5h0.4l0,1.1h0c0.3-0.8,0.8-1.3,1.4-1.3c0.2,0,0.4,0,0.6,0.2l-0.1,0.7c-0.2-0.1-0.3-0.2-0.6-0.2
							c-0.5,0-0.9,0.4-1.2,1.4v2.8h-0.5V19.5z"/>
						<path d="M76.1,21.9c0-1.6,0.7-2.5,1.5-2.5c0.9,0,1.4,0.9,1.4,2.3c0,0.2,0,0.4,0,0.5h-2.4c0.1,1.1,0.5,1.7,1.2,1.7
							c0.4,0,0.6-0.2,0.9-0.5l0.2,0.5c-0.3,0.3-0.7,0.6-1.2,0.6C76.8,24.5,76.1,23.5,76.1,21.9z M76.6,21.5h1.9c0-1-0.4-1.5-0.9-1.5
							C77.1,20,76.7,20.6,76.6,21.5z"/>
						<path d="M79.8,23.7l0.2-0.5c0.3,0.4,0.8,0.7,1.3,0.7c0.5,0,0.8-0.3,0.8-0.8c0-0.4-0.1-0.6-0.9-0.9c-0.8-0.3-1.2-0.7-1.2-1.4
							c0-0.8,0.4-1.4,1.3-1.4c0.5,0,0.9,0.3,1.2,0.6l-0.3,0.5c-0.3-0.3-0.6-0.5-1-0.5c-0.5,0-0.7,0.3-0.7,0.7c0,0.4,0.3,0.6,0.9,0.8
							c1,0.3,1.3,0.8,1.3,1.5c0,0.8-0.5,1.4-1.3,1.4C80.7,24.5,80.2,24.1,79.8,23.7z"/>
						<path d="M83.5,21.9c0-1.6,0.7-2.5,1.5-2.5c0.9,0,1.4,0.9,1.4,2.3c0,0.2,0,0.4,0,0.5h-2.4c0.1,1.1,0.5,1.7,1.2,1.7
							c0.4,0,0.6-0.2,0.9-0.5l0.2,0.5c-0.3,0.3-0.7,0.6-1.2,0.6C84.3,24.5,83.5,23.5,83.5,21.9z M84.1,21.5H86c0-1-0.4-1.5-0.9-1.5
							C84.6,20,84.2,20.6,84.1,21.5z"/>
						<path d="M88.2,22.5v-2.3h-0.9v-0.6l0.9,0l0.1-1.6h0.4v1.6h1.5v0.7h-1.5v2.3c0,0.9,0.2,1.3,0.8,1.3c0.3,0,0.5-0.1,0.7-0.2
							l0.1,0.6c-0.3,0.2-0.6,0.3-0.9,0.3C88.4,24.5,88.2,23.7,88.2,22.5z"/>
					</g>
				</g>
				<g>
					<g>
						<line class="st16" x1="95" y1="73.8" x2="95" y2="81.7"/>
						<g>
							<polygon points="95,66.7 91,76.7 95,74.3 99.1,76.7 							"/>
						</g>
					</g>
				</g>
				<g>
					<g>
						<line class="st17" x1="128" y1="72.8" x2="128" y2="80.7"/>
						<g>
							<polygon class="st18" points="128,65.7 124,75.7 128,73.3 132.1,75.7 							"/>
						</g>
					</g>
				</g>
				<g>
					<g>
						<path class="st18" d="M121.7,84.8h0.5v2.7h1.7v-2.7h0.5v6.6H124v-3.1h-1.7v3.1h-0.5V84.8z"/>
						<path class="st18" d="M125.7,84.8h2.5v0.7h-2v2.1h1.7v0.7h-1.7v2.4h2.1v0.7h-2.6V84.8z"/>
						<path class="st18" d="M130.3,84.8h0.6l1.4,6.6h-0.5l-0.4-2h-1.5l-0.4,2h-0.5L130.3,84.8z M130,88.7h1.2l-0.2-1
							c-0.1-0.7-0.3-1.4-0.4-2.2h0c-0.1,0.8-0.3,1.5-0.4,2.2L130,88.7z"/>
						<path class="st18" d="M133,84.8h1c1.2,0,1.9,1.2,1.9,3.2c0,2.1-0.7,3.3-1.9,3.3h-1V84.8z M134,90.7c0.9,0,1.4-1,1.4-2.6
							c0-1.6-0.5-2.6-1.4-2.6h-0.5v5.2H134z"/>
					</g>
				</g>
				<g>
					<g>
						<path d="M88.7,84.8h0.5v2.7H91v-2.7h0.5v6.6H91v-3.1h-1.7v3.1h-0.5V84.8z"/>
						<path d="M92.7,84.8h2.5v0.7h-2v2.1h1.7v0.7h-1.7v2.4h2.1v0.7h-2.6V84.8z"/>
						<path d="M97.3,84.8h0.6l1.4,6.6h-0.5l-0.4-2h-1.5l-0.4,2h-0.5L97.3,84.8z M97,88.7h1.2l-0.2-1c-0.1-0.7-0.3-1.4-0.4-2.2h0
							c-0.1,0.8-0.3,1.5-0.4,2.2L97,88.7z"/>
						<path d="M100,84.8h1c1.2,0,1.9,1.2,1.9,3.2c0,2.1-0.7,3.3-1.9,3.3h-1V84.8z M101,90.7c0.9,0,1.4-1,1.4-2.6
							c0-1.6-0.5-2.6-1.4-2.6h-0.5v5.2H101z"/>
					</g>
				</g>
				<g>
					<g>
						<path d="M87.4,100.1h0.4l0,0.6h0c0.2-0.4,0.3-0.8,0.7-0.8c0.3,0,0.5,0.3,0.6,0.8c0.2-0.5,0.4-0.8,0.7-0.8
							c0.4,0,0.7,0.5,0.7,1.5v3.5H90v-3.4c0-0.6-0.1-0.8-0.3-0.8c-0.2,0-0.3,0.3-0.5,0.8v3.5h-0.5v-3.4c0-0.6-0.1-0.8-0.3-0.8
							c-0.2,0-0.3,0.3-0.5,0.8v3.5h-0.5V100.1z"/>
						<path d="M91.2,103.7c0-1.1,0.6-1.6,2.2-1.8c0-0.7-0.2-1.2-0.8-1.2c-0.4,0-0.8,0.3-1.1,0.6l-0.2-0.6c0.3-0.3,0.8-0.7,1.3-0.7
							c0.8,0,1.2,0.8,1.2,2v3h-0.4l0-0.7h0c-0.3,0.4-0.8,0.8-1.2,0.8C91.7,105,91.2,104.5,91.2,103.7z M93.4,103.7v-1.3
							c-1.3,0.2-1.7,0.6-1.7,1.2c0,0.5,0.3,0.8,0.7,0.8C92.8,104.4,93.1,104.1,93.4,103.7z"/>
						<path d="M94.9,104.3l0.2-0.5c0.3,0.4,0.8,0.7,1.3,0.7c0.5,0,0.8-0.3,0.8-0.8c0-0.4-0.1-0.6-0.9-0.9c-0.8-0.3-1.2-0.7-1.2-1.4
							c0-0.8,0.4-1.4,1.3-1.4c0.5,0,0.9,0.3,1.2,0.6l-0.3,0.5c-0.3-0.3-0.6-0.5-1-0.5c-0.5,0-0.7,0.3-0.7,0.7c0,0.4,0.3,0.6,0.9,0.8
							c1,0.3,1.3,0.8,1.3,1.5c0,0.8-0.5,1.4-1.3,1.4C95.8,105,95.3,104.7,94.9,104.3z"/>
						<path d="M99.5,103v-2.3h-0.9v-0.6l0.9,0l0.1-1.6h0.4v1.6h1.5v0.7H100v2.3c0,0.9,0.2,1.3,0.8,1.3c0.3,0,0.5-0.1,0.7-0.2
							l0.1,0.6c-0.3,0.2-0.6,0.3-0.9,0.3C99.8,105,99.5,104.2,99.5,103z"/>
						<path d="M102.4,102.5c0-1.6,0.7-2.5,1.5-2.5c0.9,0,1.4,0.9,1.4,2.3c0,0.2,0,0.4,0,0.5h-2.4c0.1,1.1,0.5,1.7,1.2,1.7
							c0.4,0,0.6-0.2,0.9-0.5l0.2,0.5c-0.3,0.3-0.7,0.6-1.2,0.6C103.1,105,102.4,104.1,102.4,102.5z M102.9,102.1h1.9
							c0-1-0.4-1.5-0.9-1.5C103.5,100.6,103,101.1,102.9,102.1z"/>
						<path d="M106.6,100.1h0.4l0,1.1h0c0.3-0.8,0.8-1.3,1.4-1.3c0.2,0,0.4,0,0.6,0.2l-0.1,0.7c-0.2-0.1-0.3-0.2-0.6-0.2
							c-0.5,0-0.9,0.4-1.2,1.4v2.8h-0.5V100.1z"/>
					</g>
				</g>
				<g>
					<g>
						<path class="st18" d="M120.4,100.1h0.4l0,0.6h0c0.2-0.4,0.3-0.8,0.7-0.8c0.3,0,0.5,0.3,0.6,0.8c0.2-0.5,0.4-0.8,0.7-0.8
							c0.4,0,0.7,0.5,0.7,1.5v3.5H123v-3.4c0-0.6-0.1-0.8-0.3-0.8c-0.2,0-0.3,0.3-0.5,0.8v3.5h-0.5v-3.4c0-0.6-0.1-0.8-0.3-0.8
							c-0.2,0-0.3,0.3-0.5,0.8v3.5h-0.5V100.1z"/>
						<path class="st18" d="M124.2,103.7c0-1.1,0.6-1.6,2.2-1.8c0-0.7-0.2-1.2-0.8-1.2c-0.4,0-0.8,0.3-1.1,0.6l-0.2-0.6
							c0.3-0.3,0.8-0.7,1.3-0.7c0.8,0,1.2,0.8,1.2,2v3h-0.4l0-0.7h0c-0.3,0.4-0.8,0.8-1.2,0.8C124.7,105.1,124.2,104.6,124.2,103.7z
							 M126.4,103.7v-1.3c-1.3,0.2-1.7,0.6-1.7,1.2c0,0.5,0.3,0.8,0.7,0.8C125.8,104.4,126.1,104.2,126.4,103.7z"/>
						<path class="st18" d="M127.9,104.3l0.2-0.5c0.3,0.4,0.8,0.7,1.3,0.7c0.5,0,0.8-0.3,0.8-0.8c0-0.4-0.1-0.6-0.9-0.9
							c-0.8-0.3-1.2-0.7-1.2-1.4c0-0.8,0.4-1.4,1.3-1.4c0.5,0,0.9,0.3,1.2,0.6l-0.3,0.5c-0.3-0.3-0.6-0.5-1-0.5
							c-0.5,0-0.7,0.3-0.7,0.7c0,0.4,0.3,0.6,0.9,0.8c1,0.3,1.3,0.8,1.3,1.5c0,0.8-0.5,1.4-1.3,1.4
							C128.8,105.1,128.3,104.7,127.9,104.3z"/>
						<path class="st18" d="M132.5,103.1v-2.3h-0.9v-0.6l0.9,0l0.1-1.6h0.4v1.6h1.5v0.7H133v2.3c0,0.9,0.2,1.3,0.8,1.3
							c0.3,0,0.5-0.1,0.7-0.2l0.1,0.6c-0.3,0.2-0.6,0.3-0.9,0.3C132.8,105.1,132.5,104.3,132.5,103.1z"/>
						<path class="st18" d="M135.4,102.5c0-1.6,0.7-2.5,1.5-2.5c0.9,0,1.4,0.9,1.4,2.3c0,0.2,0,0.4,0,0.5h-2.4
							c0.1,1.1,0.5,1.7,1.2,1.7c0.4,0,0.6-0.2,0.9-0.5l0.2,0.5c-0.3,0.3-0.7,0.6-1.2,0.6C136.1,105.1,135.4,104.2,135.4,102.5z
							 M135.9,102.1h1.9c0-1-0.4-1.5-0.9-1.5C136.5,100.6,136,101.2,135.9,102.1z"/>
						<path class="st18" d="M139.6,100.1h0.4l0,1.1h0c0.3-0.8,0.8-1.3,1.4-1.3c0.2,0,0.4,0,0.6,0.2l-0.1,0.7
							c-0.2-0.1-0.3-0.2-0.6-0.2c-0.5,0-0.9,0.4-1.2,1.4v2.8h-0.5V100.1z"/>
					</g>
				</g>
				<g>
					<g>
						<path class="st11" d="M103.4,37.7c7.6-5.1,14.1-3.6,20.6,4.6"/>
						<g>
							<polygon class="st19" points="98,42.2 108.3,39.1 103.9,37.4 103.2,32.8 							"/>
						</g>
					</g>
				</g>
			</g>
			<g>
				<rect x="230.7" y="46" class="st13" width="18" height="18"/>
				<circle class="st11" cx="206.5" cy="55" r="9"/>
				<circle class="st11" cx="273" cy="55" r="9"/>
				<circle class="st12" cx="306" cy="55" r="9"/>
				<line class="st14" x1="230.5" y1="55" x2="215.5" y2="55"/>
				<line class="st14" x1="263.5" y1="55" x2="248.5" y2="55"/>
				<line class="st14" x1="296.5" y1="55" x2="281.5" y2="55"/>
				<g>
					<line class="st14" x1="236" y1="59" x2="244" y2="51"/>
					<line class="st14" x1="244" y1="59" x2="236" y2="51"/>
				</g>
				<rect x="259" y="83" class="st15" width="28" height="11"/>
				<rect x="259" y="96.7" class="st15" width="28" height="11"/>
				<rect x="292" y="83" class="st11" width="28" height="11"/>
				<rect x="292" y="97" class="st11" width="28" height="11"/>
				<g>
					<g>
						<path d="M249.8,19.3h0.4l0,1.1h0c0.3-0.8,0.8-1.3,1.4-1.3c0.2,0,0.4,0,0.6,0.2l-0.1,0.7c-0.2-0.1-0.3-0.2-0.6-0.2
							c-0.5,0-0.9,0.4-1.2,1.4v2.8h-0.5V19.3z"/>
						<path d="M253.1,21.8c0-1.6,0.7-2.5,1.5-2.5c0.9,0,1.4,0.9,1.4,2.3c0,0.2,0,0.4,0,0.5h-2.4c0.1,1.1,0.5,1.7,1.2,1.7
							c0.4,0,0.6-0.2,0.9-0.5l0.2,0.5c-0.3,0.3-0.7,0.6-1.2,0.6C253.8,24.3,253.1,23.4,253.1,21.8z M253.6,21.4h1.9
							c0-1-0.4-1.5-0.9-1.5C254.1,19.9,253.7,20.4,253.6,21.4z"/>
						<path d="M256.7,19.3h0.5l0.7,2.8c0.1,0.5,0.2,1,0.3,1.4h0c0.1-0.5,0.2-0.9,0.3-1.4l0.7-2.8h0.5l-1.3,4.9H258L256.7,19.3z"/>
						<path d="M260.5,21.8c0-1.6,0.7-2.5,1.5-2.5c0.9,0,1.4,0.9,1.4,2.3c0,0.2,0,0.4,0,0.5h-2.4c0.1,1.1,0.5,1.7,1.2,1.7
							c0.4,0,0.6-0.2,0.9-0.5l0.2,0.5c-0.3,0.3-0.7,0.6-1.2,0.6C261.3,24.3,260.5,23.4,260.5,21.8z M261.1,21.4h1.9
							c0-1-0.4-1.5-0.9-1.5C261.6,19.9,261.2,20.4,261.1,21.4z"/>
						<path d="M264.8,19.3h0.4l0,1.1h0c0.3-0.8,0.8-1.3,1.4-1.3c0.2,0,0.4,0,0.6,0.2l-0.1,0.7c-0.2-0.1-0.3-0.2-0.6-0.2
							c-0.5,0-0.9,0.4-1.2,1.4v2.8h-0.5V19.3z"/>
						<path d="M268.9,22.3V20H268v-0.6l0.9,0l0.1-1.6h0.4v1.6h1.5V20h-1.5v2.3c0,0.9,0.2,1.3,0.8,1.3c0.3,0,0.5-0.1,0.7-0.2L271,24
							c-0.3,0.2-0.6,0.3-0.9,0.3C269.2,24.3,268.9,23.5,268.9,22.3z"/>
					</g>
				</g>
				<rect x="257.2" y="20.7" class="st21" width="17.8" height="0"/>
				<g>
					<g>
						<line class="st17" x1="273" y1="73.6" x2="273" y2="81.5"/>
						<g>
							<polygon class="st18" points="273,66.5 269,76.5 273,74.1 277.1,76.5 							"/>
						</g>
					</g>
				</g>
				<g>
					<g>
						<line class="st16" x1="306" y1="72.6" x2="306" y2="80.5"/>
						<g>
							<polygon points="306,65.5 302,75.5 306,73.1 310.1,75.5 							"/>
						</g>
					</g>
				</g>
				<g>
					<g>
						<path class="st18" d="M266.7,84.6h0.5v2.7h1.7v-2.7h0.5v6.6H269v-3.1h-1.7v3.1h-0.5V84.6z"/>
						<path class="st18" d="M270.7,84.6h2.5v0.7h-2v2.1h1.7v0.7h-1.7v2.4h2.1v0.7h-2.6V84.6z"/>
						<path class="st18" d="M275.3,84.6h0.6l1.4,6.6h-0.5l-0.4-2h-1.5l-0.4,2h-0.5L275.3,84.6z M275,88.5h1.2l-0.2-1
							c-0.1-0.7-0.3-1.4-0.4-2.2h0c-0.1,0.8-0.3,1.5-0.4,2.2L275,88.5z"/>
						<path class="st18" d="M278,84.6h1c1.2,0,1.9,1.2,1.9,3.2c0,2.1-0.7,3.3-1.9,3.3h-1V84.6z M279,90.5c0.9,0,1.4-1,1.4-2.6
							c0-1.6-0.5-2.6-1.4-2.6h-0.5v5.2H279z"/>
					</g>
				</g>
				<g>
					<g>
						<path d="M299.7,84.6h0.5v2.7h1.7v-2.7h0.5v6.6H302v-3.1h-1.7v3.1h-0.5V84.6z"/>
						<path d="M303.7,84.6h2.5v0.7h-2v2.1h1.7v0.7h-1.7v2.4h2.1v0.7h-2.6V84.6z"/>
						<path d="M308.3,84.6h0.6l1.4,6.6h-0.5l-0.4-2h-1.5l-0.4,2h-0.5L308.3,84.6z M308,88.5h1.2l-0.2-1c-0.1-0.7-0.3-1.4-0.4-2.2h0
							c-0.1,0.8-0.3,1.5-0.4,2.2L308,88.5z"/>
						<path d="M311,84.6h1c1.2,0,1.9,1.2,1.9,3.2c0,2.1-0.7,3.3-1.9,3.3h-1V84.6z M312,90.5c0.9,0,1.4-1,1.4-2.6
							c0-1.6-0.5-2.6-1.4-2.6h-0.5v5.2H312z"/>
					</g>
				</g>
				<g>
					<g>
						<path class="st18" d="M265.4,99.2h0.4l0,0.6h0c0.2-0.4,0.3-0.8,0.7-0.8c0.3,0,0.5,0.3,0.6,0.8c0.2-0.5,0.4-0.8,0.7-0.8
							c0.4,0,0.7,0.5,0.7,1.5v3.5H268v-3.4c0-0.6-0.1-0.8-0.3-0.8c-0.2,0-0.3,0.3-0.5,0.8v3.5h-0.5v-3.4c0-0.6-0.1-0.8-0.3-0.8
							c-0.2,0-0.3,0.3-0.5,0.8v3.5h-0.5V99.2z"/>
						<path class="st18" d="M269.2,102.8c0-1.1,0.6-1.6,2.2-1.8c0-0.7-0.2-1.2-0.8-1.2c-0.4,0-0.8,0.3-1.1,0.6l-0.2-0.6
							c0.3-0.3,0.8-0.7,1.3-0.7c0.8,0,1.2,0.8,1.2,2v3h-0.4l0-0.7h0c-0.3,0.4-0.8,0.8-1.2,0.8C269.7,104.2,269.2,103.7,269.2,102.8z
							 M271.4,102.8v-1.3c-1.3,0.2-1.7,0.6-1.7,1.2c0,0.5,0.3,0.8,0.7,0.8C270.8,103.5,271.1,103.3,271.4,102.8z"/>
						<path class="st18" d="M272.9,103.4l0.2-0.5c0.3,0.4,0.8,0.7,1.3,0.7c0.5,0,0.8-0.3,0.8-0.8c0-0.4-0.1-0.6-0.9-0.9
							c-0.8-0.3-1.2-0.7-1.2-1.4c0-0.8,0.4-1.4,1.3-1.4c0.5,0,0.9,0.3,1.2,0.6l-0.3,0.5c-0.3-0.3-0.6-0.5-1-0.5
							c-0.5,0-0.7,0.3-0.7,0.7c0,0.4,0.3,0.6,0.9,0.8c1,0.3,1.3,0.8,1.3,1.5c0,0.8-0.5,1.4-1.3,1.4
							C273.8,104.2,273.3,103.8,272.9,103.4z"/>
						<path class="st18" d="M277.5,102.2v-2.3h-0.9v-0.6l0.9,0l0.1-1.6h0.4v1.6h1.5v0.7H278v2.3c0,0.9,0.2,1.3,0.8,1.3
							c0.3,0,0.5-0.1,0.7-0.2l0.1,0.6c-0.3,0.2-0.6,0.3-0.9,0.3C277.8,104.2,277.5,103.4,277.5,102.2z"/>
						<path class="st18" d="M280.4,101.6c0-1.6,0.7-2.5,1.5-2.5c0.9,0,1.4,0.9,1.4,2.3c0,0.2,0,0.4,0,0.5h-2.4
							c0.1,1.1,0.5,1.7,1.2,1.7c0.4,0,0.6-0.2,0.9-0.5l0.2,0.5c-0.3,0.3-0.7,0.6-1.2,0.6C281.1,104.2,280.4,103.2,280.4,101.6z
							 M280.9,101.2h1.9c0-1-0.4-1.5-0.9-1.5C281.5,99.7,281,100.3,280.9,101.2z"/>
						<path class="st18" d="M284.6,99.2h0.4l0,1.1h0c0.3-0.8,0.8-1.3,1.4-1.3c0.2,0,0.4,0,0.6,0.2l-0.1,0.7
							c-0.2-0.1-0.3-0.2-0.6-0.2c-0.5,0-0.9,0.4-1.2,1.4v2.8h-0.5V99.2z"/>
					</g>
				</g>
				<g>
					<g>
						<path d="M298.4,99.6h0.4l0,0.6h0c0.2-0.4,0.3-0.8,0.7-0.8c0.3,0,0.5,0.3,0.6,0.8c0.2-0.5,0.4-0.8,0.7-0.8
							c0.4,0,0.7,0.5,0.7,1.5v3.5H301V101c0-0.6-0.1-0.8-0.3-0.8c-0.2,0-0.3,0.3-0.5,0.8v3.5h-0.5V101c0-0.6-0.1-0.8-0.3-0.8
							c-0.2,0-0.3,0.3-0.5,0.8v3.5h-0.5V99.6z"/>
						<path d="M302.2,103.2c0-1.1,0.6-1.6,2.2-1.8c0-0.7-0.2-1.2-0.8-1.2c-0.4,0-0.8,0.3-1.1,0.6l-0.2-0.6c0.3-0.3,0.8-0.7,1.3-0.7
							c0.8,0,1.2,0.8,1.2,2v3h-0.4l0-0.7h0c-0.3,0.4-0.8,0.8-1.2,0.8C302.7,104.6,302.2,104.1,302.2,103.2z M304.4,103.2v-1.3
							c-1.3,0.2-1.7,0.6-1.7,1.2c0,0.5,0.3,0.8,0.7,0.8C303.8,103.9,304.1,103.6,304.4,103.2z"/>
						<path d="M305.9,103.8l0.2-0.5c0.3,0.4,0.8,0.7,1.3,0.7c0.5,0,0.8-0.3,0.8-0.8c0-0.4-0.1-0.6-0.9-0.9c-0.8-0.3-1.2-0.7-1.2-1.4
							c0-0.8,0.4-1.4,1.3-1.4c0.5,0,0.9,0.3,1.2,0.6l-0.3,0.5c-0.3-0.3-0.6-0.5-1-0.5c-0.5,0-0.7,0.3-0.7,0.7c0,0.4,0.3,0.6,0.9,0.8
							c1,0.3,1.3,0.8,1.3,1.5c0,0.8-0.5,1.4-1.3,1.4C306.8,104.6,306.3,104.2,305.9,103.8z"/>
						<path d="M310.5,102.6v-2.3h-0.9v-0.6l0.9,0l0.1-1.6h0.4v1.6h1.5v0.7H311v2.3c0,0.9,0.2,1.3,0.8,1.3c0.3,0,0.5-0.1,0.7-0.2
							l0.1,0.6c-0.3,0.2-0.6,0.3-0.9,0.3C310.8,104.6,310.5,103.8,310.5,102.6z"/>
						<path d="M313.4,102c0-1.6,0.7-2.5,1.5-2.5c0.9,0,1.4,0.9,1.4,2.3c0,0.2,0,0.4,0,0.5h-2.4c0.1,1.1,0.5,1.7,1.2,1.7
							c0.4,0,0.6-0.2,0.9-0.5l0.2,0.5c-0.3,0.3-0.7,0.6-1.2,0.6C314.1,104.6,313.4,103.6,313.4,102z M313.9,101.6h1.9
							c0-1-0.4-1.5-0.9-1.5C314.5,100.1,314,100.6,313.9,101.6z"/>
						<path d="M317.6,99.6h0.4l0,1.1h0c0.3-0.8,0.8-1.3,1.4-1.3c0.2,0,0.4,0,0.6,0.2l-0.1,0.7c-0.2-0.1-0.3-0.2-0.6-0.2
							c-0.5,0-0.9,0.4-1.2,1.4v2.8h-0.5V99.6z"/>
					</g>
				</g>
				<g>
					<g>
						<path class="st20" d="M242.5,40.5c8.8-11.1,40.2-13.8,56.4-4"/>
						<g>
							<polygon class="st19" points="304,40.5 294.5,37.9 298.5,36.3 299,32 							"/>
						</g>
					</g>
				</g>
			</g>
		</g>
	</g>
</g>
<g id="vorlage">
</g>
</svg>
