<?xml version="1.0" encoding="utf-8"?>
<!-- Generator: Adobe Illustrator 24.2.3, SVG Export Plug-In . SVG Version: 6.00 Build 0)  -->
<svg version="1.1" id="work" xmlns="http://www.w3.org/2000/svg" xmlns:xlink="http://www.w3.org/1999/xlink" x="0px" y="0px"
	 viewBox="0 0 750 363.2" style="enable-background:new 0 0 750 363.2;" xml:space="preserve">
<style type="text/css">
	.st0{fill:#030304;}
	.st1{fill:#9A9999;}
	.st2{fill:#020203;}
	.st3{fill:#E30613;}
	.st4{fill:none;stroke:#030304;stroke-miterlimit:10;}
	.st5{fill:none;stroke:#B3B3B3;stroke-width:1.0184;stroke-miterlimit:10;}
	.st6{fill:none;stroke:#B3B3B3;stroke-width:1.0184;stroke-miterlimit:10;stroke-dasharray:13.977,13.977;}
	.st7{fill:none;stroke:#B3B3B3;stroke-width:1.0184;stroke-miterlimit:10;stroke-dasharray:13.8803,13.8803;}
	.st8{fill:none;stroke:#B3B3B3;stroke-width:1.0004;stroke-miterlimit:10;}
	.st9{fill:none;stroke:#B3B3B3;stroke-width:1.0004;stroke-miterlimit:10;stroke-dasharray:13.8874,13.8874;}
	.st10{fill:none;stroke:#B3B3B3;stroke-width:1.0004;stroke-miterlimit:10;stroke-dasharray:13.9671,13.9671;}
</style>
<g id="Endschalter_1_">
	<g id="endschalter_2_">
		<g>
			<rect id="rect4295_1_" x="551.3" y="195.2" class="st0" width="20" height="3.4"/>
			<rect id="rect4297_1_" x="621" y="195.2" class="st0" width="20" height="3.4"/>
			<rect id="rect4251_1_" x="178.1" y="195.7" class="st0" width="20" height="3.4"/>
			<rect id="rect4249_1_" x="109.1" y="195.2" class="st0" width="20" height="3.4"/>
			<rect id="rect4259_3_" x="105.1" y="319.8" class="st0" width="20" height="3.4"/>
			<rect id="rect4261_3_" x="178.1" y="319.8" class="st0" width="20" height="3.4"/>
			<rect id="rect4259_2_" x="551.6" y="319.8" class="st0" width="20" height="3.4"/>
			<rect id="rect4261_2_" x="624.6" y="319.8" class="st0" width="20" height="3.4"/>
		</g>
	</g>
	<g id="zylinder_1_">
		<g>
			<rect x="542.7" y="198.6" class="st1" width="112.6" height="17"/>
			<rect x="655.2" y="204.3" class="st2" width="52" height="5.5"/>
			<rect x="707.2" y="201.1" class="st2" width="12" height="12"/>
		</g>
		<g>
			<rect x="94.8" y="198.5" class="st1" width="112.6" height="17"/>
			<rect x="42.8" y="204.3" class="st2" width="52" height="5.5"/>
			<rect x="30.8" y="201" class="st2" width="12" height="12"/>
		</g>
		<g>
			<rect x="542.7" y="323.3" class="st1" width="112.6" height="17"/>
			<rect x="655.2" y="329" class="st2" width="26" height="5.5"/>
			<rect x="681.2" y="325.7" class="st2" width="12" height="12"/>
		</g>
		<g>
			<rect x="91.8" y="323.2" class="st1" width="112.6" height="17"/>
			<rect x="65.8" y="329" class="st2" width="26" height="5.5"/>
			<rect x="53.8" y="325.8" class="st2" width="12" height="12"/>
		</g>
	</g>
	<g>
		<g>
			<path d="M278.9,23.4h13v3.7h-8.5v3.9h7.2v3.7h-7.2v4.5h8.8V43h-13.3V23.4z"/>
			<path d="M296.3,28.1h3.6l0.3,2h0.1c1.3-1.3,2.9-2.3,5.1-2.3c3.4,0,4.9,2.3,4.9,6.1V43h-4.4v-8.6c0-2-0.6-2.9-2.2-2.9
				c-1.2,0-2,0.5-3,1.6V43h-4.4V28.1z"/>
			<path d="M313.5,35.5c0-4.9,3.1-7.8,6.4-7.8c1.7,0,2.8,0.6,3.8,1.6h0.1l-0.2-2.3v-5.1h4.4v21h-3.6l-0.3-1.5h-0.1
				c-1.1,1.1-2.6,1.9-4.1,1.9C316,43.3,313.5,40.4,313.5,35.5z M323.5,38.3v-6c-0.8-0.7-1.6-1-2.5-1c-1.6,0-3,1.3-3,4.1
				c0,2.9,1,4.3,2.9,4.3C321.9,39.7,322.8,39.3,323.5,38.3z"/>
			<path d="M331.7,41l1.9-2.8c1.8,1.1,3.9,1.8,6,1.8c1.6,0,2.4-0.5,2.4-1.3c0-0.8-0.8-1.1-3.7-1.8c-4-0.9-5.7-2.3-5.7-4.6
				c0-2.8,2.6-4.6,6.8-4.6c2.7,0,4.9,1,6.5,2l-2,2.6c-1.5-0.9-3.2-1.4-4.9-1.4c-1.4,0-2.1,0.5-2.1,1.2c0,0.8,0.9,1,3.4,1.6
				c4.6,1,5.8,2.3,5.8,4.8c0,2.7-2.5,4.8-7.3,4.8C336.3,43.3,333.6,42.3,331.7,41z"/>
			<path d="M350.1,35.5c0-4.9,4-7.8,8.6-7.8c2.3,0,4.3,0.8,5.6,2l-2,2.7c-1.1-0.8-2.2-1.2-3.3-1.2c-2.5,0-4.3,1.6-4.3,4.2
				c0,2.6,1.7,4.2,4.2,4.2c1.6,0,2.9-0.7,3.9-1.4l1.8,2.8c-1.8,1.5-4.1,2.2-6.1,2.2C353.7,43.3,350.1,40.5,350.1,35.5z"/>
			<path d="M368.3,21.9h4.4v5.2l-0.2,2.8h0.1c1.1-1.1,2.7-2.2,4.9-2.2c3.3,0,4.8,2.3,4.8,6.1V43h-4.4v-8.6c0-2-0.6-2.9-2.2-2.9
				c-1.2,0-2,0.5-3,1.6V43h-4.4V21.9z"/>
			<path d="M385.9,38.8c0-3.3,2.8-5,9.8-5.4c-0.2-1.3-1.2-2.2-3.2-2.2c-1.4,0-2.8,0.5-4.5,1.4l-1.6-2.9c2-1.2,4.4-2,7-2
				c4.2,0,6.7,2.2,6.7,6.7V43h-3.6l-0.3-1.7h-0.1c-1.5,1.1-3.4,2-5.3,2C387.8,43.3,385.9,41.3,385.9,38.8z M395.8,38.5V36
				c-4.4,0.2-5.6,1.2-5.6,2.5c0,1,0.8,1.4,2.1,1.4C393.6,39.9,394.7,39.3,395.8,38.5z"/>
			<path d="M408.3,37.1V25.4h-4.3v-3.5h8.8v15.4c0,1.8,1.2,2.4,2.4,2.4c0.7,0,1.4-0.1,2.3-0.5l1,3.2c-1.6,0.5-2.6,0.8-4.5,0.8
				C410.2,43.3,408.3,40.9,408.3,37.1z"/>
			<path d="M425.3,36.8v-5.3h-3.8v-3.3l4-0.2l0.6-4.6h3.6v4.6h6.3v3.4h-6.3v5.2c0,2.3,1,3.1,3.1,3.1c1.1,0,2-0.2,2.9-0.5l0.8,3.2
				c-1.3,0.4-2.9,0.8-4.9,0.8C427,43.3,425.3,40.7,425.3,36.8z"/>
			<path d="M439.8,35.5c0-4.9,3.8-7.8,7.7-7.8c4.6,0,7,3.1,7,7.1c0,0.8-0.2,1.6-0.2,2h-10.1c0.4,2.2,2,3.1,4.4,3.1
				c1.3,0,2.5-0.4,3.8-1l1.5,2.7c-1.7,1.1-3.9,1.7-5.9,1.7C443.4,43.3,439.8,40.5,439.8,35.5z M444.2,33.9h6.4
				c-0.2-1.8-1.2-2.8-2.9-2.8C445.9,31.1,444.7,32,444.2,33.9z"/>
			<path d="M459.6,28.1h3.6l0.4,3.2h0.1c1.5-2.4,3.7-3.6,6-3.6c1.3,0,2,0.2,2.9,0.6l-0.9,3.7c-0.9-0.3-1.5-0.4-2.6-0.4
				c-1.8,0-3.8,1-5,3.6V43h-4.4V28.1z"/>
		</g>
	</g>
	<g>
		<g>
			<path d="M143.1,91.9h1.7v12.3h6.8v1.5h-8.5V91.9z"/>
			<path d="M159.6,96.9h-4.7v-1.4h6.5v10.2h-1.7V96.9z M158.9,92c0-0.8,0.6-1.3,1.4-1.3c0.8,0,1.4,0.5,1.4,1.3
				c0,0.8-0.6,1.3-1.4,1.3C159.5,93.3,158.9,92.8,158.9,92z"/>
			<path d="M167.5,95.5h1.4l0.1,1.7h0.1c1.1-1.1,2.2-2,3.8-2c2.4,0,3.5,1.4,3.5,4.1v6.3h-1.7v-6.1c0-1.9-0.7-2.9-2.4-2.9
				c-1.2,0-2,0.6-3.2,1.8v7.1h-1.7V95.5z"/>
			<path d="M180.4,90.7h1.7v10.1h0.1l5.5-5.4h2l-4.1,4l4.6,6.2h-1.9l-3.8-5.1l-2.4,2.4v2.8h-1.7V90.7z"/>
			<path d="M192.2,104.3l0.8-1.1c1.2,0.8,2.5,1.4,4.4,1.4c1.7,0,2.6-0.7,2.6-1.6c0-0.8-0.4-1.3-3.2-1.9c-2.6-0.5-4-1.4-4-3
				c0-1.6,1.4-2.9,4.2-2.9c1.6,0,3.1,0.6,4.1,1.3l-0.8,1.1c-0.9-0.7-2.1-1.1-3.4-1.1c-1.7,0-2.4,0.7-2.4,1.5c0,0.9,0.9,1.3,3,1.7
				c3.4,0.7,4.2,1.6,4.2,3.1c0,1.7-1.6,3-4.5,3C195.2,105.9,193.5,105.2,192.2,104.3z"/>
		</g>
	</g>
	<g>
		<g>
			<path d="M588.8,91.9h4.3c2.8,0,4.8,1,4.8,3.9c0,2.1-1.2,3.4-3.1,3.9l3.5,6h-2l-3.3-5.8h-2.5v5.8h-1.7V91.9z M592.8,98.4
				c2.1,0,3.3-0.9,3.3-2.7c0-1.8-1.2-2.5-3.3-2.5h-2.3v5.1H592.8z"/>
			<path d="M600.7,100.5c0-3.3,2.5-5.3,5.2-5.3c2.9,0,4.7,1.9,4.7,4.8c0,0.4,0,0.8-0.1,1h-8c0.2,2.3,1.8,3.5,4,3.5
				c1.2,0,2.2-0.4,3.1-1l0.6,1.1c-1,0.7-2.3,1.2-3.9,1.2C603.1,105.9,600.7,103.9,600.7,100.5z M602.5,99.7h6.5
				c-0.1-2.1-1.3-3.1-3-3.1C604.3,96.6,602.8,97.7,602.5,99.7z"/>
			<path d="M613.5,100.6c0-3.4,2.6-5.4,5.7-5.4c1.7,0,2.9,0.7,3.7,1.5l-0.9,1.1c-0.8-0.7-1.7-1.2-2.8-1.2c-2.4,0-4,1.6-4,3.9
				c0,2.3,1.6,3.9,3.9,3.9c1.3,0,2.3-0.6,3.1-1.3l0.8,1.1c-1.1,1-2.5,1.6-4.1,1.6C615.9,105.9,613.5,104,613.5,100.6z"/>
			<path d="M626.4,90.7h1.7v4.1l-0.1,2.4h0.1c1-1.1,2.2-2,3.8-2c2.4,0,3.5,1.4,3.5,4.1v6.3h-1.7v-6.1c0-1.9-0.7-2.9-2.4-2.9
				c-1.2,0-2,0.6-3.2,1.8v7.1h-1.7V90.7z"/>
			<path d="M641.4,101.7v-4.8h-2.9v-1.3l2.9-0.1l0.2-3.3h1.4v3.3h5v1.4h-5v4.9c0,1.8,0.6,2.8,2.6,2.8c1,0,1.7-0.2,2.5-0.5l0.4,1.3
				c-0.9,0.3-1.9,0.6-3.2,0.6C642.4,105.9,641.4,104.2,641.4,101.7z"/>
			<path d="M651.2,104.3l0.8-1.1c1.2,0.8,2.5,1.4,4.4,1.4c1.7,0,2.6-0.7,2.6-1.6c0-0.8-0.4-1.3-3.2-1.9c-2.6-0.5-4-1.4-4-3
				c0-1.6,1.4-2.9,4.2-2.9c1.6,0,3.1,0.6,4.1,1.3l-0.8,1.1c-0.9-0.7-2.1-1.1-3.4-1.1c-1.7,0-2.4,0.7-2.4,1.5c0,0.9,0.9,1.3,3,1.7
				c3.4,0.7,4.2,1.6,4.2,3.1c0,1.7-1.6,3-4.5,3C654.2,105.9,652.4,105.2,651.2,104.3z"/>
		</g>
	</g>
	<g>
		<g>
			<path d="M363.8,164.7l7.7-11.3h-7V152h9.2v1l-7.7,11.3h7.8v1.5h-10V164.7z"/>
			<path d="M376.7,160.6V152h1.8v8.6c0,2.9,1.2,3.9,2.9,3.9c1.7,0,2.9-1,2.9-3.9V152h1.7v8.6c0,3.9-1.9,5.5-4.6,5.5
				C378.6,166,376.7,164.5,376.7,160.6z"/>
		</g>
	</g>
	<g>
		<g>
			<path d="M363.2,282.3h2l4.6,13.8H368l-1.3-4.2h-5l-1.3,4.2h-1.8L363.2,282.3z M362.2,290.4h4.1l-0.7-2.1c-0.5-1.5-0.9-3-1.4-4.6
				h-0.1c-0.4,1.6-0.9,3.1-1.4,4.6L362.2,290.4z"/>
			<path d="M372.2,290.8v-8.6h1.8v8.6c0,2.9,1.2,3.9,2.9,3.9c1.7,0,2.9-1,2.9-3.9v-8.6h1.7v8.6c0,3.9-1.9,5.5-4.6,5.5
				C374.1,296.3,372.2,294.8,372.2,290.8z"/>
			<path d="M385.9,282.3h8.5v1.5h-6.7v4.7h5.7v1.5h-5.7v6.2h-1.8V282.3z"/>
		</g>
	</g>
	<g>
		<g>
			<path class="st3" d="M80.7,152h1.7v12.3h6.8v1.5h-8.5V152z"/>
			<path class="st3" d="M92.9,152h8.5v1.5h-6.8v4.3h5.7v1.5h-5.7v5h7v1.5h-8.7V152z"/>
			<path class="st3" d="M104.9,152h3.4c4.1,0,6.4,2.5,6.4,6.8c0,4.4-2.2,6.9-6.3,6.9h-3.5V152z M108.2,164.3c3.1,0,4.7-2,4.7-5.5
				c0-3.5-1.6-5.4-4.7-5.4h-1.5v10.9H108.2z"/>
			<path class="st3" d="M133.6,152h2l4.6,13.8h-1.8l-1.3-4.2h-5l-1.3,4.2H129L133.6,152z M132.5,160.2h4.1l-0.7-2.1
				c-0.5-1.5-0.9-3-1.4-4.6h-0.1c-0.4,1.6-0.9,3.1-1.4,4.6L132.5,160.2z"/>
			<path class="st3" d="M142.6,152h1.9l4.4,8.7l1.3,2.9h0c-0.1-1.4-0.2-2.9-0.2-4.4V152h1.7v13.8h-1.9l-4.4-8.7l-1.3-2.9h0
				c0.1,1.4,0.2,2.9,0.2,4.3v7.2h-1.7V152z"/>
		</g>
	</g>
	<g>
		<g>
			<path class="st3" d="M621,152h1.7v12.3h6.8v1.5H621V152z"/>
			<path class="st3" d="M633.2,152h8.5v1.5H635v4.3h5.7v1.5H635v5h7v1.5h-8.7V152z"/>
			<path class="st3" d="M645.2,152h3.4c4.1,0,6.4,2.5,6.4,6.8c0,4.4-2.2,6.9-6.3,6.9h-3.5V152z M648.5,164.3c3.1,0,4.7-2,4.7-5.5
				c0-3.5-1.6-5.4-4.7-5.4H647v10.9H648.5z"/>
			<path class="st3" d="M673.9,152h2l4.6,13.8h-1.8l-1.3-4.2h-5l-1.3,4.2h-1.8L673.9,152z M672.8,160.2h4.1l-0.7-2.1
				c-0.5-1.5-0.9-3-1.4-4.6h-0.1c-0.4,1.6-0.9,3.1-1.4,4.6L672.8,160.2z"/>
			<path class="st3" d="M682.9,152h1.9l4.4,8.7l1.3,2.9h0c-0.1-1.4-0.2-2.9-0.2-4.4V152h1.7v13.8h-1.9l-4.4-8.7l-1.3-2.9h0
				c0.1,1.4,0.2,2.9,0.2,4.3v7.2h-1.7V152z"/>
		</g>
	</g>
	<g>
		<g>
			<path class="st3" d="M528.1,282.3h1.7v12.3h6.8v1.5h-8.5V282.3z"/>
			<path class="st3" d="M540.2,282.3h8.5v1.5H542v4.3h5.7v1.5H542v5h7v1.5h-8.7V282.3z"/>
			<path class="st3" d="M552.3,282.3h3.4c4.1,0,6.4,2.5,6.4,6.8c0,4.4-2.2,7-6.3,7h-3.5V282.3z M555.5,294.6c3.1,0,4.7-2,4.7-5.5
				c0-3.5-1.6-5.4-4.7-5.4H554v10.9H555.5z"/>
			<path class="st3" d="M581,282.3h2l4.6,13.8h-1.8l-1.3-4.2h-5l-1.3,4.2h-1.8L581,282.3z M579.9,290.4h4.1l-0.7-2.1
				c-0.5-1.5-0.9-3-1.4-4.6h-0.1c-0.4,1.6-0.9,3.1-1.4,4.6L579.9,290.4z"/>
			<path class="st3" d="M590,282.3h1.9l4.4,8.7l1.3,2.9h0c-0.1-1.4-0.2-2.9-0.2-4.4v-7.1h1.7V296h-1.9l-4.4-8.7l-1.3-2.9h0
				c0.1,1.4,0.2,2.9,0.2,4.3v7.2H590V282.3z"/>
		</g>
	</g>
	<g>
		<g>
			<path class="st3" d="M168,282.3h1.7v12.3h6.8v1.5H168V282.3z"/>
			<path class="st3" d="M180.2,282.3h8.5v1.5h-6.8v4.3h5.7v1.5h-5.7v5h7v1.5h-8.7V282.3z"/>
			<path class="st3" d="M192.2,282.3h3.4c4.1,0,6.4,2.5,6.4,6.8c0,4.4-2.2,6.9-6.3,6.9h-3.5V282.3z M195.5,294.6
				c3.1,0,4.7-2,4.7-5.5c0-3.5-1.6-5.4-4.7-5.4H194v10.9H195.5z"/>
			<path class="st3" d="M220.9,282.3h2l4.6,13.8h-1.8l-1.3-4.2h-5L218,296h-1.8L220.9,282.3z M219.8,290.4h4.1l-0.7-2.1
				c-0.5-1.5-0.9-3-1.4-4.6h-0.1c-0.4,1.6-0.9,3.1-1.4,4.6L219.8,290.4z"/>
			<path class="st3" d="M229.9,282.3h1.9l4.4,8.7l1.3,2.9h0c-0.1-1.4-0.2-2.9-0.2-4.4v-7.1h1.7V296h-1.9l-4.4-8.7l-1.3-2.9h0
				c0.1,1.4,0.2,2.9,0.2,4.3v7.2h-1.7V282.3z"/>
		</g>
	</g>
	<g>
		<g>
			<path d="M168,152h1.7v12.3h6.8v1.5H168V152z"/>
			<path d="M180.2,152h8.5v1.5h-6.8v4.3h5.7v1.5h-5.7v5h7v1.5h-8.7V152z"/>
			<path d="M192.2,152h3.4c4.1,0,6.4,2.5,6.4,6.8c0,4.4-2.2,6.9-6.3,6.9h-3.5V152z M195.5,164.3c3.1,0,4.7-2,4.7-5.5
				c0-3.5-1.6-5.4-4.7-5.4H194v10.9H195.5z"/>
			<path d="M220.9,152h2l4.6,13.8h-1.8l-1.3-4.2h-5l-1.3,4.2h-1.8L220.9,152z M219.8,160.2h4.1l-0.7-2.1c-0.5-1.5-0.9-3-1.4-4.6
				h-0.1c-0.4,1.6-0.9,3.1-1.4,4.6L219.8,160.2z"/>
			<path d="M229.8,160.6V152h1.8v8.6c0,2.9,1.2,3.9,2.9,3.9c1.7,0,2.9-1,2.9-3.9V152h1.7v8.6c0,3.9-1.9,5.5-4.6,5.5
				C231.8,166,229.8,164.5,229.8,160.6z"/>
			<path d="M242.2,164l1-1.2c1,1,2.5,1.7,4,1.7c1.9,0,3-0.9,3-2.2c0-1.5-1.1-1.9-2.5-2.5l-2-0.9c-1.4-0.5-3-1.5-3-3.5
				c0-2.1,1.9-3.7,4.5-3.7c1.7,0,3.2,0.7,4.2,1.7l-0.9,1.1c-0.9-0.8-2-1.3-3.4-1.3c-1.6,0-2.7,0.8-2.7,2c0,1.3,1.3,1.8,2.5,2.3
				l1.9,0.8c1.7,0.7,3,1.6,3,3.7c0,2.2-1.8,3.9-4.9,3.9C245.2,166,243.4,165.2,242.2,164z"/>
		</g>
	</g>
	<g>
		<g>
			<path d="M519,152h1.7v12.3h6.8v1.5H519V152z"/>
			<path d="M531.2,152h8.5v1.5h-6.8v4.3h5.7v1.5h-5.7v5h7v1.5h-8.7V152z"/>
			<path d="M543.2,152h3.4c4.1,0,6.4,2.5,6.4,6.8c0,4.4-2.2,6.9-6.3,6.9h-3.5V152z M546.5,164.3c3.1,0,4.7-2,4.7-5.5
				c0-3.5-1.6-5.4-4.7-5.4h-1.5v10.9H546.5z"/>
			<path d="M571.9,152h2l4.6,13.8h-1.8l-1.3-4.2h-5l-1.3,4.2h-1.8L571.9,152z M570.8,160.2h4.1l-0.7-2.1c-0.5-1.5-0.9-3-1.4-4.6
				h-0.1c-0.4,1.6-0.9,3.1-1.4,4.6L570.8,160.2z"/>
			<path d="M580.8,160.6V152h1.8v8.6c0,2.9,1.2,3.9,2.9,3.9c1.7,0,2.9-1,2.9-3.9V152h1.7v8.6c0,3.9-1.9,5.5-4.6,5.5
				C582.8,166,580.8,164.5,580.8,160.6z"/>
			<path d="M593.2,164l1-1.2c1,1,2.5,1.7,4,1.7c1.9,0,3-0.9,3-2.2c0-1.5-1.1-1.9-2.5-2.5l-2-0.9c-1.4-0.5-3-1.5-3-3.5
				c0-2.1,1.9-3.7,4.5-3.7c1.7,0,3.2,0.7,4.2,1.7l-0.9,1.1c-0.9-0.8-2-1.3-3.4-1.3c-1.6,0-2.7,0.8-2.7,2c0,1.3,1.3,1.8,2.5,2.3
				l1.9,0.8c1.7,0.7,3,1.6,3,3.7c0,2.2-1.8,3.9-4.9,3.9C596.1,166,594.4,165.2,593.2,164z"/>
		</g>
	</g>
	<g>
		<g>
			<path d="M72.8,282.3h1.7v12.3h6.8v1.5h-8.5V282.3z"/>
			<path d="M85,282.3h8.5v1.5h-6.8v4.3h5.7v1.5h-5.7v5h7v1.5H85V282.3z"/>
			<path d="M97,282.3h3.4c4.1,0,6.4,2.5,6.4,6.8c0,4.4-2.2,6.9-6.3,6.9H97V282.3z M100.3,294.6c3.1,0,4.7-2,4.7-5.5
				c0-3.5-1.6-5.4-4.7-5.4h-1.5v10.9H100.3z"/>
			<path d="M125.7,282.3h2l4.6,13.8h-1.8l-1.3-4.2h-5l-1.3,4.2h-1.8L125.7,282.3z M124.6,290.4h4.1l-0.7-2.1c-0.5-1.5-0.9-3-1.4-4.6
				h-0.1c-0.4,1.6-0.9,3.1-1.4,4.6L124.6,290.4z"/>
			<path d="M134.6,290.8v-8.6h1.8v8.6c0,2.9,1.2,3.9,2.9,3.9c1.7,0,2.9-1,2.9-3.9v-8.6h1.7v8.6c0,3.9-1.9,5.5-4.6,5.5
				C136.6,296.3,134.6,294.8,134.6,290.8z"/>
			<path d="M147,294.2l1-1.2c1,1,2.5,1.7,4,1.7c1.9,0,3-0.9,3-2.2c0-1.5-1.1-1.9-2.5-2.5l-2-0.9c-1.4-0.5-3-1.5-3-3.5
				c0-2.1,1.9-3.7,4.5-3.7c1.7,0,3.2,0.7,4.2,1.7l-0.9,1.1c-0.9-0.8-2-1.3-3.4-1.3c-1.6,0-2.7,0.8-2.7,2c0,1.3,1.3,1.8,2.5,2.3
				l1.9,0.8c1.7,0.7,3,1.6,3,3.7c0,2.2-1.8,3.9-4.9,3.9C150,296.3,148.2,295.5,147,294.2z"/>
		</g>
	</g>
	<g>
		<g>
			<path d="M621,282.3h1.7v12.3h6.8v1.5H621V282.3z"/>
			<path d="M633.2,282.3h8.5v1.5H635v4.3h5.7v1.5H635v5h7v1.5h-8.7V282.3z"/>
			<path d="M645.2,282.3h3.4c4.1,0,6.4,2.5,6.4,6.8c0,4.4-2.2,6.9-6.3,6.9h-3.5V282.3z M648.5,294.6c3.1,0,4.7-2,4.7-5.5
				c0-3.5-1.6-5.4-4.7-5.4H647v10.9H648.5z"/>
			<path d="M673.9,282.3h2l4.6,13.8h-1.8l-1.3-4.2h-5l-1.3,4.2h-1.8L673.9,282.3z M672.8,290.4h4.1l-0.7-2.1c-0.5-1.5-0.9-3-1.4-4.6
				h-0.1c-0.4,1.6-0.9,3.1-1.4,4.6L672.8,290.4z"/>
			<path d="M682.9,290.8v-8.6h1.8v8.6c0,2.9,1.2,3.9,2.9,3.9c1.7,0,2.9-1,2.9-3.9v-8.6h1.7v8.6c0,3.9-1.9,5.5-4.6,5.5
				C684.8,296.3,682.9,294.8,682.9,290.8z"/>
			<path d="M695.2,294.2l1-1.2c1,1,2.5,1.7,4,1.7c1.9,0,3-0.9,3-2.2c0-1.5-1.1-1.9-2.5-2.5l-2-0.9c-1.4-0.5-3-1.5-3-3.5
				c0-2.1,1.9-3.7,4.5-3.7c1.7,0,3.2,0.7,4.2,1.7l-0.9,1.1c-0.9-0.8-2-1.3-3.4-1.3c-1.6,0-2.7,0.8-2.7,2c0,1.3,1.3,1.8,2.5,2.3
				l1.9,0.8c1.7,0.7,3,1.6,3,3.7c0,2.2-1.8,3.9-4.9,3.9C698.2,296.3,696.5,295.5,695.2,294.2z"/>
		</g>
	</g>
</g>
</svg>
